<svg width="3115" height="2587" viewBox="0 0 3115 2587" fill="none" xmlns="http://www.w3.org/2000/svg">
<g clip-path="url(#clip0_1_2)">
<path opacity="0.1" d="M3109.15 851.057H2821.74V1199.19H3088.15C3088.84 1202.79 3089.49 1206.38 3090.27 1209.94H2821.74V1490.64L2823.09 1490.2C2830.67 1487.53 2838.21 1484.7 2845.69 1481.7L2850.5 1479.74C2858.17 1476.59 2865.71 1473.23 2873.11 1469.65C2875.76 1468.43 2878.39 1467.15 2880.98 1465.84C2922.31 1445.5 2960.41 1419.19 2994.05 1387.74C2995.02 1386.9 2995.93 1386.02 2996.8 1385.18C3001.4 1380.75 3005.9 1376.28 3010.28 1371.69L3015.09 1366.56C3020.25 1360.97 3025.22 1355.19 3030.07 1349.35L3032.19 1346.79C3051.67 1322.93 3068.04 1296.68 3080.89 1268.7C3081.3 1267.85 3081.65 1266.98 3082.02 1266.14C3085.93 1257.33 3089.46 1248.39 3092.52 1239.3C3093.84 1235.46 3095.09 1231.62 3096.18 1227.78C3096.56 1226.62 3096.9 1225.5 3097.21 1224.37C3113.16 1168.61 3115 1110.67 3115 1053.04C3115 1046.32 3115 1039.57 3115 1032.89C3115 1009.62 3114.66 986.032 3114.22 962.761C3114.22 956.701 3113.94 950.672 3113.78 944.581C3113.41 929.108 3112.84 913.656 3112.09 898.225C3111.91 893.914 3111.72 889.635 3111.44 885.386C3111.44 882.919 3111.19 880.451 3111.03 877.983C3110.4 868.831 3109.84 859.959 3109.15 851.057Z" fill="#B27409"/>
<path opacity="0.1" d="M2821.74 463.497H2979.39C2953.55 427.614 2925.51 393.355 2895.46 360.914C2872.01 335.362 2847.41 310.435 2821.65 286.445L2821.74 463.497Z" fill="#B27409"/>
<path opacity="0.1" d="M2821.74 474.243V840.311H3108.25C3108.25 839.249 3108.06 838.156 3107.97 837.187C3107.72 834.314 3107.47 831.44 3107.19 828.535C3106.9 825.63 3106.53 821.787 3106.15 818.383C3105.78 814.978 3105.4 811.042 3104.97 807.418C3104.53 803.795 3104.15 800.078 3103.68 796.423C3103.21 792.768 3102.78 789.113 3102.28 785.49C3101.78 781.866 3101.31 778.18 3100.75 774.557C3100.31 771.433 3099.9 768.559 3099.43 765.529C3098.78 761.281 3098.09 757.001 3097.37 752.784C3097.29 752.154 3097.17 751.529 3097.03 750.91C3091.85 719.872 3084.82 689.173 3075.96 658.979C3066.59 626.99 3054.7 595.791 3040.41 565.674C3025 533.817 3007.12 503.215 2986.93 474.149L2821.74 474.243Z" fill="#B27409"/>
<path opacity="0.1" d="M2139.2 851.057V1199.19H2753.1V851.057H2139.2ZM2139.2 1209.94V1445.69C2210.66 1422.85 2292.38 1432.07 2366.46 1450.81C2423.83 1465.37 2479.72 1485.17 2536.99 1499.42C2562.57 1505.94 2588.54 1510.85 2614.74 1514.1L2621.18 1514.78C2624.3 1515.1 2627.43 1515.41 2630.55 1515.66L2639.93 1516.31H2640.9H2645.09C2645.57 1516.35 2646.05 1516.35 2646.53 1516.31L2651.59 1516.5H2651.75C2654.16 1516.5 2656.59 1516.5 2659.03 1516.69H2662.16C2664.57 1516.69 2667 1516.69 2669.44 1516.69H2674.79H2679.1C2680.95 1516.69 2682.76 1516.69 2684.57 1516.5C2687.51 1516.5 2690.45 1516.25 2693.42 1516.03L2698.89 1515.69L2705.64 1515.16C2710.42 1514.78 2715.02 1514.28 2719.86 1513.72C2721.74 1513.5 2723.65 1513.28 2725.52 1513L2728.31 1512.66C2733.03 1512.03 2737.68 1511.29 2742.4 1510.5C2745.87 1509.97 2749.34 1509.32 2752.84 1508.69V1209.94H2139.2ZM2595.79 463.372V474.118H2139.2V840.311H2753.1V474.243H2722.3V463.497H2753.1V226.907C2633.68 130.79 2494.1 55.5084 2338.64 20.7414C2273.17 6.25971 2206.25 -0.7096 2139.2 -0.0312807V463.497L2595.79 463.372ZM1192.19 461.31L1194.34 463.372H2070.52V3.18614C1914.53 16.1496 1762.41 68.5031 1639.78 155.249C1580.85 196.888 1527.93 246.243 1461.81 278.198C1427.12 295.401 1389.21 305.188 1350.52 306.936L1192.19 461.31ZM1186.15 272.513V376.689L1270.81 294.129C1239.33 283.259 1214.51 275.824 1186.03 272.638L1186.15 272.513ZM1183.34 1583.1H1186.15V1811.44C1218.1 1809.07 1249.93 1805.8 1281.62 1801.63C1423.37 1783.38 1562.26 1747.43 1695.05 1694.62C1709.3 1688.91 1723.45 1683.02 1737.5 1676.94C1746.86 1672.88 1756.16 1668.71 1765.41 1664.44C1779.29 1658.07 1793.07 1651.52 1806.74 1644.79C1867.24 1615.08 1925.6 1581.2 1981.39 1543.4C1984.86 1541.05 1988.37 1538.68 1991.8 1536.28C1998.72 1531.49 2005.59 1526.65 2012.41 1521.78C2015.81 1519.31 2019.22 1516.85 2022.6 1514.35L2029.54 1509.04C2036.54 1503.82 2043.51 1498.57 2050.57 1493.42C2057.11 1488.73 2063.7 1484.05 2070.39 1479.67V1209.78H1366.56C1367.06 1208.19 1367.53 1206.66 1368.06 1204.97C1367.5 1206.6 1367 1208.1 1366.53 1209.78H1186.03V1583.04L1183.34 1583.1ZM1186.15 474.18V840.311H2070.52V474.243L1186.15 474.18ZM1186.15 850.994V1199.19H2070.52V851.057L1186.15 850.994ZM1009.34 283.227L1117.38 388.59V272.044C1081.18 274.294 1045.17 278.021 1009.34 283.227ZM257.056 851.057V1199.19H1117.38V851.057H257.056ZM465.002 1710.86C595.403 1760.46 731.744 1792.79 870.547 1807.01H871.141C897.379 1809.78 923.69 1811.92 950.074 1813.44H951.043C1006.34 1816.57 1061.86 1817.28 1117.29 1815.22V1209.94H257.056L260.182 1610.78M18.7563 1199.19H188.439V851.057H121.323C114.351 863.301 107.599 875.609 101.191 888.104C97.752 894.747 94.4071 901.463 91.156 908.252C46.9847 999.871 18.9127 1100.58 18.7563 1199.19ZM18.7563 1209.94C20.1318 1280.66 36.0748 1350.07 71.0554 1414.2C100.128 1467.46 140.517 1514.16 188.314 1554.77V1209.94H18.7563ZM127.481 840.311H188.314V749.723C166.388 778.754 146.12 808.998 127.606 840.311H127.481ZM508.642 463.497H1097.09L1099.22 461.435L1096.09 458.312L930.63 297.034C881.519 307.277 833.02 320.261 785.362 335.924C780.86 337.393 776.359 339.048 771.888 340.454C679.867 371.643 591.582 412.908 508.642 463.497ZM257.056 667.694V840.311H1011.56H1011.72H1117.47V484.207L1105.41 474.399H491.324C405.231 528.482 326.49 593.451 257.056 667.694Z" fill="#B27409"/>
<path opacity="0.1" d="M2821.74 658.886V840.311H3108.25C3108.25 839.249 3108.06 838.156 3107.97 837.187C3107.72 834.314 3107.47 831.44 3107.19 828.535C3106.9 825.63 3106.53 821.787 3106.15 818.383C3105.78 814.978 3105.4 811.042 3104.97 807.418C3104.53 803.795 3104.15 800.078 3103.68 796.423C3103.21 792.768 3102.78 789.113 3102.28 785.49C3101.78 781.866 3101.31 778.18 3100.75 774.557C3100.31 771.433 3099.9 768.559 3099.43 765.529C3098.78 761.281 3098.09 757.002 3097.37 752.784C3097.29 752.154 3097.17 751.528 3097.03 750.91C3091.85 719.872 3084.82 689.173 3075.96 658.979L2821.74 658.886Z" fill="#B27409"/>
<path opacity="0.1" d="M3109.15 851.057H2821.74V1199.19H3088.15C3088.84 1202.79 3089.49 1206.38 3090.27 1209.94H2821.74V1490.64L2823.09 1490.2C2830.67 1487.53 2838.21 1484.7 2845.69 1481.7L2850.5 1479.74C2858.17 1476.59 2865.71 1473.23 2873.11 1469.65C2875.76 1468.43 2878.39 1467.15 2880.98 1465.84C2922.31 1445.5 2960.41 1419.19 2994.05 1387.74C2995.02 1386.9 2995.93 1386.02 2996.8 1385.18C3001.4 1380.75 3005.9 1376.28 3010.28 1371.69L3015.09 1366.56C3020.25 1360.97 3025.22 1355.19 3030.07 1349.35L3032.19 1346.79C3051.67 1322.93 3068.04 1296.68 3080.89 1268.7C3081.3 1267.85 3081.65 1266.98 3082.02 1266.14C3085.93 1257.33 3089.46 1248.39 3092.52 1239.3C3093.84 1235.46 3095.09 1231.62 3096.18 1227.78C3096.56 1226.62 3096.9 1225.5 3097.21 1224.37C3113.16 1168.61 3115 1110.67 3115 1053.04C3115 1046.32 3115 1039.57 3115 1032.89C3115 1009.62 3114.66 986.032 3114.22 962.761C3114.22 956.701 3113.94 950.672 3113.78 944.581C3113.41 929.108 3112.84 913.656 3112.09 898.225C3111.91 893.914 3111.72 889.635 3111.44 885.386C3111.44 882.919 3111.19 880.451 3111.03 877.983C3110.4 868.831 3109.84 859.959 3109.15 851.057Z" fill="#B27409"/>
<path opacity="0.1" d="M2536.99 526.659V840.311H2753.1V526.659H2722.3V420.452H2595.79V526.659H2536.99Z" fill="#B27409"/>
<path opacity="0.1" d="M2753.1 851.057H2536.99V1199.16H2753.1V851.057Z" fill="#B27409"/>
<path opacity="0.1" d="M2753.1 1209.94H2537.02V1499.42C2562.59 1505.93 2588.55 1510.84 2614.74 1514.1L2621.18 1514.78C2624.3 1515.13 2627.43 1515.41 2630.55 1515.66L2639.93 1516.31C2640.24 1516.31 2640.59 1516.31 2640.9 1516.31C2642.28 1516.31 2643.68 1516.31 2645.09 1516.5H2646.53C2648.22 1516.5 2649.9 1516.5 2651.62 1516.69C2654.03 1516.69 2656.47 1516.69 2658.91 1516.88H2662.03C2664.47 1516.88 2666.88 1516.88 2669.32 1516.88H2674.66H2678.98L2684.48 1516.69C2687.39 1516.69 2690.35 1516.44 2693.29 1516.22L2698.73 1515.88L2705.52 1515.35C2710.27 1514.94 2714.89 1514.47 2719.71 1513.91L2725.37 1513.19L2728.15 1512.85C2732.87 1512.19 2737.53 1511.5 2742.25 1510.69C2745.75 1510.16 2749.19 1509.51 2752.69 1508.88L2753.1 1209.94Z" fill="#B27409"/>
<path opacity="0.1" d="M1364.25 489.611H1186.03V840.28H1364.25V489.611Z" fill="#B27409"/>
<path opacity="0.1" d="M1186.03 851.057V1199.19H2070.52V1049.04H1599.39V1137.63H1364.22V851.057H1186.03Z" fill="#B27409"/>
<path opacity="0.1" d="M1183.22 1583.22H1186.03V1811.6C1217.98 1809.18 1249.8 1805.91 1281.5 1801.79C1423.29 1783.47 1562.22 1747.46 1695.05 1694.62C1733.06 1679.37 1770.29 1662.78 1806.74 1644.82C1867.24 1615.1 1925.6 1581.21 1981.39 1543.4C1995.34 1533.94 2009.06 1524.27 2022.57 1514.38C2031.94 1507.47 2041.32 1500.45 2050.7 1493.61C2057.23 1488.92 2063.83 1484.23 2070.52 1479.83V1209.94H1366.59C1367.09 1208.35 1367.56 1206.82 1368.06 1205.16C1367.53 1206.75 1367 1208.28 1366.53 1209.94H1186.03V1583.07L1183.22 1583.22Z" fill="#B27409"/>
<path opacity="0.1" d="M721.277 463.497H837.379V431.354H785.362V335.925C780.86 337.393 776.359 339.048 771.888 340.454V431.354H721.277V463.497Z" fill="#B27409"/>
<path opacity="0.1" d="M441.494 840.311H1011.56H1011.38H1011.66H1117.38V489.611H1087.43V748.88H950.512V595.443H837.379V474.243H721.277V595.443H608.176V748.849H441.494V840.311Z" fill="#B27409"/>
<path opacity="0.1" d="M441.494 851.057V1199.19H1117.38V851.057H441.494ZM465.096 1710.86C595.497 1760.46 731.838 1792.79 870.641 1807.01H871.235C897.473 1809.78 923.784 1811.92 950.168 1813.44H951.137C1006.44 1816.57 1061.96 1817.28 1117.38 1815.22V1209.94H441.494V1333.36H257.056L258.025 1608.9" fill="#B27409"/>
<path opacity="0.1" d="M176.529 1209.94H18.8815C20.2569 1280.66 36.2311 1350.07 71.1806 1414.2C100.253 1467.49 140.673 1514.16 188.439 1554.77V1333.36H176.529V1209.94Z" fill="#B27409"/>
<path opacity="0.1" d="M18.7563 1199.19H176.529V908.252H91.156C46.9847 999.871 18.9127 1100.58 18.7563 1199.19Z" fill="#B27409"/>
<path opacity="0.1" d="M1281.5 587.103H1186.03V697.057H1281.5V587.103Z" fill="#B27409"/>
<path opacity="0.1" d="M1281.5 815.009H1186.03V840.311H1281.5V815.009Z" fill="#6C63FF"/>
<path opacity="0.1" d="M1281.5 851.057H1186.03V924.933H1281.5V851.057Z" fill="#6C63FF"/>
<path opacity="0.1" d="M1281.5 1042.88H1186.03V1152.84H1281.5V1042.88Z" fill="#6C63FF"/>
<path opacity="0.1" d="M1281.5 1270.79H1186.03V1380.75H1281.5V1270.79Z" fill="#6C63FF"/>
<path opacity="0.1" d="M1186.03 1583.07V1608.59H1281.5V1498.63H1186.03V1583.07Z" fill="#B27409"/>
<path opacity="0.1" d="M1186.03 1726.54V1811.48C1217.98 1809.06 1249.8 1805.79 1281.5 1801.67V1726.7L1186.03 1726.54Z" fill="#B27409"/>
<path opacity="0.1" d="M2070.52 1191.1H1661.38V1199.16H2070.52V1191.1Z" fill="#6C63FF"/>
<path opacity="0.1" d="M2070.52 1209.94H1661.38V1240.9H2070.52V1209.94Z" fill="#B27409"/>
<path opacity="0.1" d="M2070.52 1342.35H1661.38V1392.15H2070.52V1342.35Z" fill="#6C63FF"/>
<path opacity="0.1" d="M1661.38 1493.61V1543.4H1981.43C1995.33 1533.96 2009.05 1524.28 2022.6 1514.35C2031.97 1507.47 2041.35 1500.45 2050.73 1493.64L1661.38 1493.61Z" fill="#6C63FF"/>
<path opacity="0.1" d="M1661.38 1644.82V1694.62H1695.05C1733.04 1679.41 1770.26 1662.82 1806.71 1644.82H1661.38Z" fill="#B27409"/>
<path opacity="0.1" d="M870.609 956.388H951.137V884.824H870.609V956.388Z" fill="#6C63FF"/>
<path opacity="0.1" d="M2614.52 622.9H2695.04V551.336H2614.52V622.9Z" fill="#B27409"/>
<path opacity="0.1" d="M2614.52 789.145H2695.04V717.58H2614.52V789.145Z" fill="#B27409"/>
<path opacity="0.1" d="M2614.52 955.358H2695.04V883.793H2614.52V955.358Z" fill="#B27409"/>
<path opacity="0.1" d="M2614.52 1121.6H2695.04V1050.04H2614.52V1121.6Z" fill="#B27409"/>
<path opacity="0.1" d="M2614.52 1287.88H2695.04V1216.31H2614.52V1287.88Z" fill="#B27409"/>
<path opacity="0.1" d="M2614.52 1454.09H2695.04V1382.53H2614.52V1454.09Z" fill="#B27409"/>
<path opacity="0.1" d="M563.13 956.388H643.657V884.824H563.13V956.388Z" fill="#B27409"/>
<path opacity="0.1" d="M870.609 1132.88H951.137V1061.31H870.609V1132.88Z" fill="#6C63FF"/>
<path opacity="0.1" d="M563.13 1132.88H643.657V1061.31H563.13V1132.88Z" fill="#B27409"/>
<path opacity="0.1" d="M870.609 1309.4H951.137V1237.84H870.609V1309.4Z" fill="#6C63FF"/>
<path opacity="0.1" d="M563.13 1309.4H643.657V1237.84H563.13V1309.4Z" fill="#6C63FF"/>
<path opacity="0.1" d="M870.609 1485.92H951.137V1414.36H870.609V1485.92Z" fill="#6C63FF"/>
<path opacity="0.1" d="M563.13 1485.92H643.657V1414.36H563.13V1485.92Z" fill="#6C63FF"/>
<path opacity="0.1" d="M870.609 1662.47H951.137V1590.91H870.609V1662.47Z" fill="#6C63FF"/>
<path opacity="0.1" d="M563.13 1662.47H643.657V1590.91H563.13V1662.47Z" fill="#6C63FF"/>
<path opacity="0.1" d="M951.106 1813.57V1767.43H870.609V1807.01L951.106 1813.57Z" fill="#6C63FF"/>
<path opacity="0.1" d="M2821.74 750.785V791.737H3097.37V750.785H2821.74ZM3069.92 753.378H3092.4V789.176H3069.8L3069.92 753.378ZM3042.48 753.378H3065.08V789.176H3042.38L3042.48 753.378ZM3015.09 753.378H3037.69V789.176H3015.09V753.378ZM2987.64 753.378H3010.25V789.176H2987.64V753.378ZM2960.23 753.378H2982.99V789.176H2960.39L2960.23 753.378ZM2932.78 753.378H2955.38V789.176H2932.78V753.378ZM2905.34 753.378H2927.94V789.176H2905.34V753.378ZM2877.92 753.378H2900.52V789.176H2877.92V753.378ZM2850.5 753.378H2873.11V789.176H2850.5V753.378ZM2823.09 753.378H2845.69V789.176H2823.09V753.378Z" fill="#B27409"/>
<path opacity="0.1" d="M2821.74 869.987V910.938H3097.37V869.987H2821.74ZM3069.92 872.579H3092.4V908.346H3069.8L3069.92 872.579ZM3042.48 872.579H3065.08V908.346H3042.38L3042.48 872.579ZM3015.09 872.579H3037.69V908.346H3015.09V872.579ZM2987.64 872.579H3010.25V908.346H2987.64V872.579ZM2960.23 872.579H2982.99V908.346H2960.39L2960.23 872.579ZM2932.78 872.579H2955.38V908.346H2932.78V872.579ZM2905.34 872.579H2927.94V908.346H2905.34V872.579ZM2877.92 872.579H2900.52V908.346H2877.92V872.579ZM2850.5 872.579H2873.11V908.346H2850.5V872.579ZM2823.09 872.579H2845.69V908.346H2823.09V872.579Z" fill="#B27409"/>
<path opacity="0.1" d="M2821.74 989.156V1030.08H3097.37V989.156H2821.74ZM3069.92 991.718H3092.4V1027.52H3069.8L3069.92 991.718ZM3042.48 991.718H3065.08V1027.52H3042.38L3042.48 991.718ZM3015.09 991.718H3037.69V1027.52H3015.09V991.718ZM2987.64 991.718H3010.25V1027.52H2987.64V991.718ZM2960.23 991.718H2982.99V1027.52H2960.39L2960.23 991.718ZM2932.78 991.718H2955.38V1027.52H2932.78V991.718ZM2905.34 991.718H2927.94V1027.52H2905.34V991.718ZM2877.92 991.718H2900.52V1027.52H2877.92V991.718ZM2850.5 991.718H2873.11V1027.52H2850.5V991.718ZM2823.09 991.718H2845.69V1027.52H2823.09V991.718Z" fill="#B27409"/>
<path opacity="0.1" d="M2821.74 1108.33V1149.25H3097.37V1108.33H2821.74ZM3069.92 1110.89H3092.4V1146.69H3069.8L3069.92 1110.89ZM3042.48 1110.89H3065.08V1146.69H3042.38L3042.48 1110.89ZM3015.09 1110.89H3037.69V1146.69H3015.09V1110.89ZM2987.64 1110.89H3010.25V1146.69H2987.64V1110.89ZM2960.23 1110.89H2982.99V1146.69H2960.39L2960.23 1110.89ZM2932.78 1110.89H2955.38V1146.69H2932.78V1110.89ZM2905.34 1110.89H2927.94V1146.69H2905.34V1110.89ZM2877.92 1110.89H2900.52V1146.69H2877.92V1110.89ZM2850.5 1110.89H2873.11V1146.69H2850.5V1110.89ZM2823.09 1110.89H2845.69V1146.69H2823.09V1110.89Z" fill="#B27409"/>
<path opacity="0.1" d="M2821.74 1227.5V1268.51H3080.89C3081.27 1267.67 3081.65 1266.79 3081.99 1265.95H3069.92V1230.09H3092.4V1238.99C3093.71 1235.18 3094.96 1231.37 3096.06 1227.5H2821.74ZM3042.48 1230.09H3065.08V1265.86H3042.38L3042.48 1230.09ZM3015.09 1230.09H3037.69V1265.86H3015.09V1230.09ZM2987.64 1230.09H3010.25V1265.86H2987.64V1230.09ZM2960.23 1230.09H2982.99V1265.86H2960.39L2960.23 1230.09ZM2932.78 1230.09H2955.38V1265.86H2932.78V1230.09ZM2905.34 1230.09H2927.94V1265.86H2905.34V1230.09ZM2877.92 1230.09H2900.52V1265.86H2877.92V1230.09ZM2850.5 1230.09H2873.11V1265.86H2850.5V1230.09ZM2823.09 1230.09H2845.69V1265.86H2823.09V1230.09Z" fill="#B27409"/>
<path opacity="0.1" d="M2821.74 1346.6V1387.52H2994.02C2995.02 1386.68 2995.9 1385.77 2996.8 1384.96H2987.64V1349.26H3010.25V1371.59L3015.09 1366.44V1349.26H3030.07C3030.78 1348.38 3031.47 1347.51 3032.19 1346.7L2821.74 1346.6ZM2960.23 1349.16H2982.99V1384.96H2960.39L2960.23 1349.16ZM2932.78 1349.16H2955.38V1384.96H2932.78V1349.16ZM2905.34 1349.16H2927.94V1384.96H2905.34V1349.16ZM2877.92 1349.16H2900.52V1384.96H2877.92V1349.16ZM2850.5 1349.16H2873.11V1384.96H2850.5V1349.16ZM2823.09 1349.16H2845.69V1384.96H2823.09V1349.16Z" fill="#B27409"/>
<path opacity="0.1" d="M2821.74 1465.87V1490.64C2822.2 1490.51 2822.65 1490.36 2823.09 1490.17V1468.3H2845.69V1481.61L2850.5 1479.64V1468.43H2873.11V1469.68C2875.76 1468.46 2878.39 1467.18 2880.98 1465.9L2821.74 1465.87Z" fill="#B27409"/>
<path opacity="0.1" d="M1366.53 1209.94C1367.03 1208.35 1367.5 1206.82 1368.03 1205.13C1367.5 1206.75 1367 1208.35 1366.53 1209.94ZM2595.79 463.497V474.243H2722.3V463.497H2595.79ZM1366.53 1209.94C1367.03 1208.35 1367.5 1206.82 1368.03 1205.13C1367.5 1206.75 1367 1208.35 1366.53 1209.94ZM1366.53 1209.94C1367.03 1208.35 1367.5 1206.82 1368.03 1205.13C1367.5 1206.75 1367 1208.35 1366.53 1209.94Z" fill="#B27409"/>
<path opacity="0.1" d="M2822.68 2575.25C2882.38 2575.25 2930.78 2569.9 2930.78 2563.29C2930.78 2556.68 2882.38 2551.33 2822.68 2551.33C2762.98 2551.33 2714.58 2556.68 2714.58 2563.29C2714.58 2569.9 2762.98 2575.25 2822.68 2575.25Z" fill="#6C63FF"/>
<path d="M2089.21 1671.97L2035.19 1669L2031.54 1513.97L2030.69 1477.05L2087.68 1466.55L2088.06 1514.16L2089.21 1671.97Z" fill="#D48A9B"/>
<path d="M2047.17 1644.98L1769.57 1817.44L1763.57 1869.92L1793.58 1871.42V1833.93L1975.14 1731.98L1756.07 2003.36V2045.35H1792.08L1789.08 1998.87L2042.67 1710.98L2074.18 1713.98L2341.3 2016.86L2347.3 2067.87L2383.31 2069.37L2377.31 2016.86L2165.74 1752.97L2306.79 1850.43L2309.79 1892.41L2338.3 1893.91L2335.3 1842.93L2066.67 1635.98L2047.17 1644.98Z" fill="#E1DEE5"/>
<path d="M1698.42 1350.01C1724.64 1317.42 1746.61 1281.63 1763.82 1243.52C1782.92 1201.29 1803.87 1152.53 1805.46 1138.1C1808.59 1111.11 1884.99 1057.13 1969.02 1054.13C2023.82 1052.16 2109.19 1009.43 2162.02 979.91C2211.71 951.676 2266.98 934.619 2323.95 929.931C2385.75 925.276 2443.86 937.396 2414.6 1009.05L2021.66 1484.55C2021.66 1484.55 1686.54 1543.55 1665.88 1448.69C1664.72 1443.9 1663.12 1439.24 1661.1 1434.75C1657.19 1425.79 1656.16 1402.39 1698.42 1350.01Z" fill="#B27409"/>
<path opacity="0.2" d="M1727.93 1359.44C1754.32 1326.5 1776.51 1290.4 1793.99 1251.99C1811.81 1212.5 1830.72 1168.24 1832.22 1154.84C1835.09 1129.07 1908.31 1077.49 1988.71 1074.62C2041.13 1072.75 2122.82 1031.95 2173.33 1003.74C2220.92 976.813 2273.81 960.567 2328.33 956.139C2387.44 951.703 2443.05 963.292 2415.17 1031.73L2103.47 1487.8C2103.47 1487.8 1718.96 1542.3 1698.61 1452.12C1697.4 1447.33 1695.8 1442.65 1693.83 1438.13C1690.26 1429.19 1689.76 1407.3 1727.93 1359.44Z" fill="#DDA2A6"/>
<path opacity="0.1" d="M2088.06 1514.16C2069.99 1514.16 2050.95 1514.16 2031.54 1513.97L2030.69 1477.05L2087.68 1466.59L2088.06 1514.16Z" fill="black"/>
<g opacity="0.1">
<path d="M2306.79 1841.43L2165.74 1743.97L2181.9 1764.12L2306.79 1850.43L2309.79 1892.41L2338.3 1893.91L2337.77 1884.88L2309.79 1883.41L2306.79 1841.43Z" fill="black"/>
<path d="M1793.58 1824.94V1833.93L1961.86 1739.44L1975.14 1722.98L1793.58 1824.94Z" fill="black"/>
<path d="M1756.07 2036.35V2045.35H1792.08L1791.49 2036.35H1756.07Z" fill="black"/>
<path d="M1793.58 1862.42L1764.57 1860.99L1763.57 1869.92L1793.58 1871.42V1862.42Z" fill="black"/>
<path d="M2347.3 2058.87L2341.3 2007.86L2074.18 1704.99L2042.67 1701.99L1789.08 1989.87L1789.61 1998.27L2042.67 1710.98L2074.18 1713.98L2341.3 2016.86L2347.3 2067.87L2383.31 2069.37L2382.28 2060.31L2347.3 2058.87Z" fill="black"/>
</g>
<path opacity="0.1" d="M2056.17 1218.72C2056.17 1218.72 2126.44 1270.07 2095.68 1270.67C2064.92 1271.26 2056.17 1218.72 2056.17 1218.72Z" fill="black"/>
<path d="M1761.32 1499.67C1761.32 1499.67 1877.61 1490.67 1921.12 1406.7C1921.12 1406.7 2009.65 1231.24 2081.71 1211.75C2153.77 1192.26 2287.28 1148.78 2342.8 1081.31C2398.32 1013.83 2421.61 962.105 2421.61 962.105C2421.61 962.105 2435.92 1016.71 2390.82 1081.09C2345.71 1145.47 2329.29 1244.61 2297.78 1349.73C2266.27 1454.84 2254.27 1496.54 2197.25 1502.79C2154.27 1507.32 1927 1505.04 1818.34 1502.79C1782.8 1501.82 1761.32 1499.67 1761.32 1499.67Z" fill="#996100"/>
<path opacity="0.2" d="M1761.32 1499.67C1761.32 1499.67 1877.61 1490.67 1921.12 1406.7C1921.12 1406.7 2009.65 1231.24 2081.71 1211.75C2153.77 1192.26 2287.28 1148.78 2342.8 1081.31C2398.32 1013.83 2421.61 962.105 2421.61 962.105C2421.61 962.105 2435.92 1016.71 2390.82 1081.09C2345.71 1145.47 2329.29 1244.61 2297.78 1349.73C2266.27 1454.84 2254.27 1496.54 2197.25 1502.79C2154.27 1507.32 1927 1505.04 1818.34 1502.79C1782.8 1501.82 1761.32 1499.67 1761.32 1499.67Z" fill="#B27409"/>
<path d="M1790.58 1499.67C1790.58 1499.67 1901.74 1490.95 1943.32 1409.64C1943.32 1409.64 2027.97 1239.77 2096.81 1220.9C2165.64 1202.04 2293.31 1159.9 2346.39 1094.58C2399.47 1029.26 2421.7 979.16 2421.7 979.16C2421.7 979.16 2435.3 1032.26 2392.28 1094.58C2349.27 1156.9 2333.48 1252.83 2303.35 1354.47C2273.21 1456.12 2261.77 1496.76 2207.25 1502.57C2166.18 1506.94 1948.95 1504.73 1845.07 1502.57C1811.12 1501.91 1790.58 1499.67 1790.58 1499.67Z" fill="#B27409"/>
<path opacity="0.1" d="M1700.55 1455.93C1700.55 1455.93 1761.32 1479.17 1795.83 1466.43C1830.34 1453.68 1915.87 1416.2 1915.87 1416.2C1915.87 1416.2 1771.82 1425.32 1700.55 1455.93Z" fill="black"/>
<path d="M2106.87 2547.2C2106.87 2547.2 1932.19 2537.83 1889.61 2512.84C1847.04 2487.85 1786.77 2487.85 1786.45 2487.85L1090.9 2336.35L801.742 2267.63L750.162 2260.85L920.533 2066.06L925.722 2063.81L1176.87 1955.26C1176.87 1955.26 1289.41 1961.51 1311.63 2034.79C1313.16 2039.95 1314.2 2045.24 1314.76 2050.6C1317.09 2073.45 1310.76 2096.35 1297 2114.76C1288.13 2126.88 1277.22 2144.09 1273.78 2159.24C1271.84 2167.8 1272.28 2175.7 1276.9 2181.73C1286.28 2191.03 1296.64 2199.3 1307.79 2206.38C1369.03 2246.98 1523.83 2313.89 1794.27 2211.4C1794.27 2211.4 1909.93 2097.39 1997.46 2145.81C2084.99 2194.22 2106.87 2547.2 2106.87 2547.2Z" fill="#E1DEE5"/>
<path opacity="0.1" d="M1273.9 2159.24C1271.97 2167.8 1272.4 2175.7 1277.03 2181.73C1286.41 2191.03 1296.76 2199.3 1307.91 2206.38L781.423 2245.77L925.722 2063.81L1176.87 1955.26C1176.87 1955.26 1289.41 1961.51 1311.63 2034.79C1313.16 2039.95 1314.2 2045.24 1314.76 2050.6C1317.09 2073.45 1310.76 2096.35 1297 2114.76C1288.25 2126.88 1277.34 2144.09 1273.9 2159.24Z" fill="black"/>
<path d="M759.54 1442.97L1190.94 1452.34V1968.35L781.423 2245.77L682.952 2155.18L703.271 1855.3L682.952 1575.73L759.54 1442.97Z" fill="#A06500"/>
<path d="M514.144 1358.63L1017.82 1203.54C1026.87 1200.77 1036.35 1199.71 1045.79 1200.41L2249.02 1288.16C2351.93 1295.22 2450.98 1330.13 2535.55 1389.15C2613.42 1444.03 2690.54 1528.28 2726.24 1655.85C2752.07 1749.99 2750.28 1849.55 2721.08 1942.7L2614.8 2286.31C2614.8 2286.31 2694.51 1539.74 1898.93 1502.26L514.144 1358.63Z" fill="#D9D6DF"/>
<path d="M781.423 1432.04V2260.85C781.423 2260.85 643.407 2241.45 618.867 2214.53C598.735 2192.44 482.102 2130.19 431.491 2066.06C420.393 2052 412.453 2037.94 409.421 2023.98C392.478 1946.89 323.454 1764.71 323.454 1764.71L342.21 1586.66L420.362 1471.08L571.976 1402.36H689.204L781.423 1432.04Z" fill="#B27409"/>
<path d="M562.598 1442.97C562.598 1442.97 338.272 1583.54 387.351 1809.73C391.352 1828.16 394.822 1846.68 397.104 1865.42C406.076 1938.58 459.907 2148.8 781.423 2245.76V2267.63L645.033 2229.62L552.438 2178.61L481.758 2115.26L395.354 2009.92L355.246 1924.02L340.554 1810.88L332.082 1681.72L352.745 1570.92L401.481 1498.82L460.876 1452.68L562.598 1442.97Z" fill="#D9D6DF"/>
<path opacity="0.1" d="M781.423 1432.04V1563.89C683.577 1574.51 380.63 1635.73 434.429 1985.59L431.46 2065.93C420.362 2051.88 412.422 2037.82 409.39 2023.86C392.446 1946.76 323.423 1764.59 323.423 1764.59L342.179 1586.54L420.331 1470.96L571.945 1402.24H689.173L781.423 1432.04Z" fill="black"/>
<path opacity="0.1" d="M1297.13 2114.76C1288.25 2126.88 1277.34 2144.09 1273.9 2159.24C1260.27 2143.62 1257.34 2125.66 1277.03 2111.45C1301.69 2093.52 1309.92 2062.4 1311.76 2034.79C1313.28 2039.95 1314.33 2045.24 1314.89 2050.6C1317.22 2073.45 1310.88 2096.35 1297.13 2114.76Z" fill="white"/>
<path d="M2560.15 2198.91L2500.76 2400.39L2366.34 2531.59L2197.53 2565.95L1934.94 2519.09V1586.66C1934.94 1586.66 1980.27 1556.99 1984.96 1556.99C1989.65 1556.99 2116.25 1577.29 2116.25 1577.29L2402.91 1782.74L2414.79 1791.26L2542.96 1981.81L2560.15 2198.91Z" fill="#B27409"/>
<path d="M1934.94 1547.61V2519.09L1960.26 2523.62V1547.61H1934.94Z" fill="#D48600"/>
<path opacity="0.1" d="M2408.54 1847.49C2220.98 1693.49 2012.47 1670.85 1934.94 1668.03V1586.82C1934.94 1586.82 1980.27 1557.14 1984.96 1557.14C1989.65 1557.14 2116.25 1577.45 2116.25 1577.45L2402.91 1782.89L2408.54 1847.49Z" fill="black"/>
<path d="M1895.33 1485.14L720.465 1357.07L588.42 1350.07C547.27 1347.69 506.119 1354.71 468.09 1370.6C430.061 1386.48 396.152 1410.82 368.938 1441.75C300.165 1520.78 248.178 1660.19 324.111 1899.56C324.111 1899.56 403.294 2209.84 786.768 2276.5L1901.02 2528.81C1925.72 2534.4 1950.1 2541.3 1974.17 2549.14C2075.33 2582.35 2418.07 2668.37 2579.54 2375.93C2634.87 2275.66 2651.44 2158.74 2630.12 2046.19C2591.26 1840.34 2444.55 1491.01 1895.33 1485.14ZM2470.94 2362.56C2320.26 2607.84 2009.78 2534.83 1916.44 2506.03C1893.58 2498.97 1870.45 2492.82 1847.04 2487.82L817.748 2267.79C463.127 2209.59 389.883 1938.67 389.883 1938.67C330.019 1760.62 356.184 1645.73 404.576 1573.01C455.249 1496.89 543.467 1454.31 634.873 1458.93L756.539 1465.18L1807.4 1605.47C1828.66 1608.31 1850.07 1610.18 1871.51 1610.9C2338.83 1626.74 2484.22 1883.51 2521.17 2060.47C2542.87 2163.89 2526.36 2272.41 2470.94 2362.56Z" fill="#E1DEE5"/>
<path d="M13.2232 2007.14C51.7051 2032.88 110.131 2020.64 110.131 2020.64C110.131 2020.64 198.255 1978.94 224.295 1978.94C250.335 1978.94 313.669 1953.17 313.669 1953.17L311.512 1935.8L305.073 1883.48C345.18 1914.71 389.758 1903.94 411.703 1901.66C435.273 1899.22 561.223 1824.41 573.352 1819.47C576.634 1818.16 580.479 1813.88 584.387 1808.35C592.5 1795.95 599.628 1782.94 605.707 1769.43C613.584 1762.49 619.336 1756.93 618.93 1755.72C618.523 1754.5 622.056 1745.38 626.651 1735.1C644.532 1731.98 659.944 1725.35 664.852 1721.36C668.885 1718.13 672.114 1714.02 674.284 1709.33C676.453 1704.65 677.505 1699.53 677.356 1694.37C677.356 1694.37 800.242 1570.51 784.08 1519C767.918 1467.49 823.812 1466.24 823.812 1466.24C823.812 1466.24 909.435 1429.44 921.345 1407.39C928.692 1393.8 992.932 1363.97 1041.26 1343.04L1047.2 1340.48C1065.96 1381.56 1161.24 1349.85 1180 1332.58C1199.85 1314.18 1258.15 1305.59 1258.15 1305.59C1258.15 1305.59 1260.65 1065.06 1279.25 1034.51C1288.1 1019.99 1290.22 972.507 1290 926.651C1290 925.026 1290 923.527 1290 921.778C1316.07 916.686 1378.09 904.91 1406.89 902.067C1425.14 900.255 1444.18 888.885 1458.78 877.827L1460.5 879.982C1465.51 882.04 1470.94 882.927 1476.35 882.575C1481.14 883.112 1485.98 882.209 1490.26 879.982C1501.45 873.735 1542.4 861.584 1557.28 855.461C1572.16 849.339 1554.81 805.169 1543.65 796.579C1532.49 787.989 1524.9 776.962 1531.15 772.058C1537.4 767.154 1516.27 754.878 1503.86 752.41C1491.45 749.942 1454.21 732.793 1454.21 732.793C1454.21 732.793 1440.55 704.679 1418.23 704.679C1395.91 704.679 1366.09 682.595 1366.09 682.595C1364.87 672.786 1341.27 671.568 1341.27 671.568C1341.27 671.568 1251.93 602.846 1237.02 611.468C1222.1 620.089 1181.18 597.973 1181.18 597.973C1181.18 597.973 1130.95 603.596 1119.13 594.35C1119.02 591.313 1117.93 588.396 1116.01 586.041C1113.35 577.732 1100.38 566.361 1087.87 556.896C1088.83 551.03 1089.31 545.097 1089.31 539.154C1089.31 536.592 1089.31 534.031 1089.03 531.5C1089.03 531.063 1089.03 530.657 1089.03 530.22L1090.81 512.946C1090.93 507.265 1092.41 501.696 1095.12 496.702C1097.22 493.579 1100.31 490.923 1102.66 487.831C1103.2 487.102 1103.71 486.341 1104.16 485.551L1104.53 484.895C1104.88 484.296 1105.19 483.681 1105.47 483.052L1105.75 482.427C1106.44 480.73 1106.98 478.973 1107.35 477.179V476.773C1107.5 475.961 1107.63 475.149 1107.72 474.305C1107.71 474.191 1107.71 474.076 1107.72 473.962C1108.23 466.825 1107.28 459.66 1104.91 452.908C1101.19 441.319 1095.37 430.136 1094.75 418.047C1094.44 412.05 1095.44 405.927 1094.12 400.054C1091 386.654 1077.34 378.188 1064.05 372.566C1045.7 364.881 1036.45 356.479 1021.72 345.046C1009.22 335.362 988.525 340.235 972.769 341.235C936.757 343.546 901.214 354.386 867.327 365.569C854.166 369.942 840.755 374.94 830.502 383.842C823.599 389.709 818.857 397.714 817.029 406.583C816.674 408.645 816.537 410.74 816.622 412.83C816.622 413.018 816.622 413.205 816.622 413.362C816.622 414.174 816.622 414.955 816.904 415.736C816.886 415.996 816.886 416.256 816.904 416.516C817.059 417.47 817.289 418.41 817.591 419.328C819.029 423.857 821.686 427.949 823.218 432.447C823.565 433.47 823.847 434.513 824.062 435.571C824.062 435.571 824.062 435.79 824.062 435.883C824.281 436.883 824.437 437.851 824.562 439.007C825.938 450.159 821.811 461.81 819.998 473.181C819.748 474.774 819.561 476.304 819.436 478.054C818.894 484.632 819.475 491.255 821.155 497.639C821.142 497.712 821.142 497.786 821.155 497.858C821.343 498.639 821.624 499.42 821.874 500.17C821.959 500.508 822.064 500.842 822.187 501.169C822.405 501.825 822.687 502.481 822.937 503.106L823.468 504.418C823.718 504.98 824 505.542 824.281 506.105C824.562 506.667 824.75 507.042 825 507.479C825.256 507.993 825.538 508.493 825.844 508.979C826.126 509.478 826.438 509.947 826.751 510.415C827.063 510.884 827.345 511.321 827.689 511.759C828.032 512.196 828.408 512.727 828.783 513.195L829.752 514.383L831.065 515.757L832.096 516.788L833.628 518.1C834.003 518.381 834.316 518.693 834.691 518.943C835.066 519.193 835.973 519.849 836.629 520.255L837.536 520.88C838.536 521.473 839.599 522.004 840.662 522.504C847.789 525.628 856.792 526.909 861.075 533.187C862.096 534.653 862.809 536.311 863.169 538.06C863.169 538.466 863.169 538.904 863.169 539.31V540.403C863.169 544.027 863.419 547.619 863.795 551.149C863.767 553.091 863.882 555.033 864.138 556.959C864.347 558.411 864.746 559.829 865.326 561.176C870.33 585.86 883.552 608.123 902.839 624.337C903.214 626.243 903.652 628.461 904.121 630.96C893.199 639.149 881 645.481 868.015 649.702C838.223 658.417 796.115 698.619 796.115 698.619C796.115 698.619 775.171 849.464 770.138 867.862C765.105 886.261 761.385 957.419 761.385 957.419C761.385 957.419 756.414 986.845 748.88 1001.56C743.597 1011.93 744.566 1056.5 759.259 1083.59C756.864 1088.91 753.796 1093.91 750.131 1098.46C720.339 1132.82 630.965 1131.57 601.174 1131.57C573.758 1131.57 565.287 1148.18 564.13 1150.81C509.58 1166.43 332.957 1216.66 312.013 1225.78C287.192 1236.62 273.531 1343.73 273.531 1343.73C273.531 1343.73 221.669 1521.53 224.139 1544.83C226.608 1568.14 206.758 1633.05 206.758 1633.05C206.758 1633.05 206.758 1706.42 198.349 1711.39C198.276 1711.46 198.191 1711.51 198.099 1711.55C189.408 1715.23 190.627 1750.81 190.627 1750.81C190.627 1750.81 197.036 1752.66 207.008 1755.19C204.351 1773.15 194.504 1798.29 186.907 1816.16C183.031 1811.26 179.249 1809.23 176.998 1814.91C170.746 1830.53 77.714 1940.92 54.1122 1940.92C42.8896 1940.92 24.3207 1950.11 12.0978 1962.51C-1.28174 1976.16 -6.97117 1993.68 13.2232 2007.14ZM440.088 1368.13C545.592 1377.93 658.537 1360.66 658.537 1360.66C658.537 1360.66 649.847 1391.43 642.407 1403.7C634.966 1415.98 613.834 1485.89 613.834 1500.54C613.834 1515.19 580.323 1641.58 570.413 1647.7C566.256 1650.29 562.536 1656.73 559.597 1663.32C556.987 1669.41 554.794 1675.67 553.032 1682.06C553.178 1685.25 553.46 1688.28 553.876 1691.15C546.468 1697.93 538.621 1705.05 531.65 1711.36C531.65 1711.36 487.26 1736.04 472.255 1749.53C457.25 1763.03 387.851 1779.58 387.851 1779.58C370.644 1786.98 353.936 1795.48 337.834 1805.04C316.295 1818 294.757 1834.5 289.13 1850.77C291.568 1823.35 295.538 1790.33 298.195 1769.34L302.134 1769.18C336.927 1767.02 331.738 1733.85 329.894 1725.64C329.644 1724.45 329.456 1723.79 329.456 1723.79C354.277 1696.8 410.109 1495.76 402.669 1473.58C395.229 1451.4 408.921 1431.88 411.828 1431.88C414.735 1431.88 418.799 1407.36 412.609 1393.87C406.42 1380.37 440.088 1368.13 440.088 1368.13ZM1293.19 827.035L1286.6 828.66V827.254C1286.6 827.254 1289 827.254 1293.19 827.035ZM932.568 641.955C931.568 643.205 930.567 644.392 929.442 645.547L928.16 646.859C928.16 644.579 928.16 642.267 928.16 640.05C929.661 640.643 931.099 641.362 932.568 641.955ZM808.244 879.92L808.682 886.823C808.682 886.823 808.026 891.04 806.775 898.256L808.244 879.92ZM1378.6 811.386L1356.93 815.103C1360.06 813.947 1363.03 812.698 1365.97 811.292C1368.14 810.273 1370.48 809.638 1372.87 809.418C1375.62 809.709 1378.32 810.285 1380.94 811.136C1380.15 811.157 1379.37 811.241 1378.6 811.386Z" fill="url(#paint0_linear_1_2)"/>
<path d="M646.189 1696.9C646.189 1696.9 621.181 1748.47 622.462 1752.12C623.744 1755.78 568.85 1799.54 568.85 1799.54L509.174 1756.97L515.426 1727.73C515.426 1727.73 582.417 1667.41 587.325 1660.44C592.233 1653.48 646.189 1696.9 646.189 1696.9Z" fill="#EFB7B9"/>
<path d="M305.761 1871.39C347.181 1911.56 395.885 1899.5 419.049 1896.97C442.213 1894.44 565.787 1820.28 577.666 1815.41C580.792 1814.1 584.699 1809.85 588.513 1804.35C596.483 1792.04 603.476 1779.12 609.427 1765.71C608.614 1765.93 568.1 1777.52 557.878 1765.71C557.878 1765.71 540.81 1744.81 537.152 1744.81C533.495 1744.81 536.871 1708.14 536.871 1708.14C536.871 1708.14 493.293 1732.63 478.695 1746.03C464.096 1759.43 395.854 1775.83 395.854 1775.83C378.977 1783.17 362.603 1791.61 346.837 1801.1C314.576 1820.78 282.065 1848.55 305.761 1871.39Z" fill="#67647E"/>
<path opacity="0.1" d="M305.761 1871.39C347.181 1911.56 395.885 1899.5 419.049 1896.97C442.213 1894.44 565.787 1820.28 577.666 1815.41C580.792 1814.1 584.699 1809.85 588.513 1804.35C574.102 1795.76 479.945 1855.58 453.592 1866.55C427.239 1877.51 360.56 1871.39 322.704 1855.58C303.947 1847.68 322.954 1823.41 346.774 1801.1C314.576 1820.78 282.065 1848.55 305.761 1871.39Z" fill="black"/>
<path d="M310.637 1744.81C310.637 1744.81 293.288 1875.04 297.695 1892.1C302.103 1909.15 188.814 1833.68 188.814 1833.68C188.814 1833.68 228.453 1752.06 216.949 1733.32C205.445 1714.58 310.637 1744.81 310.637 1744.81Z" fill="#EFB7B9"/>
<path d="M202.225 1747.25C202.225 1747.25 272.874 1767.93 311.825 1765.49C345.962 1763.37 340.866 1730.45 339.084 1722.29C338.834 1721.14 338.647 1720.48 338.647 1720.48C362.999 1693.68 417.83 1494.07 410.546 1472.18C403.263 1450.28 416.486 1430.94 419.612 1430.94C422.738 1430.94 426.458 1406.58 420.362 1393.21C414.266 1379.84 447.184 1367.66 447.184 1367.66C550.719 1377.37 661.569 1360.22 661.569 1360.22C661.569 1360.22 653.035 1390.77 645.72 1402.96C638.405 1415.14 617.586 1484.48 617.586 1499.1C617.586 1513.72 584.699 1639.08 574.946 1645.17C570.882 1647.73 567.225 1654.1 564.349 1660.79C561.78 1666.88 559.628 1673.14 557.909 1679.53C561.567 1761.09 654.129 1729.51 667.54 1718.48C669.449 1716.9 671.188 1715.12 672.729 1713.17C677.433 1707.01 679.892 1699.43 679.701 1691.68C679.701 1691.68 800.304 1568.76 784.455 1517.63C768.606 1466.49 823.437 1465.3 823.437 1465.3C823.437 1465.3 907.497 1428.79 919.189 1406.86C926.41 1393.4 989.431 1363.81 1036.88 1343.01C1066.61 1329.99 1090.22 1320.46 1090.22 1320.46L1070.46 1249.67L1054.83 1193.85L1025.51 1182.86L931.724 1147.62L763.479 1124.04L748.068 1126.04L584.606 1147.19C584.606 1147.19 345.962 1215.41 321.578 1226.09C297.195 1236.77 283.816 1343.14 283.816 1343.14C283.816 1343.14 232.673 1519.63 235.174 1542.87C237.675 1566.11 218.106 1630.33 218.106 1630.33C218.106 1630.33 218.106 1703.14 209.822 1708.08C209.74 1708.1 209.653 1708.1 209.572 1708.08C201.006 1712.08 202.225 1747.25 202.225 1747.25Z" fill="#444053"/>
<path opacity="0.1" d="M447.059 1367.5C550.594 1377.22 661.444 1360.07 661.444 1360.07C668.759 1337.04 771.138 1273.76 771.138 1273.76C687.141 1253.08 447.059 1367.5 447.059 1367.5Z" fill="black"/>
<path d="M557.909 1679.09C561.566 1760.65 654.129 1729.07 667.54 1718.04C669.449 1716.46 671.188 1714.68 672.729 1712.73C640.375 1724.64 583.011 1733.85 564.349 1660.47C561.785 1666.53 559.634 1672.75 557.909 1679.09Z" fill="#444053"/>
<path d="M202.225 1747.25C202.225 1747.25 272.874 1767.93 311.825 1765.49C345.962 1763.37 340.866 1730.45 339.084 1722.29C303.322 1721.17 241.739 1717.83 209.759 1708.14C209.677 1708.17 209.591 1708.17 209.509 1708.14C201.006 1712.08 202.225 1747.25 202.225 1747.25Z" fill="#444053"/>
<path opacity="0.1" d="M557.909 1679.09C561.566 1760.65 654.129 1729.07 667.54 1718.04C669.449 1716.46 671.188 1714.68 672.729 1712.73C640.375 1724.64 583.011 1733.85 564.349 1660.47C561.785 1666.53 559.634 1672.75 557.909 1679.09Z" fill="black"/>
<path opacity="0.1" d="M202.225 1747.25C202.225 1747.25 272.874 1767.93 311.825 1765.49C345.962 1763.37 340.866 1730.45 339.084 1722.29C303.322 1721.17 241.739 1717.83 209.759 1708.14C209.677 1708.17 209.591 1708.17 209.509 1708.14C201.006 1712.08 202.225 1747.25 202.225 1747.25Z" fill="black"/>
<path d="M28.0096 2001.65C65.7724 2027.2 123.042 2015.02 123.042 2015.02C123.042 2015.02 209.509 1973.66 235.111 1973.66C260.714 1973.66 322.704 1948.08 322.704 1948.08L320.609 1930.86L310.543 1848.27C310.543 1848.27 215.667 1845.84 211.853 1837.31C211.853 1837.31 194.816 1795.39 188.721 1810.88C182.625 1826.38 91.2811 1935.83 68.117 1935.83C57.082 1935.83 38.857 1944.95 26.8842 1957.26C13.8485 1970.91 8.25282 1988.28 28.0096 2001.65Z" fill="#67647E"/>
<path opacity="0.1" d="M355.684 1282.29C355.684 1282.29 434.867 1332.27 412.953 1343.14C391.04 1354.01 355.684 1282.29 355.684 1282.29Z" fill="black"/>
<path opacity="0.1" d="M322.704 1378.43C322.704 1378.43 390.915 1443.16 365.343 1444.88C339.772 1446.59 322.704 1378.43 322.704 1378.43Z" fill="black"/>
<path opacity="0.1" d="M249.71 1584.01C249.71 1584.01 284.347 1649.07 271.311 1660.35C258.276 1671.63 249.71 1584.01 249.71 1584.01Z" fill="black"/>
<path opacity="0.1" d="M630.996 1649.89C618.805 1662.04 746.661 1609.71 717.463 1607.28C688.266 1604.84 630.996 1649.89 630.996 1649.89Z" fill="black"/>
<path d="M886.771 736.979L890.866 736.385C905.997 734.073 960.922 725.452 1010.19 714.769C1022.19 712.145 1033.82 709.427 1044.58 706.616C1082.31 696.745 1107.63 686.093 1091.47 677.347C1070.08 665.758 1058.83 644.704 1052.89 626.586C1052.33 624.806 1051.8 623.088 1051.3 621.37C1048.67 612.198 1047.03 602.774 1046.39 593.256C1046.39 593.256 908.841 544.558 935.538 593.256C948.699 617.153 939.852 636.645 927.441 650.295C918.909 659.32 908.87 666.793 897.775 672.38L886.771 736.979Z" fill="#EFB7B9"/>
<path opacity="0.1" d="M1034.17 699.244C1034.17 699.244 984.93 734.542 934.631 705.335C884.333 676.129 818.56 963.386 818.56 963.386L750.35 1131.35C750.35 1131.35 706.178 1167.86 761.166 1183.7C816.153 1199.54 938.132 1167.86 969.112 1214.13C1000.09 1260.39 1058.74 1267.67 1064.74 1267.67C1070.74 1267.67 1093.94 1093.58 1093.94 1093.58L1099.97 841.623L1034.17 699.244Z" fill="black"/>
<path d="M763.479 1173.96C818.467 1189.76 940.477 1158.12 971.456 1204.38C984.509 1223.23 1002.74 1237.91 1023.94 1246.64C1037.63 1252.79 1052.24 1256.65 1067.18 1258.08C1067.96 1258.08 1069.11 1254.95 1070.46 1249.36C1079.02 1214.13 1096.37 1083.99 1096.37 1083.99L1102.38 832.033L1044.51 706.616L1036.6 689.498C1028.85 694.667 1020.44 698.775 1011.6 701.712C992.557 708.147 965.017 711.77 937.132 695.464C922.377 686.905 906.278 705.585 890.929 736.26C853.916 810.105 821.061 953.515 821.061 953.515L752.788 1121.7C751.165 1123.09 749.62 1124.57 748.161 1126.13C738.471 1136.25 720.308 1161.52 763.479 1173.96Z" fill="#F3F5F9"/>
<path opacity="0.1" d="M1025.57 1182.42C1022.88 1203.68 1022.33 1225.15 1023.94 1246.52C1025.91 1276.92 1029.73 1307.17 1035.38 1337.11C1035.74 1338.99 1036.24 1340.84 1036.88 1342.64C1066.61 1329.61 1090.22 1320.08 1090.22 1320.08L1070.46 1249.3C1079.02 1214.06 1096.37 1083.93 1096.37 1083.93L1102.38 831.971L1044.51 706.616C1082.24 696.745 1107.57 686.093 1091.4 677.347C1067.96 664.633 1056.67 640.518 1051.23 621.37C1041.32 635.176 1029.72 647.685 1016.69 658.604L1015.94 659.229L1011.56 701.712L1010.22 714.769L1007.41 741.851C1007.41 741.851 1020.82 1061.97 1030.54 1080.24C1040.26 1098.52 1035.42 1133.78 1026.91 1175.17C1026.38 1177.52 1026.07 1179.92 1025.57 1182.42Z" fill="black"/>
<path d="M1031.73 1170.3C1023.22 1211.69 1030.51 1279.85 1040.26 1332.17C1050.01 1384.49 1153.55 1350.45 1173.06 1332.17C1192.56 1313.9 1249.77 1305.4 1249.77 1305.4C1249.77 1305.4 1252.21 1066.84 1270.5 1036.42C1279.16 1021.99 1281.25 974.881 1281.03 929.368C1280.87 888.51 1278.84 848.933 1278.09 835.657C1277.9 832.533 1277.81 830.815 1277.81 830.815C1277.81 830.815 1356.96 696.933 1355.74 687.124C1354.52 677.316 1331.39 676.191 1331.39 676.191C1331.39 676.191 1243.86 608.032 1229.08 616.528C1214.29 625.025 1174.24 603.159 1174.24 603.159C1174.24 603.159 1123.32 608.937 1112.79 599.098C1112.14 598.552 1111.64 597.863 1111.32 597.087C1110.99 596.312 1110.85 595.47 1110.91 594.631C1112.1 579.012 1059.02 545.776 1057.36 544.651C1102.13 584.885 1029.76 646.891 1021.54 653.7L1020.79 654.325L1012.25 736.947C1012.25 736.947 1025.66 1057.07 1035.38 1075.34C1045.11 1093.61 1040.26 1128.91 1031.73 1170.3Z" fill="#67647E"/>
<path d="M1036.45 828.66C1039.81 828.66 1042.54 825.932 1042.54 822.568C1042.54 819.204 1039.81 816.477 1036.45 816.477C1033.08 816.477 1030.35 819.204 1030.35 822.568C1030.35 825.932 1033.08 828.66 1036.45 828.66Z" fill="#444053"/>
<path opacity="0.1" d="M1023.97 658.605L1060.99 694.371L1115.22 603.783C1114.58 603.237 1114.08 602.549 1113.75 601.773C1113.43 600.997 1113.29 600.156 1113.35 599.316C1114.54 583.698 1061.42 550.461 1059.8 549.337C1104.56 589.789 1032.32 651.795 1023.97 658.605Z" fill="black"/>
<path opacity="0.1" d="M1048.64 1023.39C1052.01 1023.39 1054.73 1020.67 1054.73 1017.3C1054.73 1013.94 1052.01 1011.21 1048.64 1011.21C1045.27 1011.21 1042.54 1013.94 1042.54 1017.3C1042.54 1020.67 1045.27 1023.39 1048.64 1023.39Z" fill="black"/>
<path d="M1048.64 1020.96C1052.01 1020.96 1054.73 1018.23 1054.73 1014.86C1054.73 1011.5 1052.01 1008.77 1048.64 1008.77C1045.27 1008.77 1042.54 1011.5 1042.54 1014.86C1042.54 1018.23 1045.27 1020.96 1048.64 1020.96Z" fill="#444053"/>
<path d="M1021.54 653.732L1058.55 689.498L1112.79 598.91C1112.15 598.364 1111.64 597.676 1111.32 596.9C1110.99 596.124 1110.85 595.283 1110.91 594.443C1112.1 578.825 1059.02 545.588 1057.36 544.464C1102.13 584.916 1029.76 646.891 1021.54 653.732Z" fill="#67647E"/>
<path d="M988.471 994.577L1062.6 996.271C1065.54 996.338 1067.97 994.016 1068.04 991.084L1071.89 822.759C1071.96 819.827 1069.63 817.396 1066.7 817.329L992.566 815.635C989.632 815.568 987.199 817.891 987.132 820.823L983.28 989.147C983.213 992.079 985.537 994.51 988.471 994.577Z" fill="#D1D9EC"/>
<path d="M988.905 998.535L1063.04 1000.23C1065.97 1000.3 1068.4 997.973 1068.47 995.041L1072.32 826.717C1072.39 823.785 1070.07 821.354 1067.13 821.287L993 819.593C990.066 819.526 987.633 821.848 987.566 824.78L983.714 993.105C983.647 996.037 985.971 998.468 988.905 998.535Z" fill="#DFE6F5"/>
<path d="M1030.23 886.167C1037.58 886.167 1043.54 880.21 1043.54 872.86C1043.54 865.511 1037.58 859.553 1030.23 859.553C1022.87 859.553 1016.91 865.511 1016.91 872.86C1016.91 880.21 1022.87 886.167 1030.23 886.167Z" fill="white"/>
<path opacity="0.1" d="M571.289 1159.34C601.736 1172.74 801.523 1137.47 830.752 1128.91C859.981 1120.35 902.652 1054.66 881.926 1007.09C861.2 959.512 889.21 913.375 889.21 913.375C889.21 913.375 932.974 819.663 942.822 801.39C952.669 783.116 972.894 729.981 975.708 721.079C975.822 720.079 975.728 719.066 975.432 718.104C975.136 717.142 974.645 716.251 973.988 715.487C966.048 703.524 935.413 682.22 935.413 682.22C926.816 685.344 925.753 660.697 926.035 642.611C926.222 632.49 926.816 624.431 926.816 624.431C926.816 624.431 922.784 628.523 916.188 634.115C913.78 636.145 911.029 638.394 907.966 640.706C896.543 649.85 883.617 656.942 869.765 661.666C840.537 670.318 799.116 710.208 799.116 710.208L811.308 897.132C811.308 897.132 783.173 1072.93 754.038 1107.01C724.904 1141.09 637.092 1139.88 607.864 1139.88C578.635 1139.88 571.289 1159.34 571.289 1159.34Z" fill="black"/>
<path d="M568.85 1152.06C599.298 1165.43 799.085 1130.19 828.314 1121.6C857.542 1113.01 900.213 1047.35 879.487 999.777C858.762 952.203 886.771 906.065 886.771 906.065C886.771 906.065 930.536 812.354 940.383 794.08C950.23 775.806 970.456 722.672 973.269 713.769C973.382 712.769 973.287 711.757 972.991 710.795C972.695 709.833 972.205 708.942 971.55 708.178C963.547 696.245 933.068 675.004 933.068 675.004C924.472 678.128 923.409 653.513 923.69 635.427C923.878 625.274 924.472 617.215 924.472 617.215C924.472 617.215 920.439 621.307 913.843 626.93C911.436 628.929 908.685 631.178 905.621 633.49C894.142 642.653 881.151 649.746 867.233 654.45C838.005 663.103 796.584 702.993 796.584 702.993L808.776 889.916C808.776 889.916 780.641 1065.72 751.506 1099.8C722.371 1133.88 634.591 1132.66 605.331 1132.66C576.071 1132.66 568.85 1152.06 568.85 1152.06Z" fill="#67647E"/>
<path opacity="0.1" d="M900.182 621.901C900.182 621.901 901.339 628.304 903.308 638.175C909.873 671.599 925.503 744.569 936.788 741.758C944.885 739.727 958.671 725.421 969.174 713.051C961.265 700.993 930.692 679.69 930.692 679.69C922.096 682.813 921.033 658.198 921.314 640.112L911.467 631.616L900.182 621.901Z" fill="black"/>
<path d="M902.62 617.122C902.62 617.122 903.777 623.525 905.747 633.396C912.311 666.82 927.942 739.79 939.227 736.979C947.323 734.948 961.109 720.642 971.613 708.272C963.547 696.245 933.068 675.004 933.068 675.004C924.472 678.128 923.409 653.513 923.69 635.427L913.843 626.93L902.62 617.122Z" fill="#67647E"/>
<path d="M824.656 975.537C824.656 975.537 885.583 963.385 902.62 936.615C919.657 909.845 1035.7 886.636 1021.41 914.749C1007.12 942.863 902.62 1034.36 902.62 1034.36L857.261 1099.24L796.678 1083.87L771.138 1034.23L824.656 975.537Z" fill="#EFB7B9"/>
<path opacity="0.1" d="M968.768 1045.01C968.768 1045.01 909.779 1066.87 900.901 1096.11C892.023 1125.35 968.768 1045.01 968.768 1045.01Z" fill="black"/>
<path opacity="0.1" d="M1004.94 1079.03C1004.94 1079.03 1010.31 1109.42 936.382 1107.14L1004.94 1079.03Z" fill="black"/>
<path opacity="0.1" d="M1324.08 689.498L1350.9 687.062C1350.9 687.062 1380.13 708.927 1402.04 708.927C1423.95 708.927 1437.37 737.041 1437.37 737.041C1437.37 737.041 1473.91 754.097 1486.1 756.533C1498.29 758.97 1518.99 771.121 1512.89 775.994C1506.8 780.867 1514.11 791.831 1525.08 800.327C1536.06 808.824 1553.22 852.681 1538.46 858.772C1523.71 864.863 1483.66 877.015 1472.81 883.106C1461.97 889.197 1448.46 883.106 1448.46 883.106C1448.46 883.106 1383.94 799.109 1351.02 814.946C1318.11 830.784 1273.03 830.69 1273.03 830.69L1237.7 756.47L1324.08 689.498Z" fill="black"/>
<path d="M763.479 1090.02C769.231 1098.58 776.671 1104.58 786.206 1105.8C810.048 1108.58 834.21 1106.35 857.136 1099.24C857.136 1099.24 734.438 1060.28 852.572 965.572H820.999L810.37 961.574L815.184 936.365L822.124 708.99L796.553 702.899C796.553 702.899 775.952 852.619 771.044 870.861C766.136 889.104 762.448 959.731 762.448 959.731C762.448 959.731 757.571 988.938 750.256 1003.46C744.723 1014.52 746.254 1064.03 763.479 1090.02Z" fill="#67647E"/>
<path opacity="0.1" d="M768.45 1090.02C774.17 1098.58 781.642 1104.58 791.176 1105.8C815.019 1108.58 839.181 1106.35 862.107 1099.24C862.107 1099.24 739.408 1060.28 857.542 965.51H826L815.466 961.511C797.866 992.28 770.669 1046.91 768.45 1090.02Z" fill="black"/>
<path d="M763.479 1090.02C769.231 1098.58 776.671 1104.58 786.206 1105.8C810.048 1108.58 834.21 1106.35 857.136 1099.24C857.136 1099.24 734.438 1060.28 852.572 965.572H820.999L810.37 961.574C793.114 992.28 765.792 1046.91 763.479 1090.02Z" fill="#67647E"/>
<path opacity="0.1" d="M927.41 650.389C948.226 659.826 971.451 662.604 993.908 658.343C1016.36 654.082 1036.95 642.991 1052.86 626.586C1052.3 624.806 1051.76 623.088 1051.26 621.37C1048.64 612.198 1047 602.774 1046.36 593.256C1046.36 593.256 908.81 544.558 935.507 593.256C948.667 617.246 939.821 636.738 927.41 650.389Z" fill="black"/>
<path d="M862.419 544.651V545.745C862.419 549.337 862.669 552.898 863.044 556.396C863.42 559.895 863.92 563.081 864.545 566.361C869.325 590.227 881.837 611.857 900.148 627.908C918.459 643.959 941.55 653.538 965.853 655.166C990.157 656.794 1014.32 650.38 1034.61 636.915C1054.9 623.45 1070.19 603.683 1078.12 580.668C1078.87 578.512 1079.52 576.357 1080.12 574.17C1082.79 564.559 1084.14 554.627 1084.12 544.651C1084.12 542.121 1084.12 539.56 1083.84 537.061C1081.8 508.464 1068.74 481.772 1047.41 462.597C1026.08 443.422 998.142 433.257 969.468 434.24C940.794 435.223 913.619 447.277 893.655 467.868C873.691 488.459 862.494 515.982 862.419 544.651Z" fill="#EFB7B9"/>
<path opacity="0.1" d="M862.419 545.745C863.026 549.261 863.235 552.834 863.044 556.396C863.007 558.328 863.112 560.259 863.357 562.175C863.565 563.617 863.965 565.025 864.545 566.361C869.015 576.857 883.645 583.666 893.305 576.888C897.024 573.843 899.979 569.97 901.933 565.58C912.186 546.557 926.41 524.691 948.824 524.316C958.389 524.128 967.361 528.158 976.614 530.563C985.867 532.969 996.809 533.187 1003.69 526.909C1009 522.067 1011.5 513.82 1018.6 512.133C1025.69 510.447 1032.26 516.944 1035.51 523.316C1038.76 529.689 1041.36 537.186 1048.01 540.497C1050.95 541.934 1054.27 542.371 1057.39 543.933C1070.65 551.18 1064.55 576.576 1078.31 580.699C1078.74 580.833 1079.17 580.937 1079.62 581.011C1079.84 578.762 1080.09 576.451 1080.31 574.202C1081.56 561.832 1082.8 549.462 1084.03 537.092C1081.98 508.495 1068.93 481.803 1047.6 462.628C1026.27 443.453 998.33 433.288 969.656 434.271C940.982 435.254 913.806 447.308 893.842 467.899C873.879 488.49 862.682 516.013 862.607 544.683L862.419 545.745Z" fill="black"/>
<path d="M1059.33 379.313C1072.37 384.842 1085.93 393.338 1088.84 406.614C1090.12 412.456 1089.15 418.516 1089.47 424.451C1090.09 436.446 1095.72 447.566 1099.44 459.061C1103.16 470.557 1104.41 484.051 1097.09 493.735C1094.81 496.858 1091.78 499.326 1089.72 502.512C1087.02 507.534 1085.57 513.123 1085.46 518.818L1079.43 578.731C1063.99 575.826 1070.87 549.056 1057.17 541.621C1054.33 540.059 1050.92 539.622 1047.95 538.154C1041.36 535.03 1038.79 527.377 1035.45 521.005C1032.1 514.632 1025.76 508.104 1018.53 509.822C1011.31 511.54 1008.94 519.787 1003.65 524.597C996.746 530.844 985.774 530.595 976.552 528.252C967.33 525.909 958.327 522.004 948.792 522.004C926.347 522.379 912.092 544.245 901.901 563.269C899.94 567.672 896.974 571.555 893.242 574.608C882.364 582.23 865.108 572.609 863.326 559.864C862.263 552.71 864.514 544.745 860.387 538.685C856.261 532.625 847.32 531.344 840.349 528.096C822.531 519.911 817.029 497.702 819.967 479.084C822.124 465.652 827.47 451.846 823.093 438.913C821.562 434.447 818.967 430.386 817.56 425.919C813.653 413.424 820.03 399.555 830.064 390.652C840.099 381.749 853.26 376.845 866.202 372.534C899.432 361.383 934.319 350.668 969.674 348.357C985.149 347.357 1005.44 342.516 1017.72 352.168C1032.32 363.351 1041.32 371.691 1059.33 379.313Z" fill="#585268"/>
<path opacity="0.1" d="M1030.35 732.48C1033.72 732.48 1036.45 729.753 1036.45 726.389C1036.45 723.025 1033.72 720.298 1030.35 720.298C1026.98 720.298 1024.26 723.025 1024.26 726.389C1024.26 729.753 1026.98 732.48 1030.35 732.48Z" fill="black"/>
<path d="M1030.35 730.044C1033.72 730.044 1036.45 727.317 1036.45 723.953C1036.45 720.589 1033.72 717.861 1030.35 717.861C1026.98 717.861 1024.26 720.589 1024.26 723.953C1024.26 727.317 1026.98 730.044 1030.35 730.044Z" fill="#444053"/>
<path opacity="0.1" d="M1069.33 1114.7C1072.7 1114.7 1075.43 1111.97 1075.43 1108.61C1075.43 1105.24 1072.7 1102.52 1069.33 1102.52C1065.97 1102.52 1063.24 1105.24 1063.24 1108.61C1063.24 1111.97 1065.97 1114.7 1069.33 1114.7Z" fill="black"/>
<path d="M1069.33 1112.26C1072.7 1112.26 1075.43 1109.53 1075.43 1106.17C1075.43 1102.81 1072.7 1100.08 1069.33 1100.08C1065.97 1100.08 1063.24 1102.81 1063.24 1106.17C1063.24 1109.53 1065.97 1112.26 1069.33 1112.26Z" fill="#444053"/>
<path opacity="0.1" d="M1048.64 1215.72C1052.01 1215.72 1054.73 1212.99 1054.73 1209.63C1054.73 1206.26 1052.01 1203.54 1048.64 1203.54C1045.27 1203.54 1042.54 1206.26 1042.54 1209.63C1042.54 1212.99 1045.27 1215.72 1048.64 1215.72Z" fill="black"/>
<path d="M1048.64 1213.28C1052.01 1213.28 1054.73 1210.56 1054.73 1207.19C1054.73 1203.83 1052.01 1201.1 1048.64 1201.1C1045.27 1201.1 1042.54 1203.83 1042.54 1207.19C1042.54 1210.56 1045.27 1213.28 1048.64 1213.28Z" fill="#444053"/>
<path opacity="0.1" d="M839.286 822.568C839.286 822.568 825.875 913.469 839.286 929.306C852.697 945.143 839.286 822.568 839.286 822.568Z" fill="black"/>
<path opacity="0.1" d="M1237.61 991.374C1237.61 991.374 1263.18 1046.45 1237.61 1099.24C1212.04 1152.03 1196.19 1173.49 1204.72 1207.19C1213.26 1240.9 1237.61 991.374 1237.61 991.374Z" fill="black"/>
<path opacity="0.1" d="M28.0096 2001.65C65.7724 2027.2 123.042 2015.02 123.042 2015.02C123.042 2015.02 209.509 1973.66 235.111 1973.66C260.714 1973.66 322.704 1948.08 322.704 1948.08L320.609 1930.86C295.382 1935.71 237.987 1947.29 231.36 1952.95C222.826 1960.26 118.071 1995.56 118.071 1995.56C118.071 1995.56 46.7347 1986.65 26.8842 1957.35C13.8485 1970.91 8.25282 1988.28 28.0096 2001.65Z" fill="black"/>
<g opacity="0.1">
<path d="M1089.47 414.705C1089.47 413.393 1089.47 412.081 1089.47 410.738C1089.47 412.268 1089.47 413.861 1089.47 415.298C1089.53 415.111 1089.47 414.923 1089.47 414.705Z" fill="black"/>
<path d="M840.38 518.256C847.352 521.38 856.011 522.629 860.419 528.814C864.826 534.999 862.294 542.84 863.357 549.993C865.201 562.738 882.395 572.39 893.273 564.737C897.005 561.684 899.971 557.801 901.933 553.398C912.155 534.374 926.41 512.508 948.824 512.133C958.389 511.977 967.361 516.007 976.614 518.381C985.868 520.755 996.809 521.005 1003.72 514.726C1009 509.916 1011.5 501.638 1018.6 499.951C1025.69 498.264 1032.23 504.761 1035.51 511.134C1038.79 517.506 1041.36 525.003 1048.01 528.314C1050.95 529.751 1054.27 530.188 1057.24 531.75C1070.93 539.216 1064.05 566.111 1079.49 568.86C1081.58 548.868 1083.59 528.897 1085.53 508.947C1085.65 503.315 1087.11 497.792 1089.78 492.829C1091.84 489.705 1094.87 487.081 1097.16 484.02C1099.92 480.239 1101.64 475.803 1102.16 471.15C1103.45 479.051 1101.66 487.146 1097.16 493.766C1094.87 496.89 1091.84 499.357 1089.78 502.544C1087.07 507.55 1085.59 513.128 1085.46 518.818C1083.38 538.789 1081.37 558.76 1079.43 578.731C1063.99 575.826 1070.87 549.056 1057.17 541.621C1054.33 540.059 1050.92 539.622 1047.95 538.154C1041.36 535.03 1038.79 527.377 1035.45 521.005C1032.1 514.632 1025.76 508.104 1018.53 509.822C1011.31 511.54 1008.94 519.787 1003.65 524.597C996.746 530.844 985.774 530.595 976.552 528.252C967.33 525.909 958.327 522.004 948.761 522.004C926.347 522.379 912.092 544.245 901.87 563.269C899.908 567.672 896.943 571.555 893.211 574.608C882.332 582.23 865.076 572.609 863.294 559.864C862.232 552.71 864.482 544.745 860.356 538.685C856.23 532.625 847.289 531.344 840.318 528.096C824.031 520.599 818.029 501.388 819.405 483.926C820.655 498.202 827.095 512.133 840.38 518.256Z" fill="black"/>
<path d="M817.591 416.048C818.998 420.515 821.593 424.607 823.124 429.043C824.738 434.222 825.207 439.689 824.5 445.067C824.257 442.943 823.796 440.85 823.124 438.82C821.593 434.353 818.998 430.292 817.591 425.825C816.357 421.702 816.111 417.347 816.872 413.112C817.054 414.104 817.294 415.084 817.591 416.048Z" fill="black"/>
</g>
<path d="M1504.79 1418.6L1253.71 1387.21C1251.94 1386.99 1250.27 1386.28 1248.88 1385.17C1247.49 1384.05 1246.43 1382.57 1245.84 1380.89C1245.25 1379.21 1245.13 1377.4 1245.51 1375.65C1245.89 1373.91 1246.75 1372.31 1247.99 1371.03L1353.31 1261.7C1354.33 1260.64 1355.58 1259.82 1356.97 1259.33C1358.36 1258.83 1359.84 1258.66 1361.31 1258.83L1553.28 1280.32C1554.74 1280.48 1556.14 1280.98 1557.38 1281.77C1558.62 1282.56 1559.66 1283.62 1560.42 1284.88C1561.18 1286.13 1561.64 1287.55 1561.77 1289.01C1561.9 1290.47 1561.69 1291.94 1561.16 1293.31L1514.95 1412.61C1514.17 1414.59 1512.74 1416.26 1510.9 1417.34C1509.06 1418.43 1506.91 1418.87 1504.79 1418.6Z" fill="#746D83"/>
<path opacity="0.1" d="M1504.79 1418.6L1253.71 1387.21C1251.94 1386.99 1250.27 1386.28 1248.88 1385.17C1247.49 1384.05 1246.43 1382.57 1245.84 1380.89C1245.25 1379.21 1245.13 1377.4 1245.51 1375.65C1245.89 1373.91 1246.75 1372.31 1247.99 1371.03L1353.31 1261.7C1354.33 1260.64 1355.58 1259.82 1356.97 1259.33C1358.36 1258.83 1359.84 1258.66 1361.31 1258.83L1553.28 1280.32C1554.74 1280.48 1556.14 1280.98 1557.38 1281.77C1558.62 1282.56 1559.66 1283.62 1560.42 1284.88C1561.18 1286.13 1561.64 1287.55 1561.77 1289.01C1561.9 1290.47 1561.69 1291.94 1561.16 1293.31L1514.95 1412.61C1514.17 1414.59 1512.74 1416.26 1510.9 1417.34C1509.06 1418.43 1506.91 1418.87 1504.79 1418.6Z" fill="black"/>
<path d="M1501.95 1415.79L1250.9 1384.28C1249.13 1384.05 1247.45 1383.34 1246.07 1382.22C1244.68 1381.1 1243.63 1379.61 1243.03 1377.93C1242.44 1376.25 1242.33 1374.44 1242.71 1372.69C1243.08 1370.95 1243.94 1369.35 1245.17 1368.06L1350.49 1258.73C1351.52 1257.67 1352.77 1256.86 1354.16 1256.36C1355.54 1255.85 1357.03 1255.67 1358.49 1255.83L1550.43 1277.32C1551.9 1277.48 1553.3 1277.98 1554.55 1278.77C1555.79 1279.57 1556.83 1280.63 1557.59 1281.89C1558.36 1283.15 1558.82 1284.56 1558.95 1286.03C1559.08 1287.5 1558.87 1288.97 1558.34 1290.35L1512.11 1409.64C1511.34 1411.65 1509.93 1413.35 1508.09 1414.46C1506.25 1415.58 1504.09 1416.05 1501.95 1415.79Z" fill="#746D83"/>
<path d="M1352.34 1301.56L1427.74 1307.62L1535.27 1300.62H1533.43L1433.8 1291C1410.98 1282.63 1426.8 1233.34 1426.8 1233.34L1350.49 1237.21L1344.4 1237.52C1317.42 1300.62 1352.34 1301.56 1352.34 1301.56Z" fill="#D1D9EC"/>
<path opacity="0.1" d="M1352.34 1301.56L1427.74 1307.62L1535.27 1300.62H1533.43L1424.7 1304.5L1351.87 1296.59C1331.17 1291.16 1343.02 1255.3 1350.49 1237.24L1344.4 1237.55C1317.42 1300.62 1352.34 1301.56 1352.34 1301.56Z" fill="black"/>
<path d="M1220.26 853.524L1243.33 1184.17L1246.46 1227.56C1246.77 1232.35 1248.91 1236.83 1252.43 1240.1C1255.96 1243.36 1260.6 1245.14 1265.4 1245.08H1272.4L1619.71 1242.99C1621.06 1242.97 1622.4 1242.68 1623.63 1242.12C1624.87 1241.56 1625.97 1240.75 1626.88 1239.75C1627.78 1238.74 1628.47 1237.55 1628.89 1236.27C1629.32 1234.98 1629.47 1233.62 1629.34 1232.28L1626.21 1188.86L1601.77 898.1C1601.38 894.308 1599.92 890.705 1597.56 887.716C1595.19 884.727 1592.02 882.477 1588.42 881.232L1257.4 831.627C1246.14 827.723 1234.67 829.097 1227.51 835.063C1224.87 837.305 1222.83 840.163 1221.57 843.384C1220.3 846.605 1219.85 850.088 1220.26 853.524Z" fill="#4C4C56"/>
<path d="M1243.33 1184.17L1246.46 1227.56C1246.77 1232.35 1248.91 1236.83 1252.43 1240.1C1255.96 1243.36 1260.6 1245.14 1265.4 1245.08H1272.4L1619.71 1242.99C1621.06 1242.97 1622.4 1242.68 1623.63 1242.12C1624.87 1241.56 1625.97 1240.75 1626.88 1239.75C1627.78 1238.74 1628.47 1237.55 1628.89 1236.27C1629.32 1234.98 1629.47 1233.62 1629.34 1232.28L1626.21 1188.86L1243.33 1184.17Z" fill="#DFE6F5"/>
<path d="M1476.16 1229.46C1478.73 1229.46 1480.82 1225.3 1480.82 1220.16C1480.82 1215.01 1478.73 1210.85 1476.16 1210.85C1473.59 1210.85 1471.5 1215.01 1471.5 1220.16C1471.5 1225.3 1473.59 1229.46 1476.16 1229.46Z" fill="white"/>
<path d="M1462.66 1343.89C1462.66 1343.89 1367.69 1308.06 1342.08 1334.11C1342.08 1334.11 1337.89 1342.04 1355.12 1343.89L1424.7 1349.48C1424.7 1349.48 1453.34 1352.26 1462.66 1343.89Z" fill="#D1D9EC"/>
<path d="M1460.12 1334.58C1441.37 1326.96 1385.32 1307.24 1349.37 1329.05C1349.37 1329.05 1389.13 1324.64 1410.98 1337.26C1432.83 1349.88 1462.66 1343.89 1462.66 1343.89L1463.09 1343.1C1463.51 1342.36 1463.77 1341.54 1463.84 1340.69C1463.92 1339.84 1463.81 1338.98 1463.53 1338.17C1463.25 1337.37 1462.8 1336.63 1462.21 1336.01C1461.63 1335.39 1460.91 1334.9 1460.12 1334.58Z" fill="#DFE6F5"/>
<path d="M1220.26 853.524L1246.33 1227.62C1246.64 1232.41 1248.78 1236.9 1252.31 1240.16C1255.83 1243.42 1260.47 1245.2 1265.28 1245.14H1272.28C1267.48 1240.57 1263.39 1235.31 1260.15 1229.53C1260.15 1229.53 1234.55 853.618 1232.67 844.31C1231.85 840.825 1230.06 837.642 1227.51 835.126C1224.88 837.361 1222.85 840.209 1221.58 843.418C1220.32 846.627 1219.86 850.098 1220.26 853.524Z" fill="#DFE6F5"/>
<path opacity="0.1" d="M1220.26 853.524L1246.33 1227.62C1246.64 1232.41 1248.78 1236.9 1252.31 1240.16C1255.83 1243.42 1260.47 1245.2 1265.28 1245.14H1272.28C1267.48 1240.57 1263.39 1235.31 1260.15 1229.53C1260.15 1229.53 1234.55 853.618 1232.67 844.31C1231.85 840.825 1230.06 837.642 1227.51 835.126C1224.88 837.361 1222.85 840.209 1221.58 843.418C1220.32 846.627 1219.86 850.098 1220.26 853.524Z" fill="black"/>
<path opacity="0.1" d="M1175.46 957.232C1203.6 950.985 1269.25 931.742 1269.25 931.742L1281 929.368C1280.84 888.51 1278.81 848.933 1278.06 835.657H1277.78C1277.78 835.657 1221.73 853.931 1208.35 863.77C1194.97 873.61 1153.52 871.049 1153.52 871.049C1153.52 871.049 1089 874.516 1035.45 934.273C981.897 994.029 1147.45 963.386 1175.46 957.232Z" fill="black"/>
<path d="M1449.28 848.62C1451.78 849.764 1453.95 851.524 1455.59 853.734C1457.23 855.945 1458.28 858.535 1458.65 861.262C1459.01 863.989 1458.68 866.764 1457.68 869.327C1456.68 871.891 1455.05 874.16 1452.93 875.921C1438.08 888.198 1416.42 902.879 1395.73 904.941C1361.34 908.408 1278.19 925.057 1269.93 926.807C1269.49 926.881 1269.05 926.986 1268.62 927.119C1261.77 929.118 1201.88 946.642 1175.46 952.421C1147.33 958.669 981.647 989 1035.38 929.368C1084.71 874.453 1143.33 866.894 1152.36 866.175C1153.08 866.113 1153.8 866.113 1154.52 866.175C1160.77 866.457 1196.16 867.675 1208.38 858.835C1214.75 854.843 1221.49 851.485 1228.51 848.808C1255 837.856 1282.63 829.893 1310.88 825.067L1368.19 815.071C1371.45 814.51 1374.8 814.945 1377.81 816.321L1449.28 848.62Z" fill="#EFB7B9"/>
<path d="M1328.95 689.498L1355.74 687.062C1355.74 687.062 1385 708.927 1406.92 708.927C1428.83 708.927 1442.24 737.041 1442.24 737.041C1442.24 737.041 1478.79 754.097 1490.98 756.533C1503.17 758.97 1523.86 771.121 1517.77 775.994C1511.67 780.867 1518.99 791.831 1529.96 800.327C1540.93 808.824 1558.09 852.681 1543.34 858.772C1528.58 864.863 1488.54 877.015 1477.69 883.106C1466.84 889.197 1453.34 883.106 1453.34 883.106C1453.34 883.106 1388.69 799.047 1355.77 814.884C1322.86 830.721 1277.81 830.69 1277.81 830.69L1242.49 756.47L1328.95 689.498Z" fill="#67647E"/>
<path d="M2932.97 2220.12C2929.97 2224.22 2927.58 2228.73 2925.87 2233.52C2925.4 2234.68 2925 2236.02 2924.56 2237.3C2923.76 2236.93 2922.94 2236.64 2922.09 2236.43C2918.45 2235.51 2914.68 2235.19 2910.93 2235.49C2910.93 2234.02 2910.93 2232.52 2911.15 2230.9C2911.59 2214.43 2909.65 2191.51 2893.96 2201.22C2878.86 2210.59 2889.61 2226.21 2899.33 2236.21L2901.83 2238.67C2892.99 2244.92 2891.3 2259.7 2889.8 2275.03C2888.3 2290.37 2875.29 2307.15 2866.67 2316.67C2865.79 2317.67 2864.98 2318.52 2864.23 2319.33C2860.75 2316.56 2856.72 2314.55 2852.41 2313.44C2848.1 2312.32 2843.61 2312.13 2839.22 2312.86L2838.06 2308.65C2831.06 2283.37 2816.52 2239.61 2797.99 2230.02C2798.77 2229.05 2799.58 2228.05 2800.42 2226.9C2808.3 2216.62 2817.15 2201.31 2804.05 2197.41C2790.95 2193.51 2789.8 2210.69 2790.51 2223.52C2790.51 2225.15 2790.64 2226.68 2790.89 2228.12C2788.27 2228.24 2785.7 2228.89 2783.34 2230.04C2780.97 2231.19 2778.88 2232.81 2777.17 2234.8L2775.17 2232.4C2764.54 2219.9 2745.03 2200 2739.15 2215.03C2733.65 2229.02 2750.81 2247.2 2762.88 2257.73L2763.63 2258.39C2755.5 2291.22 2790.89 2317.99 2809.93 2329.7L2812.37 2331.2C2786.11 2362.12 2769.91 2420.1 2769.91 2420.1L2843.44 2433.22C2843.44 2433.22 2892.17 2391.17 2885.95 2351.69H2886.45C2935.16 2341.94 2946.25 2290.03 2938.66 2259.23L2939.53 2258.85C2948.4 2255.22 2956.17 2249.34 2962.07 2241.8C2975.55 2222.9 2946.94 2201.53 2932.97 2220.12Z" fill="#B27409"/>
<path opacity="0.1" d="M2932.97 2220.12C2929.97 2224.22 2927.58 2228.73 2925.87 2233.52C2925.4 2234.68 2925 2236.02 2924.56 2237.3C2923.76 2236.93 2922.94 2236.64 2922.09 2236.43C2918.45 2235.51 2914.68 2235.19 2910.93 2235.49C2910.93 2234.02 2910.93 2232.52 2911.15 2230.9C2911.59 2214.43 2909.65 2191.51 2893.96 2201.22C2878.86 2210.59 2889.61 2226.21 2899.33 2236.21L2901.83 2238.67C2892.99 2244.92 2891.3 2259.7 2889.8 2275.03C2888.3 2290.37 2875.29 2307.15 2866.67 2316.67C2865.79 2317.67 2864.98 2318.52 2864.23 2319.33C2860.75 2316.56 2856.72 2314.55 2852.41 2313.44C2848.1 2312.32 2843.61 2312.13 2839.22 2312.86L2838.06 2308.65C2831.06 2283.37 2816.52 2239.61 2797.99 2230.02C2798.77 2229.05 2799.58 2228.05 2800.42 2226.9C2808.3 2216.62 2817.15 2201.31 2804.05 2197.41C2790.95 2193.51 2789.8 2210.69 2790.51 2223.52C2790.51 2225.15 2790.64 2226.68 2790.89 2228.12C2788.27 2228.24 2785.7 2228.89 2783.34 2230.04C2780.97 2231.19 2778.88 2232.81 2777.17 2234.8L2775.17 2232.4C2764.54 2219.9 2745.03 2200 2739.15 2215.03C2733.65 2229.02 2750.81 2247.2 2762.88 2257.73L2763.63 2258.39C2755.5 2291.22 2790.89 2317.99 2809.93 2329.7L2812.37 2331.2C2786.11 2362.12 2769.91 2420.1 2769.91 2420.1L2843.44 2433.22C2843.44 2433.22 2892.17 2391.17 2885.95 2351.69H2886.45C2935.16 2341.94 2946.25 2290.03 2938.66 2259.23L2939.53 2258.85C2948.4 2255.22 2956.17 2249.34 2962.07 2241.8C2975.55 2222.9 2946.94 2201.53 2932.97 2220.12Z" fill="black"/>
<path d="M2786.58 2241.3L2777.98 2266.44C2777.98 2266.44 2773.23 2263.07 2767.19 2257.76C2755.13 2247.23 2737.96 2229.05 2743.47 2215.06C2749.34 2200.03 2768.85 2219.87 2779.48 2232.43C2783.76 2237.42 2786.58 2241.3 2786.58 2241.3Z" fill="#B27409"/>
<path d="M2804.8 2226.93C2802.17 2230.39 2799.35 2233.71 2796.36 2236.86C2795.61 2232.48 2795.1 2228.06 2794.83 2223.62C2794.11 2210.78 2795.45 2193.66 2808.36 2197.5C2821.27 2201.35 2812.62 2216.65 2804.8 2226.93Z" fill="#B27409"/>
<path d="M2915.62 2230.9C2915.34 2239.17 2914.53 2245.8 2914.53 2245.8C2910.74 2242.84 2907.16 2239.64 2903.8 2236.21C2894.08 2226.15 2883.33 2210.56 2898.43 2201.22C2914.21 2191.51 2916.06 2214.43 2915.62 2230.9Z" fill="#B27409"/>
<path d="M2966.39 2241.74C2960.48 2249.28 2952.71 2255.15 2943.85 2258.79C2941.39 2259.87 2938.86 2260.79 2936.28 2261.54L2926.15 2247.33C2927.22 2242.63 2928.62 2238.02 2930.34 2233.52C2932.05 2228.73 2934.44 2224.22 2937.44 2220.12C2951.44 2201.53 2980.05 2222.9 2966.39 2241.74Z" fill="#B27409"/>
<path opacity="0.1" d="M2779.48 2232.43C2783.76 2237.42 2786.58 2241.3 2786.58 2241.3L2777.98 2266.44C2777.98 2266.44 2773.23 2263.07 2767.19 2257.76C2768.52 2249.71 2771.84 2242.12 2776.85 2235.68C2777.73 2234.49 2778.64 2233.43 2779.48 2232.43Z" fill="black"/>
<path opacity="0.1" d="M2804.8 2226.93C2802.17 2230.39 2799.35 2233.71 2796.36 2236.86C2795.61 2232.48 2795.1 2228.06 2794.83 2223.62C2798.41 2223.67 2801.9 2224.82 2804.8 2226.93Z" fill="black"/>
<path d="M2847 2326.76L2825.62 2336.13C2821.72 2334.18 2817.92 2332.03 2814.24 2329.7C2791.76 2315.89 2746.56 2281.13 2776.73 2240.14C2806.89 2199.16 2832.28 2272.66 2842.38 2308.61C2845.44 2319.39 2847 2326.76 2847 2326.76Z" fill="#B27409"/>
<path opacity="0.1" d="M2903.8 2236.21C2906.93 2233.01 2911.15 2231.11 2915.62 2230.9C2915.34 2239.17 2914.53 2245.8 2914.53 2245.8C2910.74 2242.84 2907.16 2239.64 2903.8 2236.21Z" fill="black"/>
<path opacity="0.1" d="M2943.85 2258.73C2941.39 2259.81 2938.86 2260.73 2936.28 2261.48L2926.15 2247.26C2927.22 2242.57 2928.62 2237.95 2930.34 2233.46C2936.88 2237.33 2941.69 2246.83 2943.85 2258.73Z" fill="black"/>
<path d="M2890.77 2351.63C2889.58 2351.88 2888.39 2352.1 2887.17 2352.28C2815.49 2363.15 2863.54 2324.51 2863.54 2324.51C2863.54 2324.51 2866.67 2321.55 2871.14 2316.67C2879.76 2307.3 2892.8 2290.47 2894.27 2275.03C2896.52 2251.83 2899.14 2230.05 2926.56 2236.43C2953.48 2242.74 2958.6 2338.07 2890.77 2351.63Z" fill="#B27409"/>
<path d="M2889.42 2529.96H2752.47V2565.95H2889.42V2529.96Z" fill="#D4DFEC"/>
<path d="M2909.65 2413.01H2730.71V2538.58H2909.65V2413.01Z" fill="#D4DFEC"/>
<path opacity="0.1" d="M2889.42 2529.96H2752.47V2565.95H2889.42V2529.96Z" fill="black"/>
<path opacity="0.1" d="M2909.65 2413.01H2730.71V2538.58H2909.65V2413.01Z" fill="black"/>
<path d="M2898.43 2529.96H2761.47V2565.95H2898.43V2529.96Z" fill="#D4DFEC"/>
<path opacity="0.1" d="M2842.31 2308.71C2845.44 2319.45 2846.94 2326.83 2846.94 2326.83L2825.56 2336.2C2821.66 2334.24 2817.86 2332.1 2814.18 2329.76C2822.62 2319.11 2832.06 2311.11 2842.31 2308.71Z" fill="black"/>
<path opacity="0.1" d="M2890.77 2351.63C2889.58 2351.88 2888.39 2352.1 2887.17 2352.28C2815.49 2363.15 2863.54 2324.51 2863.54 2324.51C2863.54 2324.51 2866.67 2321.55 2871.14 2316.67C2884.51 2327.45 2890.05 2339.45 2890.77 2351.63Z" fill="black"/>
<path d="M2774.23 2420.13C2774.23 2420.13 2814.37 2276.44 2870.64 2320.8C2926.9 2365.15 2847.75 2433.25 2847.75 2433.25L2774.23 2420.13Z" fill="#B27409"/>
<path opacity="0.1" d="M2794.48 2267.16C2796.97 2267.16 2798.99 2265.15 2798.99 2262.66C2798.99 2260.18 2796.97 2258.17 2794.48 2258.17C2792 2258.17 2789.98 2260.18 2789.98 2262.66C2789.98 2265.15 2792 2267.16 2794.48 2267.16Z" fill="black"/>
<path opacity="0.1" d="M2794.11 2288.15C2796.6 2288.15 2798.61 2286.14 2798.61 2283.66C2798.61 2281.17 2796.6 2279.16 2794.11 2279.16C2791.62 2279.16 2789.61 2281.17 2789.61 2283.66C2789.61 2286.14 2791.62 2288.15 2794.11 2288.15Z" fill="black"/>
<path opacity="0.1" d="M2924.65 2271.29C2927.14 2271.29 2929.16 2269.27 2929.16 2266.79C2929.16 2264.3 2927.14 2262.29 2924.65 2262.29C2922.17 2262.29 2920.15 2264.3 2920.15 2266.79C2920.15 2269.27 2922.17 2271.29 2924.65 2271.29Z" fill="black"/>
<path opacity="0.1" d="M2819.62 2378.9C2822.1 2378.9 2824.12 2376.88 2824.12 2374.4C2824.12 2371.92 2822.1 2369.9 2819.62 2369.9C2817.13 2369.9 2815.12 2371.92 2815.12 2374.4C2815.12 2376.88 2817.13 2378.9 2819.62 2378.9Z" fill="black"/>
<path opacity="0.1" d="M2915.28 2306.15C2917.76 2306.15 2919.78 2304.13 2919.78 2301.65C2919.78 2299.16 2917.76 2297.15 2915.28 2297.15C2912.79 2297.15 2910.77 2299.16 2910.77 2301.65C2910.77 2304.13 2912.79 2306.15 2915.28 2306.15Z" fill="black"/>
<path opacity="0.1" d="M2868.76 2352.66C2871.25 2352.66 2873.26 2350.64 2873.26 2348.16C2873.26 2345.68 2871.25 2343.66 2868.76 2343.66C2866.27 2343.66 2864.26 2345.68 2864.26 2348.16C2864.26 2350.64 2866.27 2352.66 2868.76 2352.66Z" fill="black"/>
<path opacity="0.1" d="M2809.86 2276.16C2812.35 2276.16 2814.37 2274.15 2814.37 2271.66C2814.37 2269.18 2812.35 2267.16 2809.86 2267.16C2807.38 2267.16 2805.36 2269.18 2805.36 2271.66C2805.36 2274.15 2807.38 2276.16 2809.86 2276.16Z" fill="black"/>
<path opacity="0.1" d="M2912.27 2284.78C2914.76 2284.78 2916.78 2282.77 2916.78 2280.28C2916.78 2277.8 2914.76 2275.78 2912.27 2275.78C2909.79 2275.78 2907.77 2277.8 2907.77 2280.28C2907.77 2282.77 2909.79 2284.78 2912.27 2284.78Z" fill="black"/>
<path opacity="0.1" d="M2896.89 2319.64C2899.38 2319.64 2901.4 2317.63 2901.4 2315.14C2901.4 2312.66 2899.38 2310.64 2896.89 2310.64C2894.41 2310.64 2892.39 2312.66 2892.39 2315.14C2892.39 2317.63 2894.41 2319.64 2896.89 2319.64Z" fill="black"/>
<path opacity="0.1" d="M2849.63 2375.52C2852.11 2375.52 2854.13 2373.51 2854.13 2371.03C2854.13 2368.54 2852.11 2366.53 2849.63 2366.53C2847.14 2366.53 2845.13 2368.54 2845.13 2371.03C2845.13 2373.51 2847.14 2375.52 2849.63 2375.52Z" fill="black"/>
<path opacity="0.1" d="M2839.87 2353.41C2842.36 2353.41 2844.38 2351.39 2844.38 2348.91C2844.38 2346.43 2842.36 2344.41 2839.87 2344.41C2837.39 2344.41 2835.37 2346.43 2835.37 2348.91C2835.37 2351.39 2837.39 2353.41 2839.87 2353.41Z" fill="black"/>
<path opacity="0.1" d="M2816.62 2303.52C2819.1 2303.52 2821.12 2301.51 2821.12 2299.02C2821.12 2296.54 2819.1 2294.53 2816.62 2294.53C2814.13 2294.53 2812.12 2296.54 2812.12 2299.02C2812.12 2301.51 2814.13 2303.52 2816.62 2303.52Z" fill="black"/>
<path opacity="0.1" d="M2898.43 2529.96H2761.47V2543.11H2898.43V2529.96Z" fill="black"/>
<path d="M2918.65 2413.01H2739.72V2538.58H2918.65V2413.01Z" fill="#D4DFEC"/>
<path opacity="0.1" d="M2855.63 2395.77C2858.12 2395.77 2860.13 2393.75 2860.13 2391.27C2860.13 2388.78 2858.12 2386.77 2855.63 2386.77C2853.14 2386.77 2851.13 2388.78 2851.13 2391.27C2851.13 2393.75 2853.14 2395.77 2855.63 2395.77Z" fill="black"/>
<path opacity="0.1" d="M2828.62 2401.39C2831.11 2401.39 2833.12 2399.37 2833.12 2396.89C2833.12 2394.41 2831.11 2392.39 2828.62 2392.39C2826.14 2392.39 2824.12 2394.41 2824.12 2396.89C2824.12 2399.37 2826.14 2401.39 2828.62 2401.39Z" fill="black"/>
</g>
<defs>
<linearGradient id="paint0_linear_1_2" x1="781.423" y1="2023.54" x2="781.423" y2="338.955" gradientUnits="userSpaceOnUse">
<stop stop-color="#808080" stop-opacity="0.25"/>
<stop offset="0.54" stop-color="#808080" stop-opacity="0.12"/>
<stop offset="1" stop-color="#808080" stop-opacity="0.1"/>
</linearGradient>
<clipPath id="clip0_1_2">
<rect width="3115" height="2587" fill="white"/>
</clipPath>
</defs>
</svg>
