<svg width="3124" height="2031" viewBox="0 0 3124 2031" fill="none" xmlns="http://www.w3.org/2000/svg">
<g clip-path="url(#clip0_1_2)">
<path opacity="0.1" d="M3118.14 668.147H2829.9V941.463H3097.07C3097.76 944.283 3098.42 947.104 3099.2 949.899H2829.9V1170.27L2831.24 1169.93C2838.85 1167.83 2846.41 1165.61 2853.91 1163.26L2858.74 1161.71C2866.43 1159.24 2873.99 1156.6 2881.41 1153.79C2884.07 1152.83 2886.7 1151.83 2889.31 1150.8C2930.75 1134.83 2968.96 1114.18 3002.7 1089.49C3003.68 1088.83 3004.58 1088.14 3005.46 1087.48C3010.07 1083.99 3014.59 1080.49 3018.97 1076.88L3023.8 1072.86C3028.98 1068.47 3033.96 1063.93 3038.82 1059.35L3040.95 1057.34C3060.49 1038.6 3076.9 1018 3089.8 996.028C3090.2 995.366 3090.55 994.679 3090.92 994.017C3094.84 987.102 3098.39 980.088 3101.46 972.951C3102.78 969.935 3104.03 966.919 3105.13 963.902C3105.5 962.995 3105.85 962.112 3106.16 961.229C3122.15 917.454 3124 871.963 3124 826.717C3124 821.444 3124 816.147 3124 810.899C3124 792.629 3123.66 774.114 3123.22 755.844C3123.22 751.086 3122.93 746.353 3122.78 741.571C3122.4 729.423 3121.84 717.292 3121.08 705.178C3120.9 701.793 3120.71 698.434 3120.43 695.098C3120.43 693.161 3120.18 691.224 3120.02 689.286C3119.39 682.101 3118.83 675.136 3118.14 668.147Z" fill="#FFA100"/>
<path opacity="0.1" d="M2829.9 363.882H2988C2962.08 335.711 2933.97 308.815 2903.82 283.346C2880.31 263.286 2855.64 243.716 2829.8 224.882L2829.9 363.882Z" fill="#FFA100"/>
<path opacity="0.1" d="M2829.9 372.318V659.711H3117.23C3117.23 658.877 3117.04 658.019 3116.95 657.258C3116.7 655.002 3116.44 652.746 3116.16 650.465C3115.88 648.185 3115.5 645.168 3115.13 642.495C3114.75 639.822 3114.38 636.732 3113.94 633.887C3113.5 631.043 3113.12 628.124 3112.65 625.255C3112.18 622.386 3111.74 619.517 3111.24 616.672C3110.74 613.827 3110.27 610.933 3109.7 608.088C3109.27 605.636 3108.86 603.38 3108.39 601.001C3107.73 597.666 3107.04 594.306 3106.32 590.995C3106.24 590.501 3106.12 590.009 3105.97 589.524C3100.79 565.157 3093.73 541.056 3084.84 517.351C3075.45 492.237 3063.53 467.743 3049.2 444.099C3033.74 419.088 3015.81 395.063 2995.56 372.245L2829.9 372.318Z" fill="#FFA100"/>
<path opacity="0.1" d="M2145.38 668.147V941.463H2761.05V668.147H2145.38ZM2145.38 949.899V1134.98C2217.05 1117.05 2299 1124.29 2373.3 1139C2430.83 1150.43 2486.89 1165.98 2544.32 1177.16C2569.97 1182.29 2596.02 1186.14 2622.29 1188.69L2628.75 1189.23C2631.88 1189.47 2635.02 1189.72 2638.15 1189.91L2647.56 1190.43H2648.53H2652.73C2653.21 1190.45 2653.69 1190.45 2654.17 1190.43L2659.25 1190.57H2659.41C2661.82 1190.57 2664.27 1190.57 2666.71 1190.72H2669.85C2672.26 1190.72 2674.71 1190.72 2677.15 1190.72H2682.52H2686.84C2688.69 1190.72 2690.51 1190.72 2692.33 1190.57C2695.28 1190.57 2698.22 1190.38 2701.2 1190.21L2706.69 1189.94L2713.46 1189.52C2718.26 1189.23 2722.86 1188.83 2727.72 1188.39C2729.6 1188.22 2731.52 1188.05 2733.4 1187.83L2736.19 1187.56C2740.92 1187.07 2745.59 1186.48 2750.33 1185.87C2753.81 1185.45 2757.29 1184.93 2760.8 1184.44V949.899H2145.38ZM2603.29 363.784V372.22H2145.38V659.711H2761.05V372.318H2730.17V363.882H2761.05V178.14C2641.29 102.681 2501.31 43.5785 2345.4 16.2837C2279.74 4.91442 2212.63 -0.557036 2145.38 -0.0245017V363.882L2603.29 363.784ZM1195.63 362.165L1197.8 363.784H2076.5V2.50143C1920.06 12.6787 1767.51 53.7804 1644.52 121.883C1585.42 154.573 1532.34 193.32 1466.03 218.408C1431.24 231.913 1393.23 239.597 1354.43 240.969L1195.63 362.165ZM1189.58 213.944V295.731L1274.48 230.915C1242.91 222.381 1218.02 216.544 1189.46 214.042L1189.58 213.944ZM1186.76 1242.86H1189.58V1422.13C1221.62 1420.26 1253.54 1417.7 1285.33 1414.43C1427.48 1400.1 1566.78 1371.87 1699.94 1330.41C1714.24 1325.93 1728.43 1321.3 1742.52 1316.53C1751.9 1313.34 1761.24 1310.07 1770.52 1306.72C1784.44 1301.72 1798.25 1296.57 1811.96 1291.29C1872.64 1267.97 1931.16 1241.37 1987.12 1211.69C1990.6 1209.85 1994.11 1207.99 1997.56 1206.1C2004.5 1202.34 2011.38 1198.54 2018.22 1194.72C2021.64 1192.78 2025.05 1190.84 2028.44 1188.88L2035.4 1184.71C2042.42 1180.62 2049.41 1176.5 2056.5 1172.45C2063.05 1168.77 2069.67 1165.09 2076.38 1161.66V949.777H1370.51C1371.01 948.526 1371.48 947.324 1372.01 946C1371.45 947.275 1370.95 948.452 1370.48 949.777H1189.46V1242.81L1186.76 1242.86ZM1189.58 372.269V659.711H2076.5V372.318L1189.58 372.269ZM1189.58 668.098V941.463H2076.5V668.147L1189.58 668.098ZM1012.26 222.356L1120.61 305.074V213.577C1084.31 215.342 1048.19 218.269 1012.26 222.356ZM257.799 668.147V941.463H1120.61V668.147H257.799ZM466.346 1343.16C597.123 1382.1 733.858 1407.48 873.062 1418.64H873.658C899.972 1420.82 926.359 1422.5 952.819 1423.7H953.791C1009.25 1426.15 1064.93 1426.71 1120.52 1425.09V949.899H257.799L260.934 1264.59M18.8105 941.463H188.984V668.147H121.673C114.682 677.76 107.91 687.423 101.483 697.232C98.0345 702.447 94.6799 707.72 91.4194 713.05C47.1205 784.978 18.9673 864.042 18.8105 941.463ZM18.8105 949.899C20.19 1005.42 36.179 1059.91 71.2607 1110.26C100.417 1152.07 140.923 1188.74 188.858 1220.62V949.899H18.8105ZM127.849 659.711H188.858V588.592C166.869 611.383 146.542 635.127 127.975 659.711H127.849ZM510.112 363.882H1100.26L1102.39 362.263L1099.26 359.811L933.319 233.195C884.065 241.237 835.427 251.431 787.631 263.727C783.116 264.88 778.602 266.18 774.118 267.283C681.832 291.769 593.291 324.166 510.112 363.882ZM257.799 524.193V659.711H1014.49H1014.64H1120.7V380.141L1108.6 372.441H492.743C406.402 414.9 327.433 465.906 257.799 524.193Z" fill="#FFA100"/>
<path opacity="0.1" d="M2829.9 517.277V659.711H3117.23C3117.23 658.877 3117.04 658.019 3116.95 657.258C3116.7 655.002 3116.44 652.746 3116.16 650.465C3115.88 648.185 3115.5 645.168 3115.13 642.495C3114.75 639.822 3114.38 636.732 3113.94 633.887C3113.5 631.043 3113.12 628.124 3112.65 625.255C3112.18 622.386 3111.74 619.517 3111.24 616.672C3110.74 613.827 3110.27 610.933 3109.7 608.088C3109.27 605.636 3108.86 603.38 3108.39 601.001C3107.73 597.666 3107.04 594.306 3106.32 590.996C3106.24 590.501 3106.12 590.009 3105.97 589.524C3100.79 565.157 3093.73 541.056 3084.84 517.351L2829.9 517.277Z" fill="#FFA100"/>
<path opacity="0.1" d="M3118.14 668.147H2829.9V941.463H3097.07C3097.76 944.283 3098.42 947.104 3099.2 949.899H2829.9V1170.27L2831.24 1169.93C2838.85 1167.83 2846.41 1165.61 2853.91 1163.26L2858.74 1161.71C2866.43 1159.24 2873.99 1156.6 2881.41 1153.79C2884.07 1152.83 2886.7 1151.83 2889.31 1150.8C2930.75 1134.83 2968.96 1114.18 3002.7 1089.49C3003.68 1088.83 3004.58 1088.14 3005.46 1087.48C3010.07 1083.99 3014.59 1080.49 3018.97 1076.88L3023.8 1072.86C3028.98 1068.47 3033.96 1063.93 3038.82 1059.35L3040.95 1057.34C3060.49 1038.6 3076.9 1018 3089.8 996.028C3090.2 995.366 3090.55 994.679 3090.92 994.017C3094.84 987.102 3098.39 980.088 3101.46 972.951C3102.78 969.935 3104.03 966.919 3105.13 963.902C3105.5 962.995 3105.85 962.112 3106.16 961.229C3122.15 917.454 3124 871.963 3124 826.717C3124 821.444 3124 816.147 3124 810.899C3124 792.629 3123.66 774.114 3123.22 755.844C3123.22 751.086 3122.93 746.353 3122.78 741.571C3122.4 729.423 3121.84 717.292 3121.08 705.178C3120.9 701.793 3120.71 698.434 3120.43 695.098C3120.43 693.161 3120.18 691.224 3120.02 689.286C3119.39 682.101 3118.83 675.136 3118.14 668.147Z" fill="#FFA100"/>
<path opacity="0.1" d="M2544.32 413.469V659.711H2761.05V413.469H2730.17V330.088H2603.29V413.469H2544.32Z" fill="#FFA100"/>
<path opacity="0.1" d="M2761.05 668.147H2544.32V941.439H2761.05V668.147Z" fill="#FFA100"/>
<path opacity="0.1" d="M2761.05 949.899H2544.35V1177.16C2570 1182.28 2596.03 1186.13 2622.29 1188.69L2628.75 1189.23C2631.88 1189.5 2635.02 1189.72 2638.15 1189.91L2647.56 1190.43C2647.87 1190.43 2648.22 1190.43 2648.53 1190.43C2649.91 1190.43 2651.32 1190.43 2652.73 1190.57H2654.17C2655.87 1190.57 2657.56 1190.57 2659.28 1190.72C2661.7 1190.72 2664.14 1190.72 2666.59 1190.87H2669.72C2672.17 1190.87 2674.58 1190.87 2677.03 1190.87H2682.39H2686.72L2692.23 1190.72C2695.15 1190.72 2698.13 1190.53 2701.08 1190.35L2706.53 1190.08L2713.33 1189.67C2718.1 1189.35 2722.74 1188.98 2727.57 1188.54L2733.24 1187.97L2736.03 1187.71C2740.77 1187.19 2745.44 1186.65 2750.17 1186.01C2753.68 1185.6 2757.13 1185.08 2760.64 1184.59L2761.05 949.899Z" fill="#FFA100"/>
<path opacity="0.1" d="M1368.19 384.384H1189.46V659.686H1368.19V384.384Z" fill="#FFA100"/>
<path opacity="0.1" d="M1189.46 668.147V941.463H2076.5V823.578H1604.01V893.127H1368.16V668.147H1189.46Z" fill="#FFA100"/>
<path opacity="0.1" d="M1186.63 1242.96H1189.46V1422.25C1221.5 1420.35 1253.41 1417.79 1285.2 1414.55C1427.4 1400.16 1566.73 1371.9 1699.94 1330.41C1738.07 1318.44 1775.41 1305.41 1811.96 1291.32C1872.64 1267.98 1931.16 1241.38 1987.12 1211.69C2001.1 1204.27 2014.86 1196.67 2028.41 1188.91C2037.81 1183.49 2047.22 1177.97 2056.62 1172.6C2063.18 1168.92 2069.79 1165.24 2076.5 1161.78V949.899H1370.54C1371.04 948.649 1371.51 947.447 1372.01 946.147C1371.48 947.398 1370.95 948.599 1370.48 949.899H1189.46V1242.83L1186.63 1242.96Z" fill="#FFA100"/>
<path opacity="0.1" d="M723.361 363.882H839.799V338.647H787.631V263.727C783.116 264.88 778.602 266.18 774.118 267.283V338.647H723.361V363.882Z" fill="#FFA100"/>
<path opacity="0.1" d="M442.77 659.711H1014.49H1014.3H1014.58H1120.61V384.384H1090.58V587.93H953.258V467.47H839.799V372.318H723.361V467.47H609.933V587.906H442.77V659.711Z" fill="#FFA100"/>
<path opacity="0.1" d="M442.77 668.147V941.463H1120.61V668.147H442.77ZM466.44 1343.16C597.217 1382.1 733.952 1407.48 873.156 1418.64H873.752C900.066 1420.82 926.453 1422.5 952.913 1423.7H953.885C1009.34 1426.15 1065.02 1426.71 1120.61 1425.09V949.899H442.77V1046.79H257.799L258.771 1263.12" fill="#FFA100"/>
<path opacity="0.1" d="M177.039 949.899H18.936C20.3155 1005.42 36.3358 1059.91 71.3862 1110.26C100.543 1152.1 141.079 1188.74 188.984 1220.62V1046.79H177.039V949.899Z" fill="#FFA100"/>
<path opacity="0.1" d="M18.8105 941.463H177.039V713.05H91.4194C47.1205 784.978 18.9673 864.042 18.8105 941.463Z" fill="#FFA100"/>
<path opacity="0.1" d="M1285.2 460.922H1189.46V547.245H1285.2V460.922Z" fill="#FFA100"/>
<path opacity="0.1" d="M1285.2 639.847H1189.46V659.711H1285.2V639.847Z" fill="#6C63FF"/>
<path opacity="0.1" d="M1285.2 668.147H1189.46V726.145H1285.2V668.147Z" fill="#6C63FF"/>
<path opacity="0.1" d="M1285.2 818.747H1189.46V905.07H1285.2V818.747Z" fill="#6C63FF"/>
<path opacity="0.1" d="M1285.2 997.671H1189.46V1083.99H1285.2V997.671Z" fill="#6C63FF"/>
<path opacity="0.1" d="M1189.46 1242.83V1262.87H1285.2V1176.55H1189.46V1242.83Z" fill="#FFA100"/>
<path opacity="0.1" d="M1189.46 1355.47V1422.15C1221.5 1420.25 1253.41 1417.69 1285.2 1414.45V1355.59L1189.46 1355.47Z" fill="#FFA100"/>
<path opacity="0.1" d="M2076.5 935.112H1666.18V941.439H2076.5V935.112Z" fill="#6C63FF"/>
<path opacity="0.1" d="M2076.5 949.899H1666.18V974.202H2076.5V949.899Z" fill="#FFA100"/>
<path opacity="0.1" d="M2076.5 1053.85H1666.18V1092.95H2076.5V1053.85Z" fill="#6C63FF"/>
<path opacity="0.1" d="M1666.18 1172.6V1211.69H1987.15C2001.09 1204.28 2014.85 1196.68 2028.44 1188.88C2037.85 1183.49 2047.25 1177.97 2056.66 1172.62L1666.18 1172.6Z" fill="#6C63FF"/>
<path opacity="0.1" d="M1666.18 1291.32V1330.41H1699.94C1738.05 1318.47 1775.37 1305.44 1811.93 1291.32H1666.18Z" fill="#FFA100"/>
<path opacity="0.1" d="M873.125 750.841H953.885V694.657H873.125V750.841Z" fill="#6C63FF"/>
<path opacity="0.1" d="M2622.07 489.026H2702.83V432.842H2622.07V489.026Z" fill="#FFA100"/>
<path opacity="0.1" d="M2622.07 619.541H2702.83V563.357H2622.07V619.541Z" fill="#FFA100"/>
<path opacity="0.1" d="M2622.07 750.031H2702.83V693.848H2622.07V750.031Z" fill="#FFA100"/>
<path opacity="0.1" d="M2622.07 880.546H2702.83V824.363H2622.07V880.546Z" fill="#FFA100"/>
<path opacity="0.1" d="M2622.07 1011.09H2702.83V954.902H2622.07V1011.09Z" fill="#FFA100"/>
<path opacity="0.1" d="M2622.07 1141.58H2702.83V1085.39H2622.07V1141.58Z" fill="#FFA100"/>
<path opacity="0.1" d="M564.757 750.841H645.517V694.657H564.757V750.841Z" fill="#FFA100"/>
<path opacity="0.1" d="M873.125 889.399H953.885V833.216H873.125V889.399Z" fill="#6C63FF"/>
<path opacity="0.1" d="M564.757 889.399H645.517V833.216H564.757V889.399Z" fill="#FFA100"/>
<path opacity="0.1" d="M873.125 1027.98H953.885V971.799H873.125V1027.98Z" fill="#6C63FF"/>
<path opacity="0.1" d="M564.757 1027.98H645.517V971.799H564.757V1027.98Z" fill="#6C63FF"/>
<path opacity="0.1" d="M873.125 1166.57H953.885V1110.38H873.125V1166.57Z" fill="#6C63FF"/>
<path opacity="0.1" d="M564.757 1166.57H645.517V1110.38H564.757V1166.57Z" fill="#6C63FF"/>
<path opacity="0.1" d="M873.125 1305.17H953.885V1248.99H873.125V1305.17Z" fill="#6C63FF"/>
<path opacity="0.1" d="M564.757 1305.17H645.517V1248.99H564.757V1305.17Z" fill="#6C63FF"/>
<path opacity="0.1" d="M953.854 1423.79V1387.57H873.125V1418.64L953.854 1423.79Z" fill="#6C63FF"/>
<path opacity="0.1" d="M2829.9 589.426V621.576H3106.32V589.426H2829.9ZM3078.79 591.461H3101.33V619.566H3078.67L3078.79 591.461ZM3051.27 591.461H3073.93V619.566H3051.17L3051.27 591.461ZM3023.8 591.461H3046.47V619.566H3023.8V591.461ZM2996.28 591.461H3018.94V619.566H2996.28V591.461ZM2968.78 591.461H2991.6V619.566H2968.94L2968.78 591.461ZM2941.26 591.461H2963.92V619.566H2941.26V591.461ZM2913.73 591.461H2936.4V619.566H2913.73V591.461ZM2886.23 591.461H2908.9V619.566H2886.23V591.461ZM2858.74 591.461H2881.41V619.566H2858.74V591.461ZM2831.24 591.461H2853.91V619.566H2831.24V591.461Z" fill="#FFA100"/>
<path opacity="0.1" d="M2829.9 683.008V715.159H3106.32V683.008H2829.9ZM3078.79 685.044H3101.33V713.123H3078.67L3078.79 685.044ZM3051.27 685.044H3073.93V713.123H3051.17L3051.27 685.044ZM3023.8 685.044H3046.47V713.123H3023.8V685.044ZM2996.28 685.044H3018.94V713.123H2996.28V685.044ZM2968.78 685.044H2991.6V713.123H2968.94L2968.78 685.044ZM2941.26 685.044H2963.92V713.123H2941.26V685.044ZM2913.73 685.044H2936.4V713.123H2913.73V685.044ZM2886.23 685.044H2908.9V713.123H2886.23V685.044ZM2858.74 685.044H2881.41V713.123H2858.74V685.044ZM2831.24 685.044H2853.91V713.123H2831.24V685.044Z" fill="#FFA100"/>
<path opacity="0.1" d="M2829.9 776.566V808.692H3106.32V776.566H2829.9ZM3078.79 778.577H3101.33V806.681H3078.67L3078.79 778.577ZM3051.27 778.577H3073.93V806.681H3051.17L3051.27 778.577ZM3023.8 778.577H3046.47V806.681H3023.8V778.577ZM2996.28 778.577H3018.94V806.681H2996.28V778.577ZM2968.78 778.577H2991.6V806.681H2968.94L2968.78 778.577ZM2941.26 778.577H2963.92V806.681H2941.26V778.577ZM2913.73 778.577H2936.4V806.681H2913.73V778.577ZM2886.23 778.577H2908.9V806.681H2886.23V778.577ZM2858.74 778.577H2881.41V806.681H2858.74V778.577ZM2831.24 778.577H2853.91V806.681H2831.24V778.577Z" fill="#FFA100"/>
<path opacity="0.1" d="M2829.9 870.124V902.25H3106.32V870.124H2829.9ZM3078.79 872.135H3101.33V900.239H3078.67L3078.79 872.135ZM3051.27 872.135H3073.93V900.239H3051.17L3051.27 872.135ZM3023.8 872.135H3046.47V900.239H3023.8V872.135ZM2996.28 872.135H3018.94V900.239H2996.28V872.135ZM2968.78 872.135H2991.6V900.239H2968.94L2968.78 872.135ZM2941.26 872.135H2963.92V900.239H2941.26V872.135ZM2913.73 872.135H2936.4V900.239H2913.73V872.135ZM2886.23 872.135H2908.9V900.239H2886.23V872.135ZM2858.74 872.135H2881.41V900.239H2858.74V872.135ZM2831.24 872.135H2853.91V900.239H2831.24V872.135Z" fill="#FFA100"/>
<path opacity="0.1" d="M2829.9 963.682V995.881H3089.8C3090.17 995.219 3090.55 994.532 3090.89 993.87H3078.79V965.717H3101.33V972.706C3102.65 969.714 3103.9 966.722 3105 963.682H2829.9ZM3051.27 965.717H3073.93V993.797H3051.17L3051.27 965.717ZM3023.8 965.717H3046.47V993.797H3023.8V965.717ZM2996.28 965.717H3018.94V993.797H2996.28V965.717ZM2968.78 965.717H2991.6V993.797H2968.94L2968.78 965.717ZM2941.26 965.717H2963.92V993.797H2941.26V965.717ZM2913.73 965.717H2936.4V993.797H2913.73V965.717ZM2886.23 965.717H2908.9V993.797H2886.23V965.717ZM2858.74 965.717H2881.41V993.797H2858.74V965.717ZM2831.24 965.717H2853.91V993.797H2831.24V965.717Z" fill="#FFA100"/>
<path opacity="0.1" d="M2829.9 1057.19V1089.32H3002.67C3003.68 1088.65 3004.55 1087.94 3005.46 1087.31H2996.28V1059.27H3018.94V1076.81L3023.8 1072.76V1059.27H3038.82C3039.54 1058.59 3040.23 1057.9 3040.95 1057.26L2829.9 1057.19ZM2968.78 1059.2H2991.6V1087.31H2968.94L2968.78 1059.2ZM2941.26 1059.2H2963.92V1087.31H2941.26V1059.2ZM2913.73 1059.2H2936.4V1087.31H2913.73V1059.2ZM2886.23 1059.2H2908.9V1087.31H2886.23V1059.2ZM2858.74 1059.2H2881.41V1087.31H2858.74V1059.2ZM2831.24 1059.2H2853.91V1087.31H2831.24V1059.2Z" fill="#FFA100"/>
<path opacity="0.1" d="M2829.9 1150.82V1170.27C2830.36 1170.17 2830.81 1170.05 2831.24 1169.9V1152.73H2853.91V1163.18L2858.74 1161.64V1152.83H2881.41V1153.81C2884.07 1152.86 2886.7 1151.85 2889.31 1150.85L2829.9 1150.82Z" fill="#FFA100"/>
<path opacity="0.1" d="M1370.48 949.899C1370.98 948.648 1371.45 947.447 1371.98 946.123C1371.45 947.398 1370.95 948.648 1370.48 949.899ZM2603.29 363.882V372.318H2730.17V363.882H2603.29ZM1370.48 949.899C1370.98 948.648 1371.45 947.447 1371.98 946.123C1371.45 947.398 1370.95 948.648 1370.48 949.899ZM1370.48 949.899C1370.98 948.648 1371.45 947.447 1371.98 946.123C1371.45 947.398 1370.95 948.648 1370.48 949.899Z" fill="#FFA100"/>
<path opacity="0.1" d="M2830.84 2021.78C2890.71 2021.78 2939.25 2017.57 2939.25 2012.39C2939.25 2007.2 2890.71 2002.99 2830.84 2002.99C2770.96 2002.99 2722.43 2007.2 2722.43 2012.39C2722.43 2017.57 2770.96 2021.78 2830.84 2021.78Z" fill="#6C63FF"/>
<path d="M2095.25 1312.63L2041.07 1310.3L2037.41 1188.59L2036.56 1159.6L2093.71 1151.36L2094.09 1188.74L2095.25 1312.63Z" fill="#D48A9B"/>
<path d="M2053.08 1291.44L1774.69 1426.84L1768.67 1468.03L1798.76 1469.21V1439.78L1980.85 1359.74L1761.14 1572.8V1605.76H1797.26L1794.25 1569.27L2048.57 1343.26L2080.17 1345.61L2348.06 1583.39L2354.08 1623.44L2390.2 1624.62L2384.18 1583.39L2172 1376.22L2313.45 1452.73L2316.46 1485.69L2345.05 1486.87L2342.04 1446.85L2072.64 1284.38L2053.08 1291.44Z" fill="#E1DEE5"/>
<path d="M1703.33 1059.86C1729.62 1034.28 1751.66 1006.18 1768.92 976.262C1788.07 943.106 1809.08 904.825 1810.68 893.495C1813.81 872.306 1890.43 829.929 1974.7 827.575C2029.66 826.03 2115.28 792.482 2168.27 769.307C2218.1 747.141 2273.53 733.75 2330.66 730.069C2392.64 726.415 2450.93 735.93 2421.58 792.188L2027.5 1165.49C2027.5 1165.49 1691.42 1211.81 1670.69 1137.33C1669.53 1133.58 1667.93 1129.92 1665.9 1126.4C1661.98 1119.36 1660.94 1100.99 1703.33 1059.86Z" fill="#FFA100"/>
<path opacity="0.2" d="M1732.93 1067.27C1759.39 1041.4 1781.64 1013.07 1799.17 982.908C1817.04 951.91 1836.01 917.16 1837.51 906.639C1840.4 886.407 1913.82 845.919 1994.46 843.663C2047.03 842.191 2128.95 810.163 2179.61 788.019C2227.34 766.875 2280.38 754.121 2335.05 750.645C2394.34 747.162 2450.11 756.26 2422.15 809.992L2109.54 1168.04C2109.54 1168.04 1723.93 1210.83 1703.52 1140.03C1702.31 1136.27 1700.7 1132.6 1698.72 1129.04C1695.15 1122.03 1694.65 1104.84 1732.93 1067.27Z" fill="#DDA2A6"/>
<path opacity="0.1" d="M2094.09 1188.74C2075.97 1188.74 2056.88 1188.74 2037.41 1188.59L2036.56 1159.6L2093.71 1151.39L2094.09 1188.74Z" fill="black"/>
<g opacity="0.1">
<path d="M2313.45 1445.67L2172 1369.16L2188.2 1384.97L2313.45 1452.73L2316.46 1485.69L2345.05 1486.87L2344.52 1479.78L2316.46 1478.63L2313.45 1445.67Z" fill="black"/>
<path d="M1798.76 1432.72V1439.78L1967.52 1365.6L1980.85 1352.68L1798.76 1432.72Z" fill="black"/>
<path d="M1761.14 1598.7V1605.76H1797.26L1796.66 1598.7H1761.14Z" fill="black"/>
<path d="M1798.76 1462.15L1769.67 1461.02L1768.67 1468.03L1798.76 1469.21V1462.15Z" fill="black"/>
<path d="M2354.08 1616.38L2348.06 1576.33L2080.17 1338.55L2048.57 1336.2L1794.25 1562.21L1794.78 1568.8L2048.57 1343.26L2080.17 1345.61L2348.06 1583.39L2354.08 1623.44L2390.2 1624.62L2389.16 1617.51L2354.08 1616.38Z" fill="black"/>
</g>
<path opacity="0.1" d="M2062.11 956.79C2062.11 956.79 2132.59 997.107 2101.74 997.573C2070.89 998.039 2062.11 956.79 2062.11 956.79Z" fill="black"/>
<path d="M1766.41 1177.36C1766.41 1177.36 1883.03 1170.29 1926.67 1104.37C1926.67 1104.37 2015.46 966.624 2087.72 951.322C2159.99 936.019 2293.89 901.882 2349.57 848.911C2405.25 795.94 2428.6 755.329 2428.6 755.329C2428.6 755.329 2442.96 798.196 2397.72 848.739C2352.48 899.282 2336.02 977.12 2304.42 1059.64C2272.82 1142.16 2260.78 1174.9 2203.6 1179.81C2160.49 1183.36 1932.57 1181.57 1823.59 1179.81C1787.95 1179.05 1766.41 1177.36 1766.41 1177.36Z" fill="#996100"/>
<path opacity="0.2" d="M1766.41 1177.36C1766.41 1177.36 1883.03 1170.29 1926.67 1104.37C1926.67 1104.37 2015.46 966.624 2087.72 951.322C2159.99 936.019 2293.89 901.882 2349.57 848.911C2405.25 795.94 2428.6 755.329 2428.6 755.329C2428.6 755.329 2442.96 798.196 2397.72 848.739C2352.48 899.282 2336.02 977.12 2304.42 1059.64C2272.82 1142.16 2260.78 1174.9 2203.6 1179.81C2160.49 1183.36 1932.57 1181.57 1823.59 1179.81C1787.95 1179.05 1766.41 1177.36 1766.41 1177.36Z" fill="#FFA100"/>
<path d="M1795.75 1177.36C1795.75 1177.36 1907.24 1170.51 1948.93 1106.68C1948.93 1106.68 2033.83 973.319 2102.87 958.507C2171.9 943.695 2299.94 910.612 2353.17 859.333C2406.41 808.054 2428.7 768.718 2428.7 768.718C2428.7 768.718 2442.34 810.409 2399.2 859.333C2356.06 908.258 2340.23 983.57 2310 1063.37C2279.78 1143.17 2268.31 1175.08 2213.63 1179.64C2172.43 1183.07 1954.58 1181.33 1850.4 1179.64C1816.35 1179.12 1795.75 1177.36 1795.75 1177.36Z" fill="#FFA100"/>
<path opacity="0.1" d="M1705.46 1143.02C1705.46 1143.02 1766.41 1161.27 1801.02 1151.26C1835.63 1141.26 1921.41 1111.83 1921.41 1111.83C1921.41 1111.83 1776.94 1118.99 1705.46 1143.02Z" fill="black"/>
<path d="M2112.96 1999.76C2112.96 1999.76 1937.77 1992.4 1895.07 1972.78C1852.37 1953.16 1791.93 1953.16 1791.61 1953.16L1094.06 1834.22L804.059 1780.27L752.329 1774.95L923.192 1622.02L928.397 1620.25L1180.27 1535.03C1180.27 1535.03 1293.13 1539.94 1315.42 1597.47C1316.95 1601.52 1318 1605.68 1318.56 1609.88C1320.9 1627.82 1314.54 1645.8 1300.75 1660.25C1291.85 1669.77 1280.91 1683.28 1277.46 1695.17C1275.51 1701.89 1275.95 1708.1 1280.59 1712.83C1290 1720.13 1300.38 1726.62 1311.57 1732.18C1372.98 1764.06 1528.23 1816.59 1799.45 1736.13C1799.45 1736.13 1915.45 1646.62 2003.23 1684.63C2091.02 1722.64 2112.96 1999.76 2112.96 1999.76Z" fill="#E1DEE5"/>
<path opacity="0.1" d="M1277.58 1695.17C1275.64 1701.89 1276.08 1708.1 1280.72 1712.83C1290.12 1720.13 1300.51 1726.62 1311.69 1732.18L783.68 1763.1L928.397 1620.25L1180.27 1535.03C1180.27 1535.03 1293.13 1539.94 1315.42 1597.47C1316.95 1601.52 1318 1605.68 1318.56 1609.88C1320.9 1627.82 1314.54 1645.8 1300.75 1660.25C1291.97 1669.77 1281.03 1683.28 1277.58 1695.17Z" fill="black"/>
<path d="M761.735 1132.85L1194.38 1140.2V1545.31L783.68 1763.1L684.925 1691.98L705.303 1456.56L684.925 1237.07L761.735 1132.85Z" fill="#A06500"/>
<path d="M515.63 1066.63L1020.76 944.872C1029.83 942.7 1039.35 941.869 1048.82 942.42L2255.52 1011.31C2358.73 1016.85 2458.06 1044.25 2542.88 1090.59C2620.97 1133.68 2698.32 1199.82 2734.12 1299.97C2760.02 1373.88 2758.22 1452.05 2728.95 1525.18L2622.35 1794.94C2622.35 1794.94 2702.3 1208.82 1904.42 1179.39L515.63 1066.63Z" fill="#D9D6DF"/>
<path d="M783.68 1124.26V1774.95C783.68 1774.95 645.266 1759.72 620.655 1738.58C600.465 1721.24 483.495 1672.37 432.738 1622.02C421.608 1610.98 413.645 1599.95 410.604 1588.99C393.612 1528.46 324.389 1385.44 324.389 1385.44L343.199 1245.65L421.577 1154.92L573.629 1100.96H691.195L783.68 1124.26Z" fill="#FFA100"/>
<path d="M564.224 1132.85C564.224 1132.85 339.249 1243.2 388.47 1420.78C392.483 1435.25 395.963 1449.79 398.252 1464.5C407.249 1521.94 461.236 1686.98 783.681 1763.1V1780.27L646.896 1750.42L554.035 1710.38L483.15 1660.64L396.496 1577.95L356.273 1510.51L341.538 1421.69L333.042 1320.28L353.765 1233.29L402.641 1176.69L462.208 1140.47L564.224 1132.85Z" fill="#D9D6DF"/>
<path opacity="0.1" d="M783.681 1124.26V1227.78C685.552 1236.11 381.73 1284.18 435.685 1558.85L432.706 1621.92C421.577 1610.89 413.614 1599.85 410.573 1588.89C393.58 1528.36 324.357 1385.34 324.357 1385.34L343.168 1245.56L421.545 1154.82L573.598 1100.87H691.164L783.681 1124.26Z" fill="black"/>
<path opacity="0.1" d="M1300.88 1660.25C1291.97 1669.77 1281.03 1683.28 1277.58 1695.17C1263.91 1682.91 1260.97 1668.81 1280.72 1657.65C1305.45 1643.58 1313.7 1619.15 1315.55 1597.47C1317.08 1601.52 1318.12 1605.68 1318.69 1609.88C1321.02 1627.82 1314.67 1645.8 1300.88 1660.25Z" fill="white"/>
<path d="M2567.55 1726.32L2507.98 1884.5L2373.18 1987.49L2203.88 2014.47L1940.53 1977.69V1245.65C1940.53 1245.65 1985.99 1222.36 1990.69 1222.36C1995.4 1222.36 2122.37 1238.3 2122.37 1238.3L2409.86 1399.59L2421.77 1406.28L2550.31 1555.88L2567.55 1726.32Z" fill="#FFA100"/>
<path d="M1940.53 1215V1977.69L1965.93 1981.24V1215H1940.53Z" fill="#D48600"/>
<path opacity="0.1" d="M2415.5 1450.43C2227.39 1329.53 2018.28 1311.75 1940.53 1309.54V1245.78C1940.53 1245.78 1985.99 1222.48 1990.69 1222.48C1995.4 1222.48 2122.37 1238.42 2122.37 1238.42L2409.86 1399.71L2415.5 1450.43Z" fill="black"/>
<path d="M1900.81 1165.95L722.546 1065.41L590.12 1059.91C548.851 1058.05 507.581 1063.56 469.442 1076.03C431.303 1088.5 397.297 1107.6 370.004 1131.89C301.032 1193.93 248.896 1303.38 325.047 1491.31C325.047 1491.31 404.459 1734.9 789.042 1787.23L1906.52 1985.31C1931.28 1989.7 1955.74 1995.12 1979.88 2001.28C2081.33 2027.35 2425.06 2094.88 2586.99 1865.29C2642.48 1786.57 2659.1 1694.78 2637.72 1606.42C2598.75 1444.81 2451.62 1170.56 1900.81 1165.95ZM2478.08 1854.8C2326.96 2047.36 2015.59 1990.05 1921.97 1967.43C1899.05 1961.89 1875.85 1957.06 1852.37 1953.14L820.11 1780.39C464.465 1734.71 391.01 1522.01 391.01 1522.01C330.972 1382.23 357.213 1292.03 405.745 1234.94C456.564 1175.17 545.037 1141.75 636.707 1145.38L758.725 1150.28L1812.62 1260.42C1833.94 1262.65 1855.41 1264.12 1876.92 1264.68C2345.59 1277.12 2491.4 1478.7 2528.46 1617.63C2550.21 1698.83 2533.66 1784.02 2478.08 1854.8Z" fill="#E1DEE5"/>
<path d="M13.2615 1575.77C51.8546 1595.98 110.45 1586.36 110.45 1586.36C110.45 1586.36 198.828 1553.62 224.943 1553.62C251.059 1553.62 314.576 1533.39 314.576 1533.39L312.413 1519.76L305.954 1478.68C346.178 1503.2 390.884 1494.74 412.892 1492.95C436.531 1491.04 562.844 1432.3 575.008 1428.43C578.3 1427.4 582.156 1424.04 586.075 1419.7C594.212 1409.97 601.361 1399.75 607.457 1389.14C615.357 1383.7 621.126 1379.33 620.718 1378.38C620.311 1377.42 623.853 1370.26 628.462 1362.19C646.395 1359.74 661.851 1354.54 666.773 1351.4C670.818 1348.87 674.056 1345.64 676.232 1341.96C678.408 1338.28 679.463 1334.26 679.313 1330.21C679.313 1330.21 802.554 1232.98 786.345 1192.54C770.137 1152.1 826.192 1151.12 826.192 1151.12C826.192 1151.12 912.063 1122.23 924.008 1104.91C931.375 1094.25 995.801 1070.83 1044.27 1054.39L1050.23 1052.38C1069.04 1084.63 1164.59 1059.74 1183.41 1046.18C1203.31 1031.73 1261.78 1024.99 1261.78 1024.99C1261.78 1024.99 1264.29 836.159 1282.94 812.174C1291.82 800.771 1293.95 763.495 1293.73 727.494C1293.73 726.219 1293.73 725.042 1293.73 723.669C1319.88 719.671 1382.08 710.426 1410.95 708.194C1429.26 706.772 1448.35 697.845 1462.99 689.164L1464.72 690.856C1469.75 692.472 1475.19 693.168 1480.61 692.891C1485.42 693.313 1490.28 692.604 1494.56 690.856C1505.79 685.951 1546.86 676.411 1561.78 671.605C1576.7 666.798 1559.3 632.122 1548.11 625.378C1536.92 618.634 1529.3 609.977 1535.57 606.127C1541.84 602.276 1520.65 592.639 1508.2 590.701C1495.76 588.764 1458.42 575.3 1458.42 575.3C1458.42 575.3 1444.72 553.229 1422.33 553.229C1399.95 553.229 1370.04 535.891 1370.04 535.891C1368.82 528.19 1345.15 527.234 1345.15 527.234C1345.15 527.234 1255.54 473.282 1240.59 480.051C1225.64 486.819 1184.6 469.456 1184.6 469.456C1184.6 469.456 1134.22 473.871 1122.37 466.612C1122.26 464.228 1121.16 461.937 1119.23 460.088C1116.57 453.565 1103.55 444.638 1091.01 437.208C1091.97 432.602 1092.46 427.944 1092.46 423.278C1092.46 421.267 1092.46 419.256 1092.17 417.27C1092.17 416.927 1092.17 416.608 1092.17 416.265L1093.96 402.703C1094.08 398.243 1095.57 393.871 1098.29 389.951C1100.39 387.498 1103.49 385.414 1105.84 382.986C1106.39 382.414 1106.89 381.816 1107.35 381.196L1107.72 380.681C1108.07 380.211 1108.38 379.728 1108.66 379.234L1108.95 378.743C1109.64 377.411 1110.17 376.032 1110.55 374.623V374.305C1110.7 373.667 1110.83 373.029 1110.92 372.367C1110.91 372.278 1110.91 372.187 1110.92 372.097C1111.44 366.495 1110.48 360.869 1108.1 355.568C1104.37 346.47 1098.54 337.691 1097.91 328.2C1097.6 323.492 1098.6 318.685 1097.28 314.074C1094.15 303.554 1080.45 296.908 1067.12 292.494C1048.72 286.461 1039.44 279.864 1024.68 270.888C1012.14 263.286 991.381 267.112 975.58 267.896C939.464 269.711 903.818 278.221 869.833 287C856.634 290.434 843.185 294.357 832.902 301.347C825.979 305.953 821.223 312.237 819.389 319.2C819.033 320.819 818.897 322.463 818.982 324.105C818.982 324.252 818.982 324.399 818.982 324.522C818.982 325.159 818.982 325.772 819.264 326.385C819.246 326.589 819.246 326.794 819.264 326.998C819.419 327.747 819.65 328.485 819.954 329.206C821.396 332.761 824.061 335.974 825.597 339.506C825.945 340.308 826.227 341.127 826.443 341.958C826.443 341.958 826.443 342.13 826.443 342.203C826.663 342.988 826.82 343.748 826.945 344.655C828.324 353.41 824.186 362.558 822.368 371.484C822.117 372.735 821.929 373.937 821.803 375.31C821.26 380.475 821.843 385.674 823.528 390.686C823.514 390.743 823.514 390.801 823.528 390.858C823.716 391.471 823.998 392.084 824.249 392.673C824.334 392.939 824.439 393.201 824.562 393.458C824.782 393.973 825.064 394.488 825.315 394.978L825.848 396.008C826.098 396.449 826.381 396.891 826.663 397.332C826.945 397.774 827.133 398.068 827.384 398.411C827.64 398.815 827.923 399.207 828.23 399.588C828.513 399.981 828.826 400.349 829.139 400.717C829.453 401.084 829.735 401.428 830.08 401.771C830.425 402.114 830.801 402.531 831.177 402.899L832.149 403.831L833.466 404.91L834.501 405.719L836.037 406.749C836.413 406.97 836.726 407.215 837.103 407.411C837.479 407.608 838.388 408.123 839.046 408.442L839.956 408.932C840.959 409.398 842.025 409.815 843.091 410.207C850.239 412.66 859.268 413.665 863.563 418.594C864.587 419.745 865.302 421.047 865.663 422.42C865.663 422.739 865.663 423.082 865.663 423.401V424.259C865.663 427.104 865.914 429.924 866.29 432.695C866.263 434.22 866.378 435.745 866.635 437.257C866.844 438.397 867.245 439.51 867.827 440.567C872.844 459.947 886.105 477.425 905.448 490.154C905.824 491.65 906.263 493.391 906.733 495.353C895.78 501.783 883.545 506.754 870.523 510.068C840.645 516.91 798.416 548.472 798.416 548.472C798.416 548.472 777.41 666.896 772.363 681.341C767.315 695.785 763.585 751.65 763.585 751.65C763.585 751.65 758.6 774.751 751.044 786.302C745.746 794.444 746.718 829.439 761.453 850.701C759.05 854.882 755.974 858.805 752.298 862.374C722.421 889.35 632.788 888.369 602.911 888.369C575.416 888.369 566.92 901.416 565.76 903.476C511.052 915.738 333.919 955.172 312.914 962.333C288.022 970.843 274.321 1054.93 274.321 1054.93C274.321 1054.93 222.31 1194.52 224.787 1212.82C227.263 1231.11 207.355 1282.07 207.355 1282.07C207.355 1282.07 207.355 1339.68 198.922 1343.58C198.849 1343.63 198.764 1343.67 198.671 1343.7C189.956 1346.59 191.178 1374.53 191.178 1374.53C191.178 1374.53 197.605 1375.97 207.606 1377.96C204.941 1392.06 195.066 1411.8 187.448 1425.83C183.56 1421.98 179.767 1420.39 177.509 1424.85C171.239 1437.11 77.9386 1523.78 54.2686 1523.78C43.0136 1523.78 24.3911 1530.99 12.1329 1540.72C-1.28535 1551.44 -6.99123 1565.2 13.2615 1575.77ZM441.359 1074.09C547.169 1081.79 660.44 1068.23 660.44 1068.23C660.44 1068.23 651.724 1092.38 644.263 1102.02C636.801 1111.66 615.608 1166.54 615.608 1178.04C615.608 1189.54 582 1288.77 572.061 1293.57C567.892 1295.61 564.161 1300.66 561.214 1305.84C558.597 1310.62 556.397 1315.53 554.63 1320.55C554.777 1323.05 555.059 1325.43 555.477 1327.69C548.047 1333.01 540.177 1338.6 533.186 1343.55C533.186 1343.55 488.668 1362.93 473.619 1373.52C458.571 1384.12 388.972 1397.11 388.972 1397.11C371.715 1402.92 354.959 1409.59 338.81 1417.1C317.209 1427.28 295.608 1440.23 289.965 1453C292.411 1431.47 296.392 1405.55 299.057 1389.07L303.007 1388.95C337.901 1387.25 332.697 1361.21 330.847 1354.76C330.596 1353.83 330.408 1353.31 330.408 1353.31C355.301 1332.12 411.294 1174.29 403.832 1156.88C396.371 1139.47 410.102 1124.14 413.018 1124.14C415.934 1124.14 420.009 1104.89 413.802 1094.29C407.594 1083.7 441.359 1074.09 441.359 1074.09ZM1296.93 649.288L1290.31 650.564V649.46C1290.31 649.46 1292.73 649.46 1296.93 649.288ZM935.263 503.986C934.259 504.967 933.256 505.899 932.127 506.806L930.842 507.836C930.842 506.046 930.842 504.231 930.842 502.49C932.347 502.956 933.789 503.52 935.263 503.986ZM810.58 690.807L811.019 696.227C811.019 696.227 810.36 699.537 809.106 705.202L810.58 690.807ZM1382.58 637.002L1360.85 639.92C1363.99 639.013 1366.97 638.032 1369.91 636.928C1372.1 636.128 1374.44 635.63 1376.84 635.457C1379.59 635.686 1382.3 636.138 1384.93 636.806C1384.14 636.823 1383.35 636.888 1382.58 637.002Z" fill="url(#paint0_linear_1_2)"/>
<path d="M648.056 1332.2C648.056 1332.2 622.975 1372.69 624.261 1375.56C625.546 1378.43 570.494 1412.78 570.494 1412.78L510.645 1379.36L516.915 1356.4C516.915 1356.4 584.1 1309.05 589.022 1303.58C593.944 1298.11 648.056 1332.2 648.056 1332.2Z" fill="#EFB7B9"/>
<path d="M306.644 1469.19C348.184 1500.73 397.029 1491.26 420.26 1489.27C443.491 1487.29 567.421 1429.07 579.335 1425.24C582.47 1424.21 586.389 1420.88 590.214 1416.56C598.207 1406.89 605.219 1396.75 611.187 1386.22C610.372 1386.4 569.741 1395.49 559.49 1386.22C559.49 1386.22 542.372 1369.82 538.704 1369.82C535.036 1369.82 538.422 1341.03 538.422 1341.03C538.422 1341.03 494.718 1360.25 480.078 1370.77C465.437 1381.29 396.997 1394.17 396.997 1394.17C380.072 1399.93 363.65 1406.56 347.839 1414.01C315.485 1429.46 282.88 1451.26 306.644 1469.19Z" fill="#67647E"/>
<path opacity="0.1" d="M306.644 1469.19C348.184 1500.73 397.029 1491.26 420.26 1489.27C443.491 1487.29 567.421 1429.07 579.335 1425.24C582.47 1424.21 586.389 1420.88 590.214 1416.56C575.761 1409.82 481.332 1456.78 454.903 1465.39C428.474 1473.99 361.602 1469.19 323.636 1456.78C304.826 1450.57 323.887 1431.52 347.776 1414.01C315.485 1429.46 282.88 1451.26 306.644 1469.19Z" fill="black"/>
<path d="M311.535 1369.82C311.535 1369.82 294.135 1472.06 298.555 1485.45C302.976 1498.84 189.36 1439.59 189.36 1439.59C189.36 1439.59 229.113 1375.51 217.576 1360.79C206.039 1346.08 311.535 1369.82 311.535 1369.82Z" fill="#EFB7B9"/>
<path d="M202.81 1371.73C202.81 1371.73 273.663 1387.97 312.726 1386.05C346.961 1384.38 341.851 1358.54 340.064 1352.14C339.813 1351.23 339.625 1350.71 339.625 1350.71C364.048 1329.67 419.037 1172.97 411.732 1155.78C404.428 1138.58 417.689 1123.4 420.824 1123.4C423.959 1123.4 427.69 1104.28 421.577 1093.78C415.463 1083.28 448.476 1073.72 448.476 1073.72C552.31 1081.35 663.481 1067.88 663.481 1067.88C663.481 1067.88 654.922 1091.87 647.586 1101.43C640.25 1111 619.37 1165.44 619.37 1176.91C619.37 1188.39 586.389 1286.81 576.607 1291.59C572.532 1293.6 568.864 1298.6 565.979 1303.85C563.403 1308.63 561.245 1313.55 559.521 1318.56C563.189 1382.59 656.019 1357.8 669.469 1349.14C671.383 1347.9 673.127 1346.5 674.673 1344.98C679.39 1340.14 681.857 1334.19 681.664 1328.1C681.664 1328.1 802.617 1231.6 786.722 1191.46C770.827 1151.31 825.816 1150.38 825.816 1150.38C825.816 1150.38 910.119 1121.71 921.844 1104.5C929.086 1093.93 992.29 1070.7 1039.88 1054.37C1069.7 1044.14 1093.37 1036.66 1093.37 1036.66L1073.55 981.093L1057.88 937.27L1028.47 928.637L934.416 900.974L765.685 882.459L750.229 884.029L586.295 900.631C586.295 900.631 346.961 954.191 322.508 962.578C298.054 970.965 284.636 1054.47 284.636 1054.47C284.636 1054.47 233.345 1193.03 235.853 1211.27C238.362 1229.52 218.736 1279.94 218.736 1279.94C218.736 1279.94 218.736 1337.1 210.428 1340.98C210.346 1341 210.259 1341 210.177 1340.98C201.587 1344.12 202.81 1371.73 202.81 1371.73Z" fill="#444053"/>
<path opacity="0.1" d="M448.35 1073.6C552.185 1081.22 663.355 1067.76 663.355 1067.76C670.691 1049.69 773.366 1000 773.366 1000C689.126 983.766 448.35 1073.6 448.35 1073.6Z" fill="black"/>
<path d="M559.521 1318.22C563.189 1382.25 656.019 1357.46 669.469 1348.8C671.383 1347.56 673.127 1346.16 674.673 1344.63C642.225 1353.98 584.696 1361.21 565.979 1303.6C563.408 1308.36 561.251 1313.24 559.521 1318.22Z" fill="#444053"/>
<path d="M202.81 1371.73C202.81 1371.73 273.663 1387.97 312.726 1386.05C346.961 1384.38 341.851 1358.54 340.064 1352.14C304.199 1351.25 242.437 1348.63 210.365 1341.03C210.283 1341.05 210.196 1341.05 210.114 1341.03C201.587 1344.12 202.81 1371.73 202.81 1371.73Z" fill="#444053"/>
<path opacity="0.1" d="M559.521 1318.22C563.189 1382.25 656.019 1357.46 669.469 1348.8C671.383 1347.56 673.127 1346.16 674.673 1344.63C642.225 1353.98 584.696 1361.21 565.979 1303.6C563.408 1308.36 561.251 1313.24 559.521 1318.22Z" fill="black"/>
<path opacity="0.1" d="M202.81 1371.73C202.81 1371.73 273.663 1387.97 312.726 1386.05C346.961 1384.38 341.851 1358.54 340.064 1352.14C304.199 1351.25 242.437 1348.63 210.365 1341.03C210.283 1341.05 210.196 1341.05 210.114 1341.03C201.587 1344.12 202.81 1371.73 202.81 1371.73Z" fill="black"/>
<path d="M28.0905 1571.45C65.9624 1591.51 123.397 1581.95 123.397 1581.95C123.397 1581.95 210.114 1549.48 235.791 1549.48C261.467 1549.48 323.636 1529.39 323.636 1529.39L321.536 1515.88L311.441 1451.04C311.441 1451.04 216.29 1449.13 212.466 1442.43C212.466 1442.43 195.379 1409.52 189.266 1421.69C183.152 1433.85 91.5448 1519.78 68.3137 1519.78C57.2468 1519.78 38.9692 1526.94 26.9618 1536.6C13.8885 1547.32 8.27663 1560.96 28.0905 1571.45Z" fill="#67647E"/>
<path opacity="0.1" d="M356.711 1006.7C356.711 1006.7 436.123 1045.93 414.146 1054.47C392.169 1063 356.711 1006.7 356.711 1006.7Z" fill="black"/>
<path opacity="0.1" d="M323.636 1082.18C323.636 1082.18 392.044 1132.99 366.399 1134.34C340.754 1135.69 323.636 1082.18 323.636 1082.18Z" fill="black"/>
<path opacity="0.1" d="M250.432 1243.57C250.432 1243.57 285.169 1294.65 272.095 1303.51C259.022 1312.36 250.432 1243.57 250.432 1243.57Z" fill="black"/>
<path opacity="0.1" d="M632.82 1295.29C620.593 1304.83 748.818 1263.75 719.536 1261.84C690.255 1259.93 632.82 1295.29 632.82 1295.29Z" fill="black"/>
<path d="M889.333 578.587L893.44 578.121C908.614 576.306 963.698 569.537 1013.11 561.15C1025.15 559.09 1036.81 556.957 1047.59 554.75C1085.43 547 1110.83 538.638 1094.62 531.771C1073.18 522.673 1061.89 506.144 1055.93 491.92C1055.37 490.522 1054.84 489.173 1054.33 487.825C1051.7 480.624 1050.05 473.225 1049.41 465.753C1049.41 465.753 911.467 427.521 938.241 465.753C951.44 484.514 942.567 499.817 930.121 510.533C921.564 517.618 911.496 523.485 900.369 527.872L889.333 578.587Z" fill="#EFB7B9"/>
<path opacity="0.1" d="M1037.15 548.962C1037.15 548.962 987.775 576.674 937.332 553.744C886.888 530.814 820.925 756.334 820.925 756.334L752.518 888.198C752.518 888.198 708.219 916.866 763.365 929.299C818.511 941.733 940.843 916.866 971.912 953.185C1002.98 989.505 1061.8 995.219 1067.81 995.219C1073.83 995.219 1097.1 858.549 1097.1 858.549L1103.15 660.741L1037.15 548.962Z" fill="black"/>
<path d="M765.685 921.648C820.831 934.057 943.194 909.214 974.263 945.534C987.353 960.332 1005.63 971.855 1026.9 978.715C1040.63 983.537 1055.28 986.569 1070.26 987.69C1071.04 987.69 1072.2 985.238 1073.55 980.848C1082.14 953.185 1099.54 851.02 1099.54 851.02L1105.56 653.212L1047.53 554.75L1039.6 541.311C1031.82 545.368 1023.39 548.593 1014.52 550.899C995.425 555.951 967.805 558.796 939.84 545.995C925.042 539.275 908.896 553.94 893.503 578.023C856.383 635.996 823.434 748.585 823.434 748.585L754.963 880.62C753.335 881.713 751.786 882.875 750.323 884.102C740.604 892.048 722.389 911.888 765.685 921.648Z" fill="#F3F5F9"/>
<path opacity="0.1" d="M1028.53 928.294C1025.83 944.983 1025.28 961.842 1026.9 978.616C1028.88 1002.48 1032.71 1026.23 1038.38 1049.74C1038.73 1051.21 1039.23 1052.66 1039.88 1054.08C1069.7 1043.85 1093.37 1036.37 1093.37 1036.37L1073.55 980.799C1082.14 953.136 1099.54 850.971 1099.54 850.971L1105.56 653.163L1047.53 554.75C1085.37 547 1110.77 538.638 1094.56 531.771C1071.04 521.79 1059.73 502.858 1054.27 487.825C1044.33 498.663 1032.69 508.484 1019.63 517.057L1018.88 517.547L1014.49 550.899L1013.14 561.15L1010.32 582.412C1010.32 582.412 1023.77 833.731 1033.52 848.077C1043.27 862.423 1038.41 890.111 1029.88 922.604C1029.35 924.444 1029.03 926.332 1028.53 928.294Z" fill="black"/>
<path d="M1034.71 918.779C1026.18 951.273 1033.49 1004.78 1043.27 1045.86C1053.05 1086.94 1156.88 1060.21 1176.45 1045.86C1196.01 1031.51 1253.38 1024.84 1253.38 1024.84C1253.38 1024.84 1255.83 837.556 1274.17 813.67C1282.85 802.34 1284.95 765.359 1284.73 729.628C1284.58 697.551 1282.54 666.479 1281.78 656.057C1281.6 653.604 1281.5 652.256 1281.5 652.256C1281.5 652.256 1360.88 547.147 1359.66 539.447C1358.44 531.746 1335.24 530.864 1335.24 530.864C1335.24 530.864 1247.46 477.353 1232.63 484.023C1217.8 490.694 1177.64 473.527 1177.64 473.527C1177.64 473.527 1126.57 478.064 1116 470.339C1115.36 469.911 1114.85 469.37 1114.53 468.761C1114.2 468.152 1114.06 467.491 1114.12 466.832C1115.31 454.571 1062.08 428.477 1060.42 427.594C1105.31 459.181 1032.73 507.86 1024.49 513.207L1023.73 513.697L1015.18 578.562C1015.18 578.562 1028.63 829.88 1038.38 844.227C1048.13 858.573 1043.27 886.285 1034.71 918.779Z" fill="#67647E"/>
<path d="M1039.44 650.563C1042.82 650.563 1045.56 648.422 1045.56 645.781C1045.56 643.14 1042.82 640.999 1039.44 640.999C1036.07 640.999 1033.33 643.14 1033.33 645.781C1033.33 648.422 1036.07 650.563 1039.44 650.563Z" fill="#444053"/>
<path opacity="0.1" d="M1026.93 517.057L1064.05 545.136L1118.45 474.018C1117.8 473.589 1117.3 473.049 1116.97 472.44C1116.65 471.83 1116.51 471.17 1116.57 470.511C1117.76 458.249 1064.49 432.156 1062.86 431.273C1107.76 463.031 1035.3 511.711 1026.93 517.057Z" fill="black"/>
<path opacity="0.1" d="M1051.67 803.444C1055.05 803.444 1057.78 801.303 1057.78 798.662C1057.78 796.021 1055.05 793.88 1051.67 793.88C1048.29 793.88 1045.56 796.021 1045.56 798.662C1045.56 801.303 1048.29 803.444 1051.67 803.444Z" fill="black"/>
<path d="M1051.67 801.531C1055.05 801.531 1057.78 799.39 1057.78 796.749C1057.78 794.108 1055.05 791.967 1051.67 791.967C1048.29 791.967 1045.56 794.108 1045.56 796.749C1045.56 799.39 1048.29 801.531 1051.67 801.531Z" fill="#444053"/>
<path d="M1024.49 513.231L1061.61 541.311L1116 470.192C1115.36 469.764 1114.85 469.223 1114.53 468.614C1114.2 468.005 1114.06 467.344 1114.12 466.685C1115.31 454.423 1062.08 428.33 1060.42 427.447C1105.31 459.205 1032.73 507.86 1024.49 513.231Z" fill="#67647E"/>
<path d="M991.327 780.822L1065.67 782.152C1068.61 782.205 1071.06 780.381 1071.12 778.079L1074.99 645.931C1075.05 643.629 1072.72 641.721 1069.78 641.668L995.434 640.338C992.491 640.286 990.051 642.109 989.984 644.411L986.121 776.559C986.053 778.861 988.384 780.769 991.327 780.822Z" fill="#D1D9EC"/>
<path d="M991.762 783.929L1066.11 785.259C1069.05 785.312 1071.49 783.488 1071.56 781.186L1075.42 649.038C1075.49 646.736 1073.16 644.828 1070.21 644.775L995.869 643.445C992.927 643.392 990.486 645.216 990.419 647.518L986.556 779.666C986.489 781.968 988.82 783.876 991.762 783.929Z" fill="#DFE6F5"/>
<path d="M1033.2 695.712C1040.58 695.712 1046.56 691.034 1046.56 685.264C1046.56 679.495 1040.58 674.817 1033.2 674.817C1025.83 674.817 1019.85 679.495 1019.85 685.264C1019.85 691.034 1025.83 695.712 1033.2 695.712Z" fill="white"/>
<path opacity="0.1" d="M572.939 910.171C603.475 920.692 803.839 893.004 833.152 886.285C862.465 879.565 905.26 827.992 884.474 790.643C863.688 753.293 891.779 717.072 891.779 717.072C891.779 717.072 935.67 643.501 945.546 629.154C955.421 614.808 975.705 573.093 978.527 566.104C978.641 565.319 978.547 564.524 978.25 563.768C977.954 563.013 977.461 562.314 976.802 561.714C968.839 552.322 938.115 535.597 938.115 535.597C929.494 538.049 928.428 518.7 928.71 504.501C928.898 496.555 929.494 490.228 929.494 490.228C929.494 490.228 925.45 493.44 918.835 497.83C916.421 499.424 913.662 501.19 910.589 503.005C899.133 510.184 886.17 515.752 872.278 519.46C842.965 526.253 801.425 557.57 801.425 557.57L813.652 704.319C813.652 704.319 785.436 842.338 756.217 869.094C726.998 895.849 638.933 894.893 609.62 894.893C580.307 894.893 572.939 910.171 572.939 910.171Z" fill="black"/>
<path d="M570.494 904.457C601.03 914.953 801.394 887.29 830.707 880.546C860.02 873.802 902.814 822.254 882.028 784.904C861.243 747.555 889.333 711.333 889.333 711.333C889.333 711.333 933.225 637.762 943.1 623.416C952.976 609.069 973.26 567.355 976.081 560.365C976.194 559.58 976.099 558.786 975.802 558.03C975.506 557.275 975.014 556.576 974.357 555.976C966.331 546.608 935.764 529.932 935.764 529.932C927.143 532.384 926.077 513.059 926.359 498.86C926.547 490.89 927.143 484.563 927.143 484.563C927.143 484.563 923.098 487.775 916.483 492.19C914.069 493.759 911.31 495.525 908.238 497.34C896.725 504.534 883.697 510.102 869.739 513.795C840.426 520.588 798.886 551.905 798.886 551.905L811.113 698.654C811.113 698.654 782.897 836.673 753.678 863.429C724.459 890.184 636.425 889.228 607.08 889.228C577.736 889.228 570.494 904.457 570.494 904.457Z" fill="#67647E"/>
<path opacity="0.1" d="M902.783 488.241C902.783 488.241 903.943 493.269 905.918 501.018C912.502 527.259 928.177 584.546 939.495 582.339C947.615 580.745 961.441 569.513 971.975 559.801C964.043 550.335 933.381 533.61 933.381 533.61C924.76 536.063 923.694 516.738 923.976 502.539L914.101 495.868L902.783 488.241Z" fill="black"/>
<path d="M905.228 484.489C905.228 484.489 906.388 489.517 908.363 497.266C914.947 523.506 930.623 580.794 941.94 578.587C950.06 576.993 963.886 565.761 974.42 556.049C966.331 546.608 935.764 529.932 935.764 529.932C927.143 532.384 926.077 513.059 926.359 498.86L916.483 492.19L905.228 484.489Z" fill="#67647E"/>
<path d="M827.039 765.874C827.039 765.874 888.142 756.334 905.228 735.317C922.315 714.3 1038.69 696.079 1024.36 718.151C1010.03 740.222 905.228 812.052 905.228 812.052L859.738 862.987L798.98 850.922L773.366 811.954L827.039 765.874Z" fill="#EFB7B9"/>
<path opacity="0.1" d="M971.567 820.414C971.567 820.414 912.408 837.581 903.504 860.535C894.6 883.489 971.567 820.414 971.567 820.414Z" fill="black"/>
<path opacity="0.1" d="M1007.84 847.121C1007.84 847.121 1013.23 870.982 939.087 869.192L1007.84 847.121Z" fill="black"/>
<path opacity="0.1" d="M1327.9 541.311L1354.8 539.398C1354.8 539.398 1384.11 556.564 1406.09 556.564C1428.07 556.564 1441.52 578.636 1441.52 578.636C1441.52 578.636 1478.17 592.026 1490.39 593.938C1502.62 595.851 1523.38 605.391 1517.26 609.217C1511.15 613.042 1518.48 621.65 1529.49 628.321C1540.49 634.991 1557.7 669.422 1542.91 674.204C1528.11 678.986 1487.95 688.526 1477.07 693.308C1466.19 698.09 1452.65 693.308 1452.65 693.308C1452.65 693.308 1387.94 627.364 1354.93 639.798C1321.91 652.231 1276.71 652.158 1276.71 652.158L1241.28 593.889L1327.9 541.311Z" fill="black"/>
<path d="M765.685 855.753C771.454 862.472 778.915 867.181 788.477 868.137C812.389 870.324 836.62 868.57 859.613 862.987C859.613 862.987 736.56 832.406 855.035 758.051H823.371L812.711 754.912L817.54 735.121L824.499 556.613L798.854 551.831C798.854 551.831 778.194 669.373 773.272 683.695C768.35 698.017 764.65 753.465 764.65 753.465C764.65 753.465 759.76 776.394 752.423 787.798C746.874 796.479 748.411 835.349 765.685 855.753Z" fill="#67647E"/>
<path opacity="0.1" d="M770.67 855.753C776.407 862.472 783.9 867.181 793.462 868.137C817.373 870.324 841.605 868.57 864.597 862.987C864.597 862.987 741.545 832.406 860.02 758.002H828.387L817.822 754.863C800.171 779.018 772.896 821.91 770.67 855.753Z" fill="black"/>
<path d="M765.685 855.753C771.454 862.472 778.915 867.181 788.477 868.137C812.389 870.324 836.62 868.57 859.613 862.987C859.613 862.987 736.56 832.406 855.035 758.051H823.371L812.711 754.912C795.406 779.018 768.005 821.91 765.685 855.753Z" fill="#67647E"/>
<path opacity="0.1" d="M930.09 510.607C950.965 518.016 974.258 520.197 996.779 516.852C1019.3 513.507 1039.95 504.799 1055.9 491.92C1055.34 490.522 1054.8 489.173 1054.3 487.825C1051.67 480.624 1050.02 473.225 1049.38 465.753C1049.38 465.753 911.436 427.521 938.209 465.753C951.408 484.587 942.536 499.89 930.09 510.607Z" fill="black"/>
<path d="M864.911 427.594V428.453C864.911 431.273 865.162 434.069 865.538 436.815C865.914 439.562 866.416 442.063 867.043 444.638C871.837 463.375 884.385 480.356 902.749 492.957C921.113 505.559 944.27 513.079 968.644 514.357C993.018 515.635 1017.25 510.6 1037.6 500.029C1057.95 489.458 1073.28 473.939 1081.23 455.87C1081.99 454.178 1082.64 452.486 1083.24 450.769C1085.92 443.223 1087.27 435.426 1087.25 427.594C1087.25 425.608 1087.25 423.597 1086.97 421.635C1084.92 399.185 1071.83 378.229 1050.44 363.175C1029.05 348.121 1001.03 340.141 972.269 340.913C943.512 341.685 916.258 351.148 896.237 367.313C876.215 383.479 864.986 405.087 864.911 427.594Z" fill="#EFB7B9"/>
<path opacity="0.1" d="M864.911 428.453C865.519 431.213 865.729 434.018 865.538 436.815C865.501 438.332 865.606 439.848 865.851 441.352C866.06 442.484 866.461 443.589 867.043 444.638C871.526 452.878 886.198 458.224 895.886 452.903C899.616 450.512 902.579 447.472 904.539 444.025C914.822 429.09 929.086 411.924 951.565 411.63C961.158 411.482 970.156 414.646 979.436 416.534C988.716 418.423 999.689 418.594 1006.59 413.665C1011.92 409.864 1014.42 403.39 1021.54 402.065C1028.66 400.741 1035.24 405.842 1038.5 410.845C1041.76 415.848 1044.36 421.733 1051.04 424.333C1053.99 425.461 1057.31 425.804 1060.45 427.03C1073.74 432.72 1067.63 452.658 1081.42 455.895C1081.85 456 1082.29 456.081 1082.74 456.14C1082.96 454.374 1083.21 452.559 1083.43 450.794C1084.68 441.082 1085.92 431.371 1087.16 421.66C1085.11 399.209 1072.01 378.254 1050.62 363.2C1029.23 348.146 1001.21 340.166 972.457 340.938C943.701 341.709 916.446 351.173 896.425 367.338C876.403 383.503 865.175 405.111 865.099 427.619L864.911 428.453Z" fill="black"/>
<path d="M1062.39 297.791C1075.46 302.131 1089.07 308.802 1091.99 319.224C1093.27 323.81 1092.3 328.568 1092.61 333.227C1093.24 342.644 1098.88 351.375 1102.61 360.4C1106.34 369.424 1107.6 380.019 1100.26 387.621C1097.97 390.073 1094.93 392.011 1092.86 394.512C1090.17 398.454 1088.7 402.842 1088.6 407.313L1082.55 454.35C1067.06 452.069 1073.96 431.052 1060.23 425.216C1057.37 423.989 1053.96 423.646 1050.98 422.493C1044.36 420.041 1041.79 414.033 1038.44 409.03C1035.08 404.027 1028.72 398.902 1021.48 400.251C1014.24 401.599 1011.85 408.074 1006.55 411.85C999.626 416.755 988.622 416.559 979.373 414.719C970.125 412.88 961.096 409.815 951.534 409.815C929.024 410.109 914.728 427.276 904.507 442.21C902.54 445.667 899.566 448.716 895.823 451.113C884.913 457.096 867.607 449.543 865.82 439.537C864.754 433.921 867.011 427.668 862.873 422.91C858.735 418.153 849.768 417.147 842.777 414.597C824.907 408.172 819.389 390.735 822.336 376.119C824.5 365.574 829.861 354.735 825.471 344.582C823.935 341.075 821.333 337.887 819.922 334.38C816.003 324.571 822.399 313.682 832.463 306.693C842.526 299.704 855.725 295.853 868.704 292.469C902.03 283.714 937.018 275.302 972.476 273.488C987.995 272.703 1008.34 268.902 1020.66 276.48C1035.3 285.259 1044.33 291.807 1062.39 297.791Z" fill="#585268"/>
<path opacity="0.1" d="M1033.33 575.055C1036.7 575.055 1039.44 572.914 1039.44 570.273C1039.44 567.632 1036.7 565.491 1033.33 565.491C1029.95 565.491 1027.21 567.632 1027.21 570.273C1027.21 572.914 1029.95 575.055 1033.33 575.055Z" fill="black"/>
<path d="M1033.33 573.142C1036.7 573.142 1039.44 571.001 1039.44 568.36C1039.44 565.719 1036.7 563.578 1033.33 563.578C1029.95 563.578 1027.21 565.719 1027.21 568.36C1027.21 571.001 1029.95 573.142 1033.33 573.142Z" fill="#444053"/>
<path opacity="0.1" d="M1072.42 875.127C1075.8 875.127 1078.54 872.986 1078.54 870.345C1078.54 867.703 1075.8 865.562 1072.42 865.562C1069.05 865.562 1066.31 867.703 1066.31 870.345C1066.31 872.986 1069.05 875.127 1072.42 875.127Z" fill="black"/>
<path d="M1072.42 873.214C1075.8 873.214 1078.54 871.073 1078.54 868.432C1078.54 865.791 1075.8 863.65 1072.42 863.65C1069.05 863.65 1066.31 865.791 1066.31 868.432C1066.31 871.073 1069.05 873.214 1072.42 873.214Z" fill="#444053"/>
<path opacity="0.1" d="M1051.67 954.436C1055.05 954.436 1057.78 952.295 1057.78 949.654C1057.78 947.013 1055.05 944.872 1051.67 944.872C1048.29 944.872 1045.56 947.013 1045.56 949.654C1045.56 952.295 1048.29 954.436 1051.67 954.436Z" fill="black"/>
<path d="M1051.67 952.523C1055.05 952.523 1057.78 950.382 1057.78 947.741C1057.78 945.1 1055.05 942.959 1051.67 942.959C1048.29 942.959 1045.56 945.1 1045.56 947.741C1045.56 950.382 1048.29 952.523 1051.67 952.523Z" fill="#444053"/>
<path opacity="0.1" d="M841.711 645.781C841.711 645.781 828.262 717.145 841.711 729.579C855.161 742.012 841.711 645.781 841.711 645.781Z" fill="black"/>
<path opacity="0.1" d="M1241.19 778.307C1241.19 778.307 1266.83 821.542 1241.19 862.987C1215.54 904.432 1199.65 921.28 1208.2 947.741C1216.76 974.202 1241.19 778.307 1241.19 778.307Z" fill="black"/>
<path opacity="0.1" d="M28.0905 1571.45C65.9624 1591.51 123.397 1581.95 123.397 1581.95C123.397 1581.95 210.114 1549.48 235.791 1549.48C261.467 1549.48 323.636 1529.39 323.636 1529.39L321.536 1515.88C296.235 1519.68 238.675 1528.78 232.029 1533.22C223.47 1538.96 118.413 1566.67 118.413 1566.67C118.413 1566.67 46.8697 1559.68 26.9618 1536.68C13.8885 1547.32 8.27663 1560.96 28.0905 1571.45Z" fill="black"/>
<g opacity="0.1">
<path d="M1092.61 325.576C1092.61 324.546 1092.61 323.516 1092.61 322.462C1092.61 323.663 1092.61 324.914 1092.61 326.042C1092.68 325.895 1092.61 325.748 1092.61 325.576Z" fill="black"/>
<path d="M842.808 406.872C849.8 409.324 858.484 410.305 862.904 415.161C867.325 420.017 864.786 426.172 865.851 431.788C867.701 441.794 884.944 449.371 895.854 443.363C899.597 440.966 902.571 437.918 904.539 434.461C914.79 419.526 929.086 402.36 951.565 402.065C961.158 401.943 970.156 405.106 979.436 406.97C988.716 408.834 999.689 409.03 1006.62 404.101C1011.92 400.324 1014.42 393.825 1021.54 392.501C1028.66 391.177 1035.21 396.278 1038.5 401.281C1041.79 406.283 1044.36 412.169 1051.04 414.769C1053.99 415.897 1057.31 416.24 1060.29 417.466C1074.02 423.327 1067.12 444.442 1082.61 446.6C1084.7 430.905 1086.72 415.226 1088.66 399.564C1088.79 395.142 1090.25 390.807 1092.93 386.91C1095 384.457 1098.04 382.397 1100.33 379.994C1103.1 377.026 1104.82 373.543 1105.34 369.89C1106.64 376.093 1104.84 382.449 1100.33 387.645C1098.04 390.098 1095 392.035 1092.93 394.537C1090.21 398.467 1088.73 402.847 1088.6 407.313C1086.51 422.992 1084.49 438.671 1082.55 454.35C1067.06 452.069 1073.96 431.052 1060.23 425.216C1057.37 423.989 1053.96 423.646 1050.98 422.494C1044.36 420.041 1041.79 414.033 1038.44 409.03C1035.08 404.027 1028.72 398.902 1021.48 400.251C1014.24 401.599 1011.85 408.074 1006.55 411.85C999.626 416.755 988.622 416.559 979.373 414.72C970.125 412.88 961.096 409.815 951.502 409.815C929.024 410.109 914.728 427.276 904.476 442.211C902.508 445.667 899.534 448.716 895.792 451.113C884.881 457.096 867.576 449.543 865.789 439.537C864.723 433.922 866.98 427.668 862.842 422.91C858.703 418.153 849.737 417.147 842.746 414.597C826.412 408.711 820.393 393.629 821.772 379.92C823.026 391.128 829.484 402.065 842.808 406.872Z" fill="black"/>
<path d="M819.954 326.631C821.364 330.137 823.966 333.35 825.503 336.832C827.121 340.898 827.591 345.191 826.882 349.413C826.638 347.746 826.176 346.102 825.503 344.508C823.966 341.001 821.364 337.813 819.954 334.306C818.716 331.07 818.468 327.651 819.232 324.325C819.415 325.104 819.655 325.874 819.954 326.631Z" fill="black"/>
</g>
<path d="M1509.14 1113.72L1257.33 1089.07C1255.56 1088.9 1253.88 1088.34 1252.48 1087.47C1251.09 1086.59 1250.04 1085.43 1249.44 1084.11C1248.84 1082.79 1248.73 1081.37 1249.11 1080C1249.49 1078.63 1250.35 1077.37 1251.59 1076.37L1357.22 990.535C1358.24 989.7 1359.5 989.062 1360.89 988.671C1362.28 988.279 1363.77 988.145 1365.24 988.279L1557.77 1005.15C1559.23 1005.28 1560.64 1005.67 1561.88 1006.29C1563.12 1006.91 1564.16 1007.75 1564.93 1008.73C1565.69 1009.72 1566.15 1010.83 1566.28 1011.97C1566.41 1013.12 1566.2 1014.28 1565.67 1015.35L1519.33 1109.01C1518.54 1110.57 1517.11 1111.87 1515.27 1112.73C1513.42 1113.58 1511.27 1113.93 1509.14 1113.72Z" fill="#746D83"/>
<path opacity="0.1" d="M1509.14 1113.72L1257.33 1089.07C1255.56 1088.9 1253.88 1088.34 1252.48 1087.47C1251.09 1086.59 1250.04 1085.43 1249.44 1084.11C1248.84 1082.79 1248.73 1081.37 1249.11 1080C1249.49 1078.63 1250.35 1077.37 1251.59 1076.37L1357.22 990.535C1358.24 989.7 1359.5 989.062 1360.89 988.671C1362.28 988.279 1363.77 988.145 1365.24 988.279L1557.77 1005.15C1559.23 1005.28 1560.64 1005.67 1561.88 1006.29C1563.12 1006.91 1564.16 1007.75 1564.93 1008.73C1565.69 1009.72 1566.15 1010.83 1566.28 1011.97C1566.41 1013.12 1566.2 1014.28 1565.67 1015.35L1519.33 1109.01C1518.54 1110.57 1517.11 1111.87 1515.27 1112.73C1513.42 1113.58 1511.27 1113.93 1509.14 1113.72Z" fill="black"/>
<path d="M1506.29 1111.51L1254.51 1086.77C1252.73 1086.59 1251.06 1086.03 1249.67 1085.15C1248.27 1084.27 1247.22 1083.11 1246.63 1081.79C1246.03 1080.46 1245.92 1079.04 1246.3 1077.67C1246.67 1076.31 1247.53 1075.05 1248.77 1074.04L1354.39 988.205C1355.42 987.372 1356.68 986.734 1358.07 986.338C1359.46 985.943 1360.95 985.802 1362.42 985.924L1554.91 1002.8C1556.38 1002.93 1557.79 1003.32 1559.04 1003.94C1560.28 1004.56 1561.33 1005.4 1562.09 1006.38C1562.86 1007.37 1563.33 1008.48 1563.46 1009.64C1563.59 1010.79 1563.38 1011.95 1562.85 1013.02L1516.48 1106.68C1515.71 1108.26 1514.29 1109.59 1512.45 1110.46C1510.6 1111.34 1508.43 1111.71 1506.29 1111.51Z" fill="#746D83"/>
<path d="M1356.24 1021.83L1431.86 1026.58L1539.71 1021.09H1537.86L1437.94 1013.54C1415.06 1006.97 1430.92 968.267 1430.92 968.267L1354.39 971.308L1348.28 971.554C1321.22 1021.09 1356.24 1021.83 1356.24 1021.83Z" fill="#D1D9EC"/>
<path opacity="0.1" d="M1356.24 1021.83L1431.86 1026.58L1539.71 1021.09H1537.86L1428.82 1024.13L1355.77 1017.93C1335.02 1013.66 1346.9 985.508 1354.39 971.333L1348.28 971.578C1321.22 1021.09 1356.24 1021.83 1356.24 1021.83Z" fill="black"/>
<path d="M1223.79 670.084L1246.92 929.667L1250.06 963.731C1250.37 967.491 1252.52 971.013 1256.05 973.573C1259.58 976.133 1264.24 977.534 1269.06 977.488H1276.08L1624.39 975.845C1625.75 975.833 1627.09 975.601 1628.33 975.162C1629.56 974.724 1630.67 974.089 1631.58 973.298C1632.49 972.508 1633.17 971.578 1633.6 970.568C1634.02 969.559 1634.17 968.491 1634.04 967.434L1630.91 933.346L1606.39 705.08C1606.01 702.103 1604.55 699.274 1602.17 696.927C1599.8 694.581 1596.62 692.814 1593.01 691.837L1261.03 652.893C1249.74 649.828 1238.24 650.907 1231.06 655.591C1228.41 657.351 1226.37 659.595 1225.1 662.123C1223.83 664.652 1223.38 667.387 1223.79 670.084Z" fill="#4C4C56"/>
<path d="M1246.92 929.667L1250.06 963.731C1250.37 967.491 1252.52 971.013 1256.05 973.573C1259.58 976.133 1264.24 977.534 1269.06 977.488H1276.08L1624.39 975.845C1625.75 975.833 1627.09 975.601 1628.32 975.162C1629.56 974.724 1630.67 974.089 1631.58 973.298C1632.49 972.508 1633.17 971.578 1633.6 970.568C1634.02 969.559 1634.17 968.491 1634.04 967.434L1630.91 933.346L1246.92 929.667Z" fill="#DFE6F5"/>
<path d="M1480.42 965.227C1483 965.227 1485.1 961.955 1485.1 957.918C1485.1 953.882 1483 950.61 1480.42 950.61C1477.84 950.61 1475.75 953.882 1475.75 957.918C1475.75 961.955 1477.84 965.227 1480.42 965.227Z" fill="white"/>
<path d="M1466.88 1055.06C1466.88 1055.06 1371.64 1026.93 1345.96 1047.38C1345.96 1047.38 1341.76 1053.61 1359.03 1055.06L1428.82 1059.45C1428.82 1059.45 1457.54 1061.63 1466.88 1055.06Z" fill="#D1D9EC"/>
<path d="M1464.34 1047.75C1445.53 1041.76 1389.32 1026.29 1353.27 1043.41C1353.27 1043.41 1393.14 1039.95 1415.06 1049.86C1436.97 1059.77 1466.88 1055.06 1466.88 1055.06L1467.32 1054.44C1467.74 1053.86 1468 1053.21 1468.07 1052.54C1468.15 1051.88 1468.04 1051.2 1467.76 1050.57C1467.48 1049.94 1467.03 1049.36 1466.44 1048.87C1465.85 1048.39 1465.13 1048 1464.34 1047.75Z" fill="#DFE6F5"/>
<path d="M1223.79 670.084L1249.93 963.78C1250.24 967.54 1252.39 971.062 1255.92 973.622C1259.46 976.182 1264.11 977.583 1268.93 977.537H1275.95C1271.14 973.946 1267.04 969.813 1263.79 965.276C1263.79 965.276 1238.11 670.158 1236.23 662.85C1235.41 660.114 1233.61 657.615 1231.06 655.64C1228.42 657.395 1226.38 659.631 1225.11 662.15C1223.84 664.67 1223.39 667.395 1223.79 670.084Z" fill="#DFE6F5"/>
<path opacity="0.1" d="M1223.79 670.084L1249.93 963.78C1250.24 967.54 1252.39 971.062 1255.92 973.622C1259.46 976.182 1264.11 977.583 1268.93 977.537H1275.95C1271.14 973.946 1267.04 969.813 1263.79 965.276C1263.79 965.276 1238.11 670.158 1236.23 662.85C1235.41 660.114 1233.61 657.615 1231.06 655.64C1228.42 657.395 1226.38 659.631 1225.11 662.15C1223.84 664.67 1223.39 667.395 1223.79 670.084Z" fill="black"/>
<path opacity="0.1" d="M1178.86 751.503C1207.08 746.598 1272.91 731.492 1272.91 731.492L1284.7 729.628C1284.54 697.551 1282.51 666.479 1281.75 656.057H1281.47C1281.47 656.057 1225.26 670.403 1211.84 678.128C1198.42 685.853 1156.85 683.842 1156.85 683.842C1156.85 683.842 1092.14 686.564 1038.44 733.478C984.734 780.392 1150.77 756.334 1178.86 751.503Z" fill="black"/>
<path d="M1453.46 666.234C1455.97 667.132 1458.15 668.514 1459.8 670.249C1461.44 671.985 1462.49 674.018 1462.86 676.159C1463.23 678.3 1462.89 680.478 1461.89 682.491C1460.89 684.504 1459.25 686.285 1457.13 687.668C1442.24 697.306 1420.51 708.832 1399.76 710.45C1365.27 713.172 1281.88 726.243 1273.6 727.617C1273.16 727.675 1272.72 727.757 1272.29 727.862C1265.42 729.432 1205.35 743.189 1178.86 747.726C1150.64 752.631 984.484 776.443 1038.38 729.628C1087.85 686.515 1146.63 680.58 1155.69 680.016C1156.41 679.968 1157.13 679.968 1157.85 680.016C1164.12 680.237 1199.61 681.194 1211.87 674.253C1218.26 671.12 1225.02 668.483 1232.06 666.381C1258.63 657.783 1286.33 651.532 1314.67 647.743L1372.14 639.896C1375.41 639.455 1378.78 639.797 1381.79 640.877L1453.46 666.234Z" fill="#EFB7B9"/>
<path d="M1332.79 541.311L1359.66 539.398C1359.66 539.398 1389.01 556.564 1410.98 556.564C1432.96 556.564 1446.41 578.636 1446.41 578.636C1446.41 578.636 1483.06 592.026 1495.29 593.938C1507.51 595.851 1528.27 605.391 1522.15 609.217C1516.04 613.042 1523.38 621.65 1534.38 628.321C1545.38 634.991 1562.6 669.422 1547.8 674.204C1533 678.986 1492.84 688.526 1481.96 693.308C1471.08 698.09 1457.54 693.308 1457.54 693.308C1457.54 693.308 1392.7 627.315 1359.69 639.749C1326.68 652.182 1281.5 652.158 1281.5 652.158L1246.08 593.889L1332.79 541.311Z" fill="#67647E"/>
<path d="M2941.44 1742.97C2938.43 1746.19 2936.04 1749.73 2934.33 1753.49C2933.86 1754.4 2933.45 1755.45 2933.01 1756.46C2932.21 1756.17 2931.38 1755.94 2930.53 1755.77C2926.88 1755.05 2923.1 1754.8 2919.34 1755.04C2919.34 1753.88 2919.34 1752.71 2919.56 1751.43C2920 1738.51 2918.06 1720.51 2902.32 1728.13C2887.17 1735.49 2897.96 1747.75 2907.71 1755.6L2910.22 1757.54C2901.35 1762.44 2899.65 1774.04 2898.15 1786.08C2896.64 1798.12 2883.6 1811.29 2874.95 1818.77C2874.07 1819.56 2873.25 1820.22 2872.5 1820.86C2869.01 1818.68 2864.97 1817.11 2860.65 1816.23C2856.33 1815.36 2851.82 1815.2 2847.42 1815.78L2846.26 1812.47C2839.24 1792.63 2824.66 1758.27 2806.07 1750.74C2806.85 1749.98 2807.67 1749.2 2808.51 1748.29C2816.42 1740.22 2825.29 1728.21 2812.15 1725.14C2799.02 1722.08 2797.86 1735.56 2798.58 1745.64C2798.58 1746.92 2798.7 1748.12 2798.95 1749.25C2796.32 1749.34 2793.74 1749.85 2791.38 1750.76C2789.01 1751.66 2786.9 1752.93 2785.19 1754.5L2783.18 1752.61C2772.52 1742.8 2752.96 1727.18 2747.07 1738.97C2741.55 1749.96 2758.76 1764.23 2770.86 1772.5L2771.61 1773.01C2763.46 1798.79 2798.95 1819.8 2818.05 1829L2820.49 1830.18C2794.16 1854.45 2777.92 1899.97 2777.92 1899.97L2851.65 1910.27C2851.65 1910.27 2900.53 1877.26 2894.29 1846.26H2894.79C2943.64 1838.61 2954.77 1797.85 2947.15 1773.67L2948.03 1773.38C2956.92 1770.52 2964.71 1765.91 2970.63 1759.99C2984.14 1745.15 2955.46 1728.38 2941.44 1742.97Z" fill="#FFA100"/>
<path opacity="0.1" d="M2941.44 1742.97C2938.43 1746.19 2936.04 1749.73 2934.33 1753.49C2933.86 1754.4 2933.45 1755.45 2933.01 1756.46C2932.21 1756.17 2931.38 1755.94 2930.53 1755.77C2926.88 1755.05 2923.1 1754.8 2919.34 1755.04C2919.34 1753.88 2919.34 1752.71 2919.56 1751.43C2920 1738.51 2918.06 1720.51 2902.32 1728.13C2887.17 1735.49 2897.96 1747.75 2907.71 1755.6L2910.22 1757.54C2901.35 1762.44 2899.65 1774.04 2898.15 1786.08C2896.64 1798.12 2883.6 1811.29 2874.95 1818.77C2874.07 1819.56 2873.25 1820.22 2872.5 1820.86C2869.01 1818.68 2864.97 1817.11 2860.65 1816.23C2856.33 1815.36 2851.82 1815.2 2847.42 1815.78L2846.26 1812.47C2839.24 1792.63 2824.66 1758.27 2806.07 1750.74C2806.85 1749.98 2807.67 1749.2 2808.51 1748.29C2816.42 1740.22 2825.29 1728.21 2812.15 1725.14C2799.02 1722.08 2797.86 1735.56 2798.58 1745.64C2798.58 1746.92 2798.7 1748.12 2798.95 1749.25C2796.32 1749.34 2793.74 1749.85 2791.38 1750.76C2789.01 1751.66 2786.9 1752.93 2785.19 1754.5L2783.18 1752.61C2772.52 1742.8 2752.96 1727.18 2747.07 1738.97C2741.55 1749.96 2758.76 1764.23 2770.86 1772.5L2771.61 1773.01C2763.46 1798.79 2798.95 1819.8 2818.05 1829L2820.49 1830.18C2794.16 1854.45 2777.92 1899.97 2777.92 1899.97L2851.65 1910.27C2851.65 1910.27 2900.53 1877.26 2894.29 1846.26H2894.79C2943.64 1838.61 2954.77 1797.85 2947.15 1773.67L2948.03 1773.38C2956.92 1770.52 2964.71 1765.91 2970.63 1759.99C2984.14 1745.15 2955.46 1728.38 2941.44 1742.97Z" fill="black"/>
<path d="M2794.63 1759.6L2786 1779.34C2786 1779.34 2781.24 1776.69 2775.19 1772.52C2763.09 1764.26 2745.88 1749.98 2751.39 1739C2757.29 1727.2 2776.85 1742.77 2787.51 1752.63C2791.8 1756.56 2794.63 1759.6 2794.63 1759.6Z" fill="#FFA100"/>
<path d="M2812.9 1748.32C2810.27 1751.03 2807.44 1753.64 2804.44 1756.11C2803.68 1752.67 2803.17 1749.2 2802.9 1745.72C2802.18 1735.64 2803.53 1722.2 2816.48 1725.21C2829.43 1728.23 2820.74 1740.25 2812.9 1748.32Z" fill="#FFA100"/>
<path d="M2924.04 1751.43C2923.76 1757.93 2922.95 1763.13 2922.95 1763.13C2919.15 1760.81 2915.56 1758.29 2912.19 1755.6C2902.44 1747.7 2891.66 1735.47 2906.8 1728.13C2922.63 1720.51 2924.48 1738.51 2924.04 1751.43Z" fill="#FFA100"/>
<path d="M2974.96 1759.94C2969.03 1765.86 2961.24 1770.47 2952.35 1773.33C2949.89 1774.18 2947.35 1774.9 2944.77 1775.49L2934.61 1764.33C2935.68 1760.64 2937.08 1757.02 2938.81 1753.49C2940.52 1749.73 2942.92 1746.19 2945.93 1742.97C2959.97 1728.38 2988.66 1745.15 2974.96 1759.94Z" fill="#FFA100"/>
<path opacity="0.1" d="M2787.51 1752.63C2791.8 1756.56 2794.63 1759.6 2794.63 1759.6L2786 1779.34C2786 1779.34 2781.24 1776.69 2775.19 1772.52C2776.52 1766.2 2779.85 1760.24 2784.88 1755.18C2785.75 1754.25 2786.66 1753.42 2787.51 1752.63Z" fill="black"/>
<path opacity="0.1" d="M2812.9 1748.32C2810.27 1751.03 2807.44 1753.64 2804.44 1756.11C2803.68 1752.67 2803.17 1749.2 2802.9 1745.72C2806.5 1745.75 2809.99 1746.66 2812.9 1748.32Z" fill="black"/>
<path d="M2855.23 1826.69L2833.78 1834.05C2829.87 1832.52 2826.06 1830.83 2822.37 1829C2799.83 1818.16 2754.5 1790.86 2784.75 1758.69C2815 1726.51 2840.46 1784.22 2850.59 1812.45C2853.66 1820.91 2855.23 1826.69 2855.23 1826.69Z" fill="#FFA100"/>
<path opacity="0.1" d="M2912.19 1755.6C2915.33 1753.09 2919.56 1751.6 2924.04 1751.43C2923.76 1757.93 2922.95 1763.13 2922.95 1763.13C2919.15 1760.81 2915.56 1758.29 2912.19 1755.6Z" fill="black"/>
<path opacity="0.1" d="M2952.35 1773.28C2949.89 1774.13 2947.35 1774.85 2944.77 1775.44L2934.61 1764.28C2935.68 1760.59 2937.08 1756.97 2938.81 1753.44C2945.36 1756.48 2950.19 1763.94 2952.35 1773.28Z" fill="black"/>
<path d="M2899.12 1846.21C2897.93 1846.41 2896.74 1846.58 2895.51 1846.73C2823.63 1855.26 2871.81 1824.93 2871.81 1824.93C2871.81 1824.93 2874.95 1822.6 2879.43 1818.77C2888.08 1811.42 2901.16 1798.2 2902.63 1786.08C2904.89 1767.86 2907.52 1750.77 2935.02 1755.77C2962.01 1760.72 2967.15 1835.57 2899.12 1846.21Z" fill="#FFA100"/>
<path d="M2897.77 1986.22H2760.42V2014.47H2897.77V1986.22Z" fill="#D4DFEC"/>
<path d="M2918.06 1894.4H2738.6V1992.99H2918.06V1894.4Z" fill="#D4DFEC"/>
<path opacity="0.1" d="M2897.77 1986.22H2760.42V2014.47H2897.77V1986.22Z" fill="black"/>
<path opacity="0.1" d="M2918.06 1894.4H2738.6V1992.99H2918.06V1894.4Z" fill="black"/>
<path d="M2906.8 1986.22H2769.45V2014.47H2906.8V1986.22Z" fill="#D4DFEC"/>
<path opacity="0.1" d="M2850.53 1812.52C2853.66 1820.95 2855.17 1826.74 2855.17 1826.74L2833.72 1834.1C2829.81 1832.57 2826 1830.88 2822.31 1829.05C2830.77 1820.69 2840.24 1814.41 2850.53 1812.52Z" fill="black"/>
<path opacity="0.1" d="M2899.12 1846.21C2897.93 1846.41 2896.74 1846.58 2895.51 1846.73C2823.63 1855.26 2871.81 1824.93 2871.81 1824.93C2871.81 1824.93 2874.95 1822.6 2879.43 1818.77C2892.85 1827.23 2898.4 1836.65 2899.12 1846.21Z" fill="black"/>
<path d="M2782.24 1899.99C2782.24 1899.99 2822.5 1787.19 2878.93 1822.01C2935.36 1856.83 2855.98 1910.29 2855.98 1910.29L2782.24 1899.99Z" fill="#FFA100"/>
<path opacity="0.1" d="M2802.56 1779.9C2805.05 1779.9 2807.07 1778.32 2807.07 1776.37C2807.07 1774.42 2805.05 1772.84 2802.56 1772.84C2800.06 1772.84 2798.04 1774.42 2798.04 1776.37C2798.04 1778.32 2800.06 1779.9 2802.56 1779.9Z" fill="black"/>
<path opacity="0.1" d="M2802.18 1796.38C2804.68 1796.38 2806.7 1794.8 2806.7 1792.85C2806.7 1790.9 2804.68 1789.32 2802.18 1789.32C2799.69 1789.32 2797.67 1790.9 2797.67 1792.85C2797.67 1794.8 2799.69 1796.38 2802.18 1796.38Z" fill="black"/>
<path opacity="0.1" d="M2933.1 1783.14C2935.6 1783.14 2937.62 1781.56 2937.62 1779.61C2937.62 1777.66 2935.6 1776.08 2933.1 1776.08C2930.61 1776.08 2928.59 1777.66 2928.59 1779.61C2928.59 1781.56 2930.61 1783.14 2933.1 1783.14Z" fill="black"/>
<path opacity="0.1" d="M2827.76 1867.62C2830.26 1867.62 2832.28 1866.04 2832.28 1864.09C2832.28 1862.14 2830.26 1860.56 2827.76 1860.56C2825.27 1860.56 2823.25 1862.14 2823.25 1864.09C2823.25 1866.04 2825.27 1867.62 2827.76 1867.62Z" fill="black"/>
<path opacity="0.1" d="M2923.7 1810.51C2926.19 1810.51 2928.21 1808.93 2928.21 1806.98C2928.21 1805.03 2926.19 1803.45 2923.7 1803.45C2921.21 1803.45 2919.18 1805.03 2919.18 1806.98C2919.18 1808.93 2921.21 1810.51 2923.7 1810.51Z" fill="black"/>
<path opacity="0.1" d="M2877.05 1847.02C2879.54 1847.02 2881.56 1845.44 2881.56 1843.49C2881.56 1841.54 2879.54 1839.96 2877.05 1839.96C2874.55 1839.96 2872.53 1841.54 2872.53 1843.49C2872.53 1845.44 2874.55 1847.02 2877.05 1847.02Z" fill="black"/>
<path opacity="0.1" d="M2817.98 1786.97C2820.48 1786.97 2822.5 1785.38 2822.5 1783.43C2822.5 1781.48 2820.48 1779.9 2817.98 1779.9C2815.49 1779.9 2813.47 1781.48 2813.47 1783.43C2813.47 1785.38 2815.49 1786.97 2817.98 1786.97Z" fill="black"/>
<path opacity="0.1" d="M2920.69 1793.73C2923.18 1793.73 2925.2 1792.15 2925.2 1790.2C2925.2 1788.25 2923.18 1786.67 2920.69 1786.67C2918.2 1786.67 2916.17 1788.25 2916.17 1790.2C2916.17 1792.15 2918.2 1793.73 2920.69 1793.73Z" fill="black"/>
<path opacity="0.1" d="M2905.26 1821.1C2907.76 1821.1 2909.78 1819.52 2909.78 1817.57C2909.78 1815.62 2907.76 1814.04 2905.26 1814.04C2902.77 1814.04 2900.75 1815.62 2900.75 1817.57C2900.75 1819.52 2902.77 1821.1 2905.26 1821.1Z" fill="black"/>
<path opacity="0.1" d="M2857.86 1864.97C2860.35 1864.97 2862.38 1863.39 2862.38 1861.44C2862.38 1859.49 2860.35 1857.91 2857.86 1857.91C2855.37 1857.91 2853.35 1859.49 2853.35 1861.44C2853.35 1863.39 2855.37 1864.97 2857.86 1864.97Z" fill="black"/>
<path opacity="0.1" d="M2848.08 1847.61C2850.57 1847.61 2852.59 1846.03 2852.59 1844.08C2852.59 1842.13 2850.57 1840.55 2848.08 1840.55C2845.59 1840.55 2843.57 1842.13 2843.57 1844.08C2843.57 1846.03 2845.59 1847.61 2848.08 1847.61Z" fill="black"/>
<path opacity="0.1" d="M2824.75 1808.45C2827.25 1808.45 2829.27 1806.87 2829.27 1804.92C2829.27 1802.97 2827.25 1801.39 2824.75 1801.39C2822.26 1801.39 2820.24 1802.97 2820.24 1804.92C2820.24 1806.87 2822.26 1808.45 2824.75 1808.45Z" fill="black"/>
<path opacity="0.1" d="M2906.8 1986.22H2769.45V1996.54H2906.8V1986.22Z" fill="black"/>
<path d="M2927.08 1894.4H2747.63V1992.99H2927.08V1894.4Z" fill="#D4DFEC"/>
<path opacity="0.1" d="M2863.88 1880.87C2866.37 1880.87 2868.4 1879.29 2868.4 1877.33C2868.4 1875.38 2866.37 1873.8 2863.88 1873.8C2861.39 1873.8 2859.37 1875.38 2859.37 1877.33C2859.37 1879.29 2861.39 1880.87 2863.88 1880.87Z" fill="black"/>
<path opacity="0.1" d="M2836.79 1885.28C2839.29 1885.28 2841.31 1883.7 2841.31 1881.75C2841.31 1879.8 2839.29 1878.22 2836.79 1878.22C2834.3 1878.22 2832.28 1879.8 2832.28 1881.75C2832.28 1883.7 2834.3 1885.28 2836.79 1885.28Z" fill="black"/>
</g>
<defs>
<linearGradient id="paint0_linear_1_2" x1="783.68" y1="1588.64" x2="783.68" y2="266.106" gradientUnits="userSpaceOnUse">
<stop stop-color="#808080" stop-opacity="0.25"/>
<stop offset="0.54" stop-color="#808080" stop-opacity="0.12"/>
<stop offset="1" stop-color="#808080" stop-opacity="0.1"/>
</linearGradient>
<clipPath id="clip0_1_2">
<rect width="3124" height="2031" fill="white"/>
</clipPath>
</defs>
</svg>
